<svg xmlns="http://www.w3.org/2000/svg" xmlns:xlink="http://www.w3.org/1999/xlink" width="500" zoomAndPan="magnify" viewBox="0 0 375 374.999991" height="500" preserveAspectRatio="xMidYMid meet" version="1.0"><defs><clipPath id="dba71ec4c6"><path d="M 1.671875 5.644531 L 373.390625 5.644531 L 373.390625 369.277344 L 1.671875 369.277344 Z M 1.671875 5.644531 " clip-rule="nonzero"/></clipPath></defs><path fill="#2b2b2b" d="M 135.714844 16.554688 C 135.714844 16.554688 118.675781 20.671875 111.207031 23.019531 C 103.738281 25.367188 90.535156 31.121094 86.101562 34.457031 C 81.351562 38.042969 71.464844 52.0625 68.765625 54.992188 C 66.0625 57.921875 47.242188 74.660156 45.160156 79.058594 C 43.074219 83.453125 19.167969 118.09375 16.769531 131.882812 C 14.386719 145.671875 6.898438 168.269531 6.898438 176.480469 C 6.898438 184.691406 0.632812 203.175781 3.617188 214.917969 C 6.597656 226.65625 8.699219 248.074219 13.484375 257.765625 C 18.269531 267.441406 26.9375 284.761719 30.523438 289.457031 C 34.105469 294.152344 42.773438 315.289062 59.8125 324.664062 C 76.851562 334.054688 102.238281 348.144531 109.125 354.890625 C 116.011719 361.632812 136.613281 368.679688 165.003906 368.394531 C 193.394531 368.09375 225.070312 368.695312 237.320312 366.046875 C 249.574219 363.398438 275.5625 351.921875 278.265625 349.152344 C 280.964844 346.378906 308.738281 329.128906 315.324219 319.261719 C 321.890625 309.410156 347.597656 281.8125 352.683594 264.210938 C 356.335938 251.535156 369.121094 217.265625 370.320312 206.6875 C 371.519531 196.128906 373.304688 162.089844 370.320312 145.652344 C 367.335938 129.214844 349.097656 90.78125 339.546875 80.222656 C 329.996094 69.664062 309.074219 50.296875 305.488281 45.597656 C 301.90625 40.902344 272.015625 16.554688 255.292969 12.441406 C 238.574219 8.328125 202.644531 6.863281 197.859375 6.863281 C 193.078125 6.863281 150.808594 12.742188 135.714844 16.539062 Z M 135.714844 16.554688 " fill-opacity="1" fill-rule="nonzero"/><g clip-path="url(#dba71ec4c6)"><path fill="#14100d" d="M 135.90625 17.332031 C 130.0625 18.816406 124.253906 20.351562 118.515625 22.152344 C 115.65625 23.054688 112.78125 23.9375 110.023438 24.976562 C 107.253906 26.039062 104.515625 27.21875 101.816406 28.472656 C 99.097656 29.691406 96.414062 31 93.78125 32.324219 C 92.457031 32.992188 91.167969 33.683594 89.933594 34.421875 C 88.679688 35.148438 87.496094 35.871094 86.5625 36.738281 C 84.53125 38.609375 82.589844 40.902344 80.699219 43.199219 C 78.808594 45.492188 76.972656 47.859375 75.136719 50.242188 L 72.332031 53.808594 L 70.863281 55.609375 C 70.335938 56.226562 69.734375 56.847656 69.171875 57.375 C 66.945312 59.496094 64.738281 61.507812 62.515625 63.554688 C 58.117188 67.652344 53.667969 71.710938 49.609375 76.019531 C 48.621094 77.078125 47.613281 78.226562 46.90625 79.25 C 46.640625 79.621094 46.164062 80.523438 45.777344 81.175781 L 44.558594 83.117188 L 39.648438 90.726562 C 36.382812 95.777344 33.152344 100.863281 30.082031 106.015625 C 27.007812 111.171875 24.023438 116.398438 21.449219 121.785156 C 20.160156 124.46875 19.011719 127.238281 18.199219 130.027344 L 17.667969 132.148438 L 17.246094 134.390625 C 16.925781 135.871094 16.628906 137.355469 16.273438 138.820312 C 14.898438 144.71875 13.289062 150.527344 11.84375 156.371094 C 10.414062 162.195312 8.859375 168.058594 8.101562 173.902344 C 7.992188 174.644531 7.957031 175.351562 7.941406 176.054688 L 7.835938 178.371094 C 7.695312 179.921875 7.5 181.441406 7.253906 182.941406 C 6.777344 185.945312 6.210938 188.910156 5.679688 191.859375 C 4.691406 197.753906 3.722656 203.703125 4.058594 209.546875 C 4.144531 210.996094 4.304688 212.445312 4.621094 213.839844 C 4.886719 215.234375 5.34375 216.789062 5.628906 218.253906 C 6.28125 221.21875 6.828125 224.203125 7.375 227.167969 C 8.46875 233.101562 9.496094 239.035156 10.820312 244.84375 C 11.488281 247.738281 12.25 250.632812 13.203125 253.386719 L 13.980469 255.417969 C 14.277344 256.070312 14.542969 256.707031 14.878906 257.378906 L 16.910156 261.402344 C 19.628906 266.769531 22.367188 272.136719 25.15625 277.433594 C 26.566406 280.082031 27.996094 282.730469 29.515625 285.273438 C 30.273438 286.578125 31.035156 287.710938 31.917969 288.964844 C 32.871094 290.324219 33.558594 291.628906 34.335938 292.953125 C 37.285156 298.214844 40.25 303.371094 43.816406 308.121094 C 47.332031 312.886719 51.375 317.265625 56.105469 320.726562 C 58.4375 322.492188 61.011719 323.867188 63.660156 325.367188 L 71.535156 329.800781 C 82.003906 335.785156 92.492188 341.753906 102.523438 348.566406 C 105.011719 350.296875 107.5 352.0625 109.761719 354.234375 C 111.824219 356.195312 114.386719 357.730469 117.035156 359.039062 C 122.382812 361.597656 128.140625 363.347656 133.984375 364.597656 C 139.828125 365.871094 145.777344 366.664062 151.746094 367.125 C 157.730469 367.546875 163.699219 367.511719 169.734375 367.390625 C 181.792969 367.210938 193.835938 367.195312 205.875 366.894531 C 211.898438 366.734375 217.898438 366.542969 223.886719 366.136719 C 226.871094 365.921875 229.851562 365.675781 232.785156 365.269531 C 235.730469 364.898438 238.523438 364.265625 241.363281 363.363281 C 247.03125 361.597656 252.628906 359.425781 258.136719 357.097656 C 263.628906 354.730469 269.152344 352.3125 274.292969 349.488281 C 274.945312 349.132812 275.546875 348.761719 276.109375 348.390625 C 276.445312 348.199219 276.570312 348.054688 276.78125 347.898438 C 276.851562 347.863281 277.027344 347.703125 277.207031 347.542969 L 277.71875 347.085938 C 279.007812 346.0625 280.207031 345.195312 281.441406 344.296875 L 288.839844 339.105469 C 293.75 335.660156 298.621094 332.167969 303.28125 328.441406 C 305.578125 326.550781 307.890625 324.679688 309.957031 322.613281 C 310.503906 322.121094 310.996094 321.589844 311.472656 321.0625 C 311.949219 320.53125 312.480469 320.019531 312.871094 319.453125 C 313.679688 318.429688 314.597656 317.105469 315.515625 315.851562 C 319.207031 310.980469 323.074219 306.371094 326.835938 301.675781 C 330.59375 296.996094 334.304688 292.265625 337.816406 287.425781 C 341.3125 282.570312 344.683594 277.628906 347.402344 272.382812 L 348.425781 270.425781 L 349.308594 268.414062 C 349.945312 267.089844 350.371094 265.710938 350.828125 264.351562 C 351.695312 261.507812 352.542969 258.523438 353.476562 255.683594 C 355.3125 249.925781 357.167969 244.1875 359.074219 238.484375 C 360.960938 232.785156 362.851562 227.0625 364.671875 221.34375 C 365.554688 218.484375 366.4375 215.621094 367.175781 212.746094 C 367.582031 211.3125 367.882812 209.882812 368.203125 208.453125 L 368.554688 206.351562 L 368.800781 204.144531 C 369.914062 192.246094 370.445312 180.1875 370.445312 168.21875 C 370.425781 162.230469 370.25 156.230469 369.632812 150.316406 C 369.136719 144.398438 367.390625 138.75 365.449219 133.066406 C 361.476562 121.785156 356.621094 110.730469 351.023438 100.121094 C 348.214844 94.824219 345.265625 89.5625 341.859375 84.6875 C 340.21875 82.199219 338.222656 80.082031 336.140625 77.875 C 334.074219 75.683594 331.972656 73.546875 329.855469 71.410156 C 325.617188 67.140625 321.308594 62.9375 317 58.71875 C 312.726562 54.460938 308.3125 50.382812 304.339844 45.707031 C 300.351562 41.519531 295.496094 37.742188 290.800781 34.089844 C 286.03125 30.453125 281.140625 26.957031 276.074219 23.761719 C 271.007812 20.582031 265.800781 17.582031 260.328125 15.375 C 254.941406 13.132812 248.972656 12.335938 243.042969 11.488281 C 237.109375 10.710938 231.125 10.148438 225.140625 9.671875 C 219.152344 9.160156 213.152344 8.734375 207.148438 8.398438 C 204.148438 8.242188 201.128906 8.097656 198.179688 8.011719 C 195.371094 8.0625 192.28125 8.453125 189.332031 8.753906 C 183.367188 9.421875 177.378906 10.183594 171.429688 11.011719 C 159.511719 12.671875 147.578125 14.527344 135.90625 17.246094 Z M 135.519531 15.761719 C 147.332031 12.972656 159.25 11.242188 171.148438 9.265625 C 177.117188 8.328125 183.066406 7.429688 189.050781 6.617188 C 192.070312 6.226562 194.964844 5.769531 198.179688 5.644531 C 201.25 5.644531 204.234375 5.785156 207.273438 5.910156 C 213.308594 6.175781 219.332031 6.527344 225.351562 6.988281 C 231.371094 7.515625 237.390625 8.132812 243.394531 9 C 249.363281 9.917969 255.472656 10.765625 261.226562 13.238281 C 266.894531 15.636719 272.121094 18.761719 277.222656 22.046875 C 282.289062 25.367188 287.234375 28.878906 292.019531 32.585938 C 296.785156 36.347656 301.5 40.019531 305.808594 44.574219 C 309.601562 49.113281 314.035156 53.261719 318.273438 57.515625 L 331.144531 70.230469 C 333.261719 72.367188 335.398438 74.5 337.480469 76.707031 C 339.546875 78.878906 341.683594 81.15625 343.378906 83.699219 C 346.890625 88.695312 349.859375 93.976562 352.699219 99.308594 C 358.277344 110.023438 363.488281 120.953125 367.652344 132.359375 C 368.695312 135.203125 369.667969 138.097656 370.480469 141.046875 C 370.921875 142.511719 371.203125 144.046875 371.554688 145.53125 C 371.785156 147.046875 372.085938 148.566406 372.246094 150.085938 C 372.96875 156.140625 373.234375 162.214844 373.355469 168.269531 C 373.535156 180.382812 373.199219 192.457031 372.246094 204.550781 L 372.03125 206.828125 L 371.679688 209.195312 C 371.363281 210.714844 371.0625 212.234375 370.671875 213.714844 C 369.949219 216.699219 369.101562 219.59375 368.253906 222.507812 C 366.542969 228.316406 364.636719 234.054688 362.710938 239.757812 L 356.8125 256.832031 C 355.808594 259.691406 354.960938 262.480469 353.988281 265.394531 C 353.460938 266.875 352.984375 268.375 352.292969 269.773438 L 351.339844 271.890625 L 350.261719 273.921875 C 344.382812 284.707031 336.96875 294.332031 329.5 303.828125 C 325.777344 308.5625 321.925781 313.238281 318.378906 317.988281 C 317.511719 319.171875 316.734375 320.335938 315.695312 321.695312 C 315.21875 322.367188 314.671875 322.914062 314.140625 323.515625 C 313.609375 324.097656 313.082031 324.679688 312.515625 325.210938 C 310.328125 327.417969 307.980469 329.359375 305.628906 331.320312 C 300.898438 335.148438 295.992188 338.714844 291.082031 342.230469 C 288.628906 343.996094 286.140625 345.707031 283.683594 347.421875 C 282.464844 348.269531 281.214844 349.152344 280.136719 350 L 279.359375 350.652344 C 278.96875 350.96875 278.527344 351.324219 278.210938 351.5 C 277.503906 351.957031 276.816406 352.363281 276.144531 352.71875 C 270.691406 355.628906 265.144531 357.996094 259.496094 360.273438 C 253.863281 362.515625 248.179688 364.617188 242.300781 366.3125 C 239.386719 367.175781 236.28125 367.832031 233.226562 368.164062 C 230.171875 368.535156 227.152344 368.730469 224.113281 368.890625 C 218.058594 369.191406 212.019531 369.277344 205.984375 369.3125 L 169.824219 369.3125 C 157.785156 369.453125 145.566406 368.800781 133.699219 366.257812 C 127.769531 364.988281 121.925781 363.222656 116.347656 360.664062 C 113.589844 359.320312 110.890625 357.785156 108.542969 355.613281 C 106.441406 353.636719 103.96875 351.90625 101.496094 350.226562 C 91.523438 343.605469 80.964844 337.78125 70.441406 331.917969 L 62.515625 327.574219 C 59.917969 326.144531 57.128906 324.714844 54.640625 322.863281 C 52.078125 321.097656 49.820312 318.976562 47.628906 316.824219 C 45.53125 314.582031 43.480469 312.269531 41.679688 309.796875 C 37.972656 304.921875 34.882812 299.628906 31.917969 294.402344 C 31.175781 293.128906 30.417969 291.769531 29.640625 290.675781 C 28.773438 289.476562 27.839844 288.097656 27.078125 286.808594 C 25.492188 284.195312 24.042969 281.53125 22.59375 278.863281 C 19.71875 273.550781 17 268.164062 14.351562 262.726562 L 12.355469 258.667969 C 12.019531 257.976562 11.71875 257.21875 11.402344 256.511719 L 10.589844 254.324219 C 9.601562 251.390625 8.875 248.425781 8.207031 245.441406 C 6.898438 239.511719 5.945312 233.542969 4.921875 227.609375 C 4.410156 224.644531 3.878906 221.695312 3.28125 218.765625 C 2.996094 217.265625 2.609375 215.921875 2.308594 214.351562 C 1.957031 212.796875 1.816406 211.242188 1.726562 209.691406 C 1.445312 203.457031 2.519531 197.4375 3.578125 191.488281 C 4.128906 188.519531 4.726562 185.554688 5.238281 182.625 C 5.488281 181.160156 5.699219 179.691406 5.839844 178.226562 L 5.964844 176.039062 C 6 175.242188 6.050781 174.449219 6.15625 173.691406 C 7.003906 167.582031 8.648438 161.789062 10.148438 155.945312 C 11.703125 150.121094 13.238281 144.292969 14.542969 138.433594 C 14.878906 136.96875 15.179688 135.5 15.460938 134.035156 L 15.867188 131.828125 L 16.414062 129.550781 C 16.785156 128.035156 17.351562 126.621094 17.863281 125.15625 C 18.464844 123.761719 18.992188 122.3125 19.648438 120.953125 C 22.152344 115.410156 25.050781 110.078125 28.015625 104.832031 C 31 99.574219 34.125 94.398438 37.265625 89.261719 L 41.964844 81.5625 L 43.09375 79.640625 C 43.464844 78.984375 43.65625 78.527344 44.207031 77.644531 C 45.160156 76.160156 46.148438 75.03125 47.171875 73.867188 C 51.285156 69.292969 55.628906 65.109375 59.953125 60.90625 C 62.125 58.824219 64.332031 56.742188 66.414062 54.65625 C 68.324219 52.785156 70.054688 50.171875 71.90625 47.824219 C 73.742188 45.441406 75.597656 43.039062 77.519531 40.675781 C 79.464844 38.308594 81.40625 35.976562 83.789062 33.753906 C 86.453125 31.457031 89.210938 30.1875 91.964844 28.792969 C 94.71875 27.433594 97.542969 26.265625 100.367188 25.15625 C 103.210938 24.078125 106.089844 23.070312 109.019531 22.171875 C 111.96875 21.269531 114.914062 20.582031 117.863281 19.894531 L 135.503906 15.816406 Z M 135.519531 15.761719 " fill-opacity="1" fill-rule="nonzero"/></g><path fill="#2b2b2b" d="M 149.644531 39.296875 C 149.644531 39.296875 138.875 43.78125 124.324219 45.070312 C 109.796875 46.359375 95.265625 56.777344 92.8125 60.148438 C 90.355469 63.519531 84.972656 67.6875 78.28125 83.398438 C 71.589844 99.113281 59.988281 103.121094 55.753906 111.3125 C 51.515625 119.488281 48.726562 121.253906 47.914062 139.386719 C 47.101562 157.519531 34.035156 169.542969 32.234375 175.792969 C 30.433594 182.042969 29.304688 193.269531 28.96875 202.734375 C 28.652344 212.195312 29.78125 221.183594 31.582031 226.304688 C 33.382812 231.425781 33.542969 240.410156 39.738281 247.789062 C 45.9375 255.171875 54.921875 272.96875 56.386719 282.75 C 57.851562 292.53125 67.988281 298.460938 68.957031 301.359375 C 69.929688 304.253906 76.796875 316.117188 87.25 317.722656 C 97.703125 319.332031 104.570312 330.367188 119.257812 333.597656 C 128.722656 335.679688 138.363281 338.238281 148.003906 337.285156 C 157.640625 336.316406 180.328125 345.144531 193.394531 343.058594 C 206.460938 340.976562 220.179688 334.726562 229.640625 333.914062 C 239.105469 333.121094 256.582031 328.457031 260.839844 323.65625 C 265.074219 318.835938 282.058594 308.101562 286.15625 304.09375 C 290.234375 300.085938 297.578125 292.386719 303.300781 291.417969 C 309.019531 290.445312 326.816406 268.324219 327.789062 258.046875 C 328.757812 247.789062 338.398438 231.425781 340.695312 226.285156 C 342.972656 221.148438 348.851562 200.613281 348.851562 187.796875 C 348.851562 174.980469 351.464844 166.152344 341.347656 144.804688 C 331.230469 123.476562 331.546875 103.898438 324.203125 93.640625 C 316.859375 83.382812 299.539062 63.800781 289.917969 59.476562 C 280.292969 55.152344 262.164062 47.613281 251.871094 42.316406 C 241.578125 37.019531 221.574219 27.238281 189.035156 30.132812 C 189.035156 30.132812 176.585938 30.769531 149.644531 39.277344 Z M 149.644531 39.296875 " fill-opacity="1" fill-rule="nonzero"/><path fill="#14100d" d="M 150.121094 40.585938 C 145.210938 42.527344 140.058594 43.921875 134.867188 44.929688 C 132.269531 45.421875 129.640625 45.777344 126.992188 45.988281 C 124.308594 46.183594 121.835938 46.324219 119.328125 46.886719 C 114.351562 48.019531 109.566406 50.046875 105.117188 52.589844 C 102.890625 53.863281 100.738281 55.273438 98.691406 56.777344 C 97.667969 57.535156 96.660156 58.3125 95.742188 59.140625 C 95.265625 59.546875 94.859375 59.988281 94.433594 60.394531 L 93.921875 61.03125 C 93.710938 61.3125 93.5 61.59375 93.269531 61.859375 C 91.523438 63.925781 89.84375 65.78125 88.34375 67.863281 C 86.84375 69.910156 85.484375 72.082031 84.195312 74.308594 C 82.925781 76.53125 81.777344 78.84375 80.664062 81.175781 C 79.585938 83.488281 78.582031 85.996094 77.222656 88.324219 C 74.625 93.039062 71.042969 97.136719 67.175781 100.71875 C 63.378906 104.339844 59.035156 107.464844 56.6875 111.773438 C 55.46875 114.121094 54.074219 116.363281 52.925781 118.621094 C 51.761719 120.882812 50.933594 123.265625 50.386719 125.753906 C 49.238281 130.769531 49.078125 135.925781 48.671875 141.1875 C 48.214844 146.519531 46.640625 151.691406 44.363281 156.476562 C 42.140625 161.296875 39.171875 165.710938 36.3125 170.035156 C 34.917969 172.226562 33.398438 174.34375 32.851562 176.726562 C 32.199219 179.199219 31.742188 181.757812 31.386719 184.320312 C 30.679688 189.457031 30.292969 194.648438 30.046875 199.839844 C 29.796875 205.027344 29.851562 210.203125 30.503906 215.320312 C 30.804688 217.882812 31.246094 220.425781 31.863281 222.878906 C 32.183594 224.148438 32.550781 225.226562 32.992188 226.550781 C 33.417969 227.875 33.71875 229.164062 34.019531 230.433594 C 35.148438 235.519531 36.453125 240.464844 39.261719 244.542969 C 39.96875 245.601562 40.675781 246.414062 41.574219 247.527344 C 42.457031 248.566406 43.234375 249.660156 43.992188 250.757812 C 45.53125 252.945312 46.90625 255.222656 48.214844 257.519531 C 50.828125 262.125 53.140625 266.894531 55.097656 271.855469 C 56.085938 274.328125 56.953125 276.871094 57.625 279.515625 C 57.960938 280.769531 58.152344 282.378906 58.398438 283.402344 C 58.613281 284.550781 59.019531 285.660156 59.496094 286.738281 C 60.464844 288.910156 61.914062 290.921875 63.554688 292.792969 C 65.179688 294.71875 67.015625 296.429688 68.886719 298.496094 C 69.117188 298.796875 69.347656 299.007812 69.59375 299.363281 C 69.824219 299.679688 70.070312 300.015625 70.28125 300.511719 L 70.421875 300.84375 L 70.496094 301.039062 L 70.636719 301.429688 L 71.007812 302.238281 C 71.535156 303.351562 72.171875 304.429688 72.84375 305.488281 C 74.21875 307.589844 75.808594 309.566406 77.609375 311.296875 C 79.410156 313.027344 81.441406 314.527344 83.699219 315.5 C 84.265625 315.765625 84.847656 315.921875 85.414062 316.136719 C 85.996094 316.328125 86.597656 316.417969 87.195312 316.558594 L 89.191406 317 C 89.863281 317.160156 90.5 317.425781 91.152344 317.617188 C 96.289062 319.613281 100.402344 323.054688 104.816406 325.703125 C 109.195312 328.421875 113.839844 330.578125 118.710938 331.546875 C 123.761719 332.519531 128.898438 333.738281 133.929688 334.550781 C 136.457031 334.957031 138.980469 335.238281 141.488281 335.34375 C 142.742188 335.398438 143.996094 335.414062 145.230469 335.34375 C 146.519531 335.328125 147.578125 335.132812 149.148438 335.113281 C 152.046875 335.0625 154.710938 335.46875 157.359375 335.890625 C 159.988281 336.351562 162.566406 336.878906 165.128906 337.425781 C 170.246094 338.539062 175.296875 339.707031 180.363281 340.464844 C 182.890625 340.871094 185.414062 341.117188 187.902344 341.222656 C 190.429688 341.257812 192.6875 341.117188 195.25 340.589844 C 200.246094 339.632812 205.207031 338.1875 210.183594 336.667969 C 215.179688 335.167969 220.160156 333.527344 225.492188 332.464844 C 226.832031 332.21875 228.210938 332.023438 229.570312 331.882812 C 230.824219 331.777344 232.078125 331.617188 233.332031 331.425781 C 235.839844 331.035156 238.363281 330.523438 240.851562 329.941406 C 245.832031 328.777344 250.828125 327.363281 255.363281 325.316406 C 255.929688 325.050781 256.496094 324.785156 257.007812 324.484375 C 257.554688 324.203125 258.050781 323.886719 258.507812 323.550781 C 259.039062 323.234375 259.300781 322.878906 259.777344 322.492188 C 260.292969 321.980469 260.785156 321.46875 261.316406 321.042969 C 263.378906 319.261719 265.5 317.722656 267.652344 316.1875 L 280.488281 307.183594 C 282.609375 305.613281 284.601562 304.148438 286.386719 302.292969 C 288.238281 300.457031 290.128906 298.621094 292.105469 296.855469 C 294.101562 295.105469 296.183594 293.414062 298.566406 292.035156 C 299.75 291.347656 301.039062 290.765625 302.46875 290.410156 C 303.316406 290.234375 303.566406 290.074219 304.078125 289.898438 C 304.570312 289.5625 305.082031 289.335938 305.578125 288.945312 C 307.574219 287.496094 309.390625 285.644531 311.140625 283.773438 C 312.90625 281.902344 314.511719 279.886719 316.101562 277.859375 C 319.242188 273.761719 322.085938 269.417969 324.328125 264.847656 C 325.371094 262.550781 326.359375 260.183594 326.621094 257.835938 C 326.90625 255.082031 327.648438 252.488281 328.476562 249.960938 C 330.171875 244.914062 332.414062 240.128906 334.726562 235.414062 L 338.277344 228.421875 C 339.511719 226.109375 340.375 223.867188 341.171875 221.359375 C 342.742188 216.433594 344.050781 211.402344 345.144531 206.335938 C 346.21875 201.269531 347.101562 196.148438 347.4375 191.046875 C 347.617188 188.539062 347.542969 185.890625 347.667969 183.257812 C 347.757812 180.628906 347.878906 178.050781 347.878906 175.472656 C 348.09375 165.179688 344.894531 155.222656 340.480469 145.882812 C 335.925781 136.347656 333.050781 126.074219 330.703125 115.902344 C 329.484375 110.820312 328.335938 105.734375 326.605469 100.949219 C 325.6875 98.582031 324.628906 96.289062 323.214844 94.257812 C 321.695312 92.175781 320.109375 90.109375 318.484375 88.097656 C 315.21875 84.054688 311.792969 80.152344 308.242188 76.375 C 304.675781 72.613281 301.003906 68.921875 297.03125 65.65625 C 295.054688 64.015625 292.988281 62.496094 290.835938 61.261719 C 289.777344 60.675781 288.59375 60.148438 287.390625 59.617188 L 283.808594 58.046875 L 269.4375 51.777344 C 264.652344 49.660156 259.886719 47.523438 255.152344 45.246094 C 250.402344 42.933594 245.882812 40.460938 241.082031 38.539062 C 231.53125 34.582031 221.378906 32.199219 211.085938 31.226562 C 205.929688 30.804688 200.757812 30.679688 195.582031 30.875 C 193.007812 31.015625 190.359375 31.175781 187.851562 31.386719 C 185.308594 31.667969 182.75 32.074219 180.207031 32.550781 C 170.035156 34.441406 159.9375 37.40625 150.136719 40.550781 Z M 149.167969 37.988281 C 159.320312 34.898438 169.382812 32.269531 179.746094 30.273438 C 182.34375 29.796875 184.9375 29.375 187.585938 29.089844 C 190.269531 28.863281 192.828125 28.703125 195.476562 28.5625 C 200.738281 28.367188 206.019531 28.492188 211.28125 28.914062 C 221.785156 29.886719 232.183594 32.339844 241.964844 36.382812 C 246.871094 38.34375 251.535156 40.902344 256.175781 43.144531 C 260.855469 45.40625 265.625 47.542969 270.390625 49.644531 L 284.742188 55.910156 L 288.328125 57.480469 C 289.527344 57.992188 290.710938 58.542969 291.964844 59.210938 C 294.332031 60.570312 296.484375 62.160156 298.53125 63.855469 C 302.628906 67.226562 306.355469 70.953125 309.972656 74.765625 C 313.574219 78.597656 317.035156 82.535156 320.335938 86.632812 C 321.980469 88.679688 323.605469 90.761719 325.15625 92.898438 C 326.746094 95.160156 327.894531 97.628906 328.863281 100.136719 C 330.703125 105.167969 331.867188 110.308594 333.085938 115.375 C 335.449219 125.527344 338.277344 135.5 342.761719 144.839844 C 345.003906 149.609375 346.996094 154.535156 348.390625 159.691406 C 349.820312 164.808594 350.511719 170.210938 350.476562 175.507812 C 350.476562 178.15625 350.351562 180.789062 350.28125 183.382812 C 350.175781 185.960938 350.246094 188.554688 350.070312 191.257812 C 349.714844 196.570312 348.78125 201.78125 347.667969 206.917969 C 346.539062 212.054688 345.195312 217.140625 343.570312 222.171875 C 343.148438 223.425781 342.726562 224.679688 342.230469 225.949219 C 341.71875 227.238281 341.101562 228.421875 340.519531 229.585938 L 336.953125 236.5625 C 334.636719 241.207031 332.429688 245.917969 330.789062 250.773438 C 329.976562 253.191406 329.269531 255.664062 329.023438 258.117188 C 328.6875 260.996094 327.59375 263.503906 326.480469 265.941406 C 324.117188 270.742188 321.183594 275.175781 317.953125 279.359375 C 316.3125 281.441406 314.652344 283.488281 312.832031 285.414062 C 311.015625 287.355469 309.160156 289.246094 306.902344 290.871094 C 306.355469 291.292969 305.683594 291.628906 305.082031 292 C 304.394531 292.300781 303.421875 292.601562 302.980469 292.6875 C 301.871094 292.953125 300.738281 293.449219 299.679688 294.066406 C 297.527344 295.285156 295.496094 296.890625 293.570312 298.566406 C 291.628906 300.261719 289.777344 302.0625 287.941406 303.917969 C 287.058594 304.816406 285.996094 305.804688 284.957031 306.636719 C 283.914062 307.464844 282.871094 308.261719 281.8125 309.054688 C 277.609375 312.199219 273.375 315.253906 269.261719 318.414062 C 267.230469 320 265.183594 321.625 263.363281 323.339844 C 262.886719 323.761719 262.5 324.203125 262.109375 324.628906 C 261.617188 325.105469 261.03125 325.773438 260.449219 326.164062 C 259.867188 326.621094 259.285156 327.027344 258.683594 327.382812 C 258.085938 327.769531 257.484375 328.085938 256.882812 328.40625 C 252.011719 330.894531 246.945312 332.519531 241.789062 333.824219 C 239.210938 334.445312 236.597656 334.992188 233.949219 335.414062 C 232.625 335.609375 231.28125 335.785156 229.921875 335.925781 C 228.707031 336.050781 227.488281 336.226562 226.25 336.457031 C 216.363281 338.558594 206.546875 342.707031 196.023438 344.71875 C 193.464844 345.285156 190.5 345.515625 187.796875 345.460938 C 185.078125 345.355469 182.378906 345.109375 179.746094 344.703125 C 174.46875 343.925781 169.328125 342.757812 164.226562 341.683594 C 159.179688 340.605469 154.003906 339.371094 149.273438 339.351562 C 148.230469 339.351562 146.714844 339.546875 145.371094 339.546875 C 144.011719 339.597656 142.636719 339.582031 141.292969 339.511719 C 138.589844 339.386719 135.90625 339.050781 133.277344 338.609375 C 128 337.710938 122.949219 336.507812 117.847656 335.113281 C 112.550781 333.613281 107.765625 330.859375 103.511719 327.753906 C 99.203125 324.734375 95.140625 321.359375 90.425781 319.667969 C 89.828125 319.488281 89.261719 319.261719 88.660156 319.136719 L 86.824219 318.765625 C 86.15625 318.605469 85.449219 318.5 84.796875 318.308594 C 84.140625 318.078125 83.472656 317.902344 82.835938 317.617188 C 80.292969 316.542969 77.980469 314.988281 75.933594 313.203125 C 73.882812 311.402344 72.101562 309.355469 70.53125 307.148438 C 69.753906 306.035156 69.011719 304.90625 68.359375 303.671875 L 67.882812 302.71875 L 67.652344 302.1875 L 67.546875 301.921875 C 67.546875 301.921875 67.492188 301.851562 67.476562 301.816406 C 67.441406 301.710938 67.296875 301.515625 67.121094 301.320312 C 67 301.128906 66.75 300.898438 66.558594 300.6875 C 64.863281 298.9375 62.777344 297.171875 60.960938 295.160156 C 59.140625 293.148438 57.445312 290.90625 56.246094 288.308594 C 55.644531 287.019531 55.132812 285.660156 54.832031 284.25 C 54.480469 282.730469 54.375 281.722656 54.023438 280.472656 C 53.421875 278.050781 52.644531 275.617188 51.726562 273.230469 C 49.890625 268.449219 47.699219 263.769531 45.230469 259.265625 C 43.992188 257.007812 42.6875 254.800781 41.292969 252.664062 C 40.585938 251.605469 39.878906 250.542969 39.101562 249.574219 C 38.398438 248.621094 37.40625 247.4375 36.71875 246.289062 C 33.683594 241.609375 32.445312 236.15625 31.457031 231.070312 C 31.191406 229.800781 30.929688 228.546875 30.59375 227.363281 C 30.238281 226.199219 29.796875 224.785156 29.515625 223.515625 C 28.933594 220.902344 28.5625 218.269531 28.316406 215.621094 C 27.839844 210.359375 27.804688 205.046875 28.140625 199.820312 C 28.4375 194.578125 28.933594 189.351562 29.710938 184.160156 C 30.117188 181.566406 30.523438 178.953125 31.210938 176.375 C 31.863281 173.621094 33.488281 171.394531 34.867188 169.1875 C 37.742188 164.808594 40.621094 160.5 42.757812 155.804688 C 44.945312 151.160156 46.429688 146.183594 46.855469 141.082031 C 47.101562 138.574219 47.136719 135.871094 47.382812 133.257812 C 47.628906 130.628906 47.949219 127.996094 48.496094 125.386719 C 49.042969 122.773438 49.90625 120.175781 51.109375 117.773438 C 52.292969 115.375 53.652344 113.148438 54.796875 110.855469 C 56.085938 108.363281 57.960938 106.316406 59.847656 104.464844 C 61.753906 102.609375 63.714844 100.898438 65.585938 99.097656 C 69.3125 95.546875 72.648438 91.644531 75.050781 87.144531 C 76.304688 84.9375 77.222656 82.585938 78.316406 80.132812 C 79.410156 77.734375 80.539062 75.332031 81.828125 73 C 83.101562 70.671875 84.511719 68.394531 86.085938 66.238281 C 87.636719 64.066406 89.457031 62.019531 91.0625 60.09375 C 91.273438 59.847656 91.433594 59.617188 91.628906 59.371094 C 91.839844 59.105469 92.121094 58.789062 92.371094 58.503906 C 92.882812 58.011719 93.375 57.5 93.90625 57.074219 C 94.949219 56.175781 96.023438 55.378906 97.117188 54.605469 C 99.324219 53.066406 101.621094 51.742188 103.988281 50.507812 C 108.71875 48.070312 113.699219 46.148438 118.886719 44.910156 C 121.484375 44.3125 124.21875 43.941406 126.726562 43.605469 C 129.269531 43.199219 131.8125 42.757812 134.335938 42.226562 C 139.386719 41.148438 144.347656 39.828125 149.183594 37.972656 Z M 149.167969 37.988281 " fill-opacity="1" fill-rule="nonzero"/></svg>