<svg xmlns="http://www.w3.org/2000/svg" xmlns:xlink="http://www.w3.org/1999/xlink" width="400" zoomAndPan="magnify" viewBox="0 0 300 299.999988" height="400" preserveAspectRatio="xMidYMid meet" version="1.0"><defs><clipPath id="fb5eba7dfb"><path d="M 2.753906 5.214844 L 297.191406 5.214844 L 297.191406 294.644531 L 2.753906 294.644531 Z M 2.753906 5.214844 " clip-rule="nonzero"/></clipPath></defs><path fill="#d60000" d="M 113.886719 15.3125 C 113.886719 15.3125 104.0625 19.398438 90.808594 20.570312 C 77.554688 21.738281 64.316406 31.25 62.089844 34.316406 C 59.863281 37.382812 54.953125 41.179688 48.835938 55.511719 C 42.738281 69.84375 32.164062 73.496094 28.296875 80.945312 C 24.425781 88.394531 21.886719 90 21.15625 106.523438 C 20.425781 123.046875 8.503906 134.003906 6.859375 139.714844 C 5.21875 145.429688 4.175781 155.65625 3.886719 164.273438 C 3.59375 172.890625 4.632812 181.089844 6.257812 185.761719 C 7.902344 190.4375 8.046875 198.632812 13.707031 205.351562 C 19.367188 212.070312 27.546875 228.300781 28.898438 237.230469 C 30.230469 246.140625 39.46875 251.5625 40.363281 254.191406 C 41.257812 256.820312 47.503906 267.644531 57.03125 269.105469 C 66.5625 270.566406 72.808594 280.628906 86.207031 283.585938 C 94.84375 285.484375 103.625 287.820312 112.40625 286.945312 C 121.1875 286.066406 141.875 294.101562 153.777344 292.203125 C 165.683594 290.304688 178.1875 284.609375 186.824219 283.878906 C 195.460938 283.148438 211.378906 278.910156 215.25 274.53125 C 219.121094 270.148438 234.605469 260.34375 238.328125 256.691406 C 242.054688 253.039062 248.753906 246.011719 253.957031 245.136719 C 259.160156 244.257812 275.390625 224.085938 276.285156 214.71875 C 277.179688 205.371094 285.960938 190.453125 288.042969 185.78125 C 290.125 181.105469 295.492188 162.390625 295.492188 150.6875 C 295.492188 138.988281 297.867188 130.953125 288.644531 111.507812 C 279.425781 92.066406 279.71875 74.226562 273.019531 64.878906 C 266.316406 55.53125 250.542969 37.695312 241.761719 33.730469 C 232.980469 29.769531 216.457031 22.90625 207.089844 18.085938 C 197.707031 13.265625 179.484375 4.339844 149.816406 6.96875 C 149.816406 6.96875 138.460938 7.550781 113.90625 15.292969 Z M 113.886719 15.3125 " fill-opacity="1" fill-rule="nonzero"/><g clip-path="url(#fb5eba7dfb)"><path fill="#d60000" d="M 114.414062 16.769531 C 109.941406 18.558594 105.214844 19.839844 100.46875 20.734375 C 98.09375 21.171875 95.683594 21.480469 93.273438 21.683594 C 90.808594 21.847656 88.582031 21.957031 86.300781 22.449219 C 81.773438 23.472656 77.445312 25.332031 73.410156 27.652344 C 71.402344 28.820312 69.449219 30.097656 67.585938 31.488281 C 66.65625 32.179688 65.742188 32.875 64.921875 33.640625 C 64.480469 34.007812 64.117188 34.390625 63.75 34.773438 L 63.296875 35.320312 C 63.09375 35.578125 62.894531 35.851562 62.691406 36.085938 C 61.085938 37.988281 59.570312 39.648438 58.203125 41.546875 C 56.832031 43.410156 55.589844 45.363281 54.421875 47.390625 C 53.273438 49.414062 52.210938 51.515625 51.207031 53.632812 C 50.242188 55.714844 49.308594 58.03125 48.050781 60.152344 C 45.675781 64.476562 42.371094 68.238281 38.832031 71.507812 C 35.34375 74.8125 31.417969 77.660156 29.300781 81.511719 C 28.1875 83.648438 26.90625 85.691406 25.847656 87.757812 C 24.789062 89.800781 24.042969 91.957031 23.53125 94.21875 C 22.472656 98.765625 22.324219 103.4375 21.941406 108.257812 C 21.503906 113.132812 20.042969 117.863281 17.960938 122.226562 C 15.953125 126.625 13.234375 130.660156 10.640625 134.621094 C 9.378906 136.632812 8.011719 138.546875 7.519531 140.683594 C 6.933594 142.929688 6.53125 145.265625 6.203125 147.585938 C 5.566406 152.257812 5.21875 156.988281 5.015625 161.71875 C 4.796875 166.445312 4.851562 171.136719 5.472656 175.792969 C 5.765625 178.113281 6.167969 180.429688 6.734375 182.65625 C 7.027344 183.808594 7.355469 184.757812 7.773438 185.980469 C 8.175781 187.203125 8.449219 188.371094 8.722656 189.542969 C 9.765625 194.179688 10.96875 198.632812 13.507812 202.285156 C 13.816406 202.742188 14.128906 203.199219 14.492188 203.617188 L 15.605469 204.988281 C 16.410156 205.953125 17.140625 206.941406 17.835938 207.945312 C 19.257812 209.953125 20.519531 212.015625 21.703125 214.132812 C 24.097656 218.351562 26.214844 222.695312 28.023438 227.242188 C 28.933594 229.507812 29.738281 231.824219 30.339844 234.273438 C 30.503906 234.875 30.632812 235.496094 30.742188 236.132812 L 30.90625 237.066406 L 31.070312 237.8125 C 31.273438 238.816406 31.636719 239.804688 32.054688 240.773438 C 32.914062 242.707031 34.191406 244.515625 35.671875 246.230469 C 37.132812 247.984375 38.773438 249.535156 40.511719 251.453125 C 40.730469 251.726562 40.929688 251.925781 41.167969 252.273438 C 41.386719 252.566406 41.605469 252.894531 41.824219 253.386719 L 41.96875 253.714844 L 42.023438 253.878906 L 42.152344 254.207031 L 42.480469 254.9375 C 42.9375 255.925781 43.523438 256.910156 44.125 257.878906 C 45.347656 259.777344 46.773438 261.585938 48.398438 263.15625 C 50.023438 264.726562 51.828125 266.09375 53.855469 266.972656 C 54.859375 267.410156 55.917969 267.738281 56.996094 267.957031 L 58.820312 268.359375 C 59.441406 268.503906 60.027344 268.742188 60.628906 268.925781 C 65.375 270.75 69.121094 273.890625 73.152344 276.265625 C 77.171875 278.710938 81.371094 280.609375 85.769531 281.429688 C 90.371094 282.289062 95.0625 283.382812 99.609375 284.097656 C 101.890625 284.441406 104.171875 284.699219 106.4375 284.789062 C 107.570312 284.828125 108.703125 284.84375 109.816406 284.789062 C 110.984375 284.773438 111.894531 284.609375 113.394531 284.570312 C 118.742188 284.589844 123.34375 285.792969 128.054688 286.742188 C 132.710938 287.765625 137.328125 288.824219 141.910156 289.519531 C 144.210938 289.882812 146.476562 290.101562 148.722656 290.210938 C 151.003906 290.25 152.992188 290.121094 155.3125 289.648438 C 159.839844 288.789062 164.351562 287.472656 168.878906 286.066406 C 173.421875 284.699219 177.96875 283.164062 182.882812 282.214844 C 184.105469 281.996094 185.382812 281.8125 186.660156 281.6875 C 187.792969 281.59375 188.925781 281.449219 190.054688 281.285156 C 192.339844 280.9375 194.621094 280.480469 196.882812 279.953125 C 201.414062 278.910156 205.941406 277.652344 210.046875 275.824219 C 211.050781 275.351562 212.054688 274.859375 212.859375 274.253906 C 213.335938 273.964844 213.554688 273.691406 213.972656 273.324219 C 214.449219 272.851562 214.921875 272.375 215.398438 271.992188 C 217.296875 270.347656 219.25 268.960938 221.222656 267.574219 L 232.941406 259.414062 C 233.890625 258.71875 234.839844 258.007812 235.734375 257.277344 C 236.667969 256.546875 237.414062 255.832031 238.292969 254.976562 C 239.988281 253.3125 241.707031 251.617188 243.515625 250.011719 C 245.339844 248.402344 247.238281 246.851562 249.429688 245.589844 C 250.507812 244.953125 251.710938 244.40625 253.042969 244.074219 C 253.847656 243.910156 253.992188 243.765625 254.46875 243.621094 C 254.90625 243.328125 255.363281 243.125 255.800781 242.78125 C 259.378906 240.078125 262.464844 236.371094 265.332031 232.71875 C 268.179688 228.996094 270.773438 225.050781 272.796875 220.90625 C 273.75 218.824219 274.625 216.691406 274.863281 214.589844 C 275.117188 212.035156 275.792969 209.679688 276.558594 207.359375 C 278.113281 202.722656 280.15625 198.359375 282.273438 194.070312 L 285.507812 187.695312 C 286.621094 185.578125 287.40625 183.589844 288.117188 181.308594 C 289.539062 176.835938 290.726562 172.25 291.730469 167.652344 C 292.699219 163.050781 293.519531 158.394531 293.8125 153.757812 C 293.921875 152.589844 293.90625 151.472656 293.941406 150.269531 C 293.941406 149.066406 293.976562 147.859375 294.015625 146.65625 C 294.105469 144.261719 294.214844 141.90625 294.214844 139.570312 C 294.414062 130.242188 291.53125 121.222656 287.515625 112.714844 C 283.351562 104.003906 280.722656 94.621094 278.585938 85.347656 C 277.492188 80.707031 276.433594 76.089844 274.863281 71.746094 C 274.039062 69.589844 273.074219 67.546875 271.792969 65.71875 C 270.425781 63.820312 268.984375 61.957031 267.503906 60.113281 C 261.535156 52.8125 255.125 45.726562 247.988281 39.683594 C 246.199219 38.1875 244.316406 36.816406 242.382812 35.703125 C 241.449219 35.191406 240.355469 34.699219 239.261719 34.226562 L 235.992188 32.78125 L 222.902344 27.070312 C 218.539062 25.132812 214.191406 23.179688 209.867188 21.097656 C 205.519531 18.980469 201.429688 16.734375 197.046875 14.980469 C 188.375 11.386719 179.136719 9.210938 169.789062 8.335938 C 165.097656 7.953125 160.40625 7.84375 155.695312 8.007812 C 153.359375 8.136719 150.929688 8.28125 148.648438 8.484375 C 146.347656 8.738281 144.011719 9.101562 141.691406 9.542969 C 132.4375 11.238281 123.234375 13.996094 114.34375 16.863281 Z M 113.355469 13.851562 C 122.648438 11.039062 131.816406 8.664062 141.289062 6.859375 C 143.644531 6.417969 146.019531 6.035156 148.449219 5.78125 C 150.914062 5.578125 153.25 5.433594 155.660156 5.289062 C 160.480469 5.105469 165.300781 5.214844 170.101562 5.617188 C 179.703125 6.511719 189.214844 8.738281 198.125 12.445312 C 202.597656 14.234375 206.871094 16.570312 211.089844 18.617188 C 215.359375 20.660156 219.6875 22.613281 224.03125 24.53125 L 237.125 30.246094 L 240.390625 31.6875 C 241.46875 32.164062 242.566406 32.636719 243.714844 33.277344 C 245.90625 34.535156 247.878906 35.976562 249.738281 37.53125 C 257.152344 43.773438 263.558594 50.914062 269.660156 58.324219 C 271.15625 60.1875 272.632812 62.085938 274.058594 64.058594 C 275.519531 66.140625 276.578125 68.421875 277.472656 70.703125 C 279.152344 75.324219 280.210938 79.996094 281.324219 84.617188 C 283.480469 93.871094 286.054688 102.929688 290.144531 111.417969 C 292.207031 115.761719 294.015625 120.273438 295.292969 124.984375 C 296.605469 129.675781 297.226562 134.621094 297.207031 139.480469 C 297.207031 141.90625 297.097656 144.300781 297.027344 146.671875 C 296.988281 147.859375 296.972656 149.027344 296.953125 150.195312 C 296.917969 151.382812 296.933594 152.644531 296.824219 153.847656 C 296.496094 158.722656 295.640625 163.46875 294.632812 168.160156 C 293.59375 172.855469 292.371094 177.492188 290.890625 182.09375 C 290.507812 183.242188 290.125 184.394531 289.648438 185.542969 C 289.175781 186.730469 288.609375 187.808594 288.082031 188.882812 L 284.832031 195.238281 C 282.730469 199.472656 280.703125 203.746094 279.226562 208.144531 C 278.496094 210.335938 277.855469 212.582031 277.636719 214.773438 C 277.328125 217.4375 276.324219 219.738281 275.300781 221.984375 C 273.128906 226.382812 270.445312 230.417969 267.503906 234.253906 C 266.007812 236.152344 264.492188 238.03125 262.8125 239.804688 C 261.132812 241.574219 259.453125 243.308594 257.371094 244.804688 C 256.878906 245.191406 256.238281 245.519531 255.691406 245.867188 C 255.050781 246.140625 254.085938 246.449219 253.71875 246.503906 C 252.734375 246.742188 251.730469 247.179688 250.761719 247.726562 C 248.808594 248.824219 246.984375 250.265625 245.230469 251.800781 C 243.460938 253.332031 241.78125 254.976562 240.101562 256.65625 C 239.296875 257.476562 238.308594 258.390625 237.359375 259.136719 C 236.410156 259.90625 235.445312 260.636719 234.496094 261.347656 C 230.660156 264.230469 226.828125 267.027344 223.082031 269.929688 C 221.238281 271.390625 219.378906 272.867188 217.753906 274.4375 C 217.332031 274.820312 216.984375 275.222656 216.640625 275.605469 C 216.183594 276.042969 215.617188 276.703125 215.085938 277.050781 C 214.558594 277.488281 214.011719 277.871094 213.445312 278.179688 C 212.894531 278.546875 212.332031 278.839844 211.78125 279.128906 C 207.308594 281.449219 202.671875 282.945312 197.960938 284.152344 C 195.589844 284.734375 193.214844 285.226562 190.785156 285.628906 C 189.5625 285.8125 188.339844 285.976562 187.097656 286.105469 C 186.003906 286.214844 184.90625 286.378906 183.8125 286.597656 C 174.882812 288.515625 165.902344 292.238281 156.261719 294.101562 C 153.925781 294.613281 151.148438 294.851562 148.667969 294.796875 C 146.164062 294.703125 143.683594 294.464844 141.273438 294.101562 C 136.433594 293.390625 131.742188 292.332031 127.105469 291.34375 C 122.503906 290.375 117.773438 289.261719 113.574219 289.261719 C 112.679688 289.261719 111.238281 289.445312 110.035156 289.445312 C 108.773438 289.5 107.515625 289.445312 106.273438 289.390625 C 103.789062 289.261719 101.324219 288.953125 98.914062 288.53125 C 94.078125 287.675781 89.496094 286.578125 84.820312 285.28125 C 79.945312 283.859375 75.582031 281.285156 71.710938 278.398438 C 67.804688 275.605469 64.097656 272.539062 59.863281 271.003906 C 58.785156 270.621094 57.761719 270.386719 56.613281 270.183594 C 55.335938 269.964844 54.113281 269.617188 52.925781 269.144531 C 50.570312 268.15625 48.433594 266.75 46.554688 265.109375 C 44.671875 263.445312 43.011719 261.585938 41.570312 259.558594 C 40.855469 258.535156 40.164062 257.496094 39.558594 256.363281 L 39.121094 255.488281 L 38.902344 254.992188 L 38.792969 254.738281 C 38.792969 254.738281 38.757812 254.683594 38.738281 254.664062 C 38.703125 254.628906 38.703125 254.59375 38.648438 254.519531 L 38.445312 254.265625 C 38.335938 254.097656 38.117188 253.898438 37.953125 253.714844 C 34.757812 250.613281 30.6875 247.214844 28.421875 242.394531 C 27.875 241.191406 27.402344 239.933594 27.128906 238.597656 L 26.761719 236.773438 C 26.671875 236.242188 26.5625 235.695312 26.398438 235.148438 C 25.867188 232.957031 25.15625 230.765625 24.332031 228.59375 C 22.691406 224.25 20.683594 219.996094 18.4375 215.90625 C 17.324219 213.859375 16.136719 211.832031 14.875 209.898438 C 14.253906 208.929688 13.597656 207.980469 12.90625 207.085938 L 11.808594 205.644531 C 11.40625 205.152344 11.058594 204.605469 10.714844 204.074219 C 7.921875 199.746094 6.804688 194.726562 5.929688 190.089844 C 5.691406 188.9375 5.457031 187.789062 5.164062 186.730469 C 4.851562 185.6875 4.433594 184.375 4.195312 183.207031 C 3.667969 180.796875 3.335938 178.386719 3.117188 175.976562 C 2.699219 171.15625 2.679688 166.316406 2.992188 161.535156 C 3.28125 156.75 3.722656 151.984375 4.453125 147.238281 C 4.835938 144.867188 5.21875 142.492188 5.839844 140.136719 C 6.460938 137.597656 7.9375 135.554688 9.199219 133.5625 C 11.828125 129.582031 14.457031 125.660156 16.410156 121.40625 C 18.398438 117.167969 19.714844 112.640625 20.078125 108.023438 C 20.390625 103.347656 20.519531 98.472656 21.539062 93.691406 C 22.035156 91.296875 22.820312 88.90625 23.933594 86.695312 C 25.027344 84.488281 26.234375 82.460938 27.292969 80.378906 C 28.476562 78.078125 30.195312 76.199219 31.929688 74.5 C 33.664062 72.804688 35.453125 71.234375 37.152344 69.609375 C 40.546875 66.375 43.539062 62.835938 45.714844 58.761719 C 46.84375 56.773438 47.667969 54.636719 48.671875 52.390625 C 49.65625 50.183594 50.699219 48.007812 51.867188 45.875 C 53.035156 43.738281 54.3125 41.65625 55.753906 39.667969 C 57.179688 37.675781 58.839844 35.796875 60.300781 34.0625 C 60.484375 33.84375 60.628906 33.621094 60.792969 33.421875 C 60.996094 33.167969 61.25 32.875 61.488281 32.601562 C 61.960938 32.125 62.4375 31.667969 62.910156 31.285156 C 63.878906 30.464844 64.863281 29.734375 65.871094 29.023438 C 67.894531 27.632812 70.015625 26.429688 72.167969 25.296875 C 76.496094 23.089844 81.058594 21.335938 85.824219 20.203125 C 88.199219 19.65625 90.71875 19.289062 92.980469 18.980469 C 95.300781 18.597656 97.601562 18.175781 99.882812 17.703125 C 104.464844 16.714844 108.976562 15.511719 113.375 13.832031 Z M 113.355469 13.851562 " fill-opacity="1" fill-rule="nonzero"/></g></svg>