<svg xmlns="http://www.w3.org/2000/svg" xmlns:xlink="http://www.w3.org/1999/xlink" width="400" zoomAndPan="magnify" viewBox="0 0 300 299.999988" height="400" preserveAspectRatio="xMidYMid meet" version="1.0"><defs><clipPath id="6bbcc72a9e"><path d="M 2.328125 4.800781 L 297.609375 4.800781 L 297.609375 294.980469 L 2.328125 294.980469 Z M 2.328125 4.800781 " clip-rule="nonzero"/></clipPath></defs><path fill="#cd8700" d="M 113.78125 14.925781 C 113.78125 14.925781 103.929688 19.027344 90.636719 20.199219 C 77.34375 21.371094 64.070312 30.910156 61.835938 33.984375 C 59.601562 37.0625 54.675781 40.867188 48.542969 55.242188 C 42.429688 69.617188 31.828125 73.277344 27.945312 80.746094 C 24.0625 88.21875 21.519531 89.828125 20.785156 106.398438 C 20.054688 122.96875 8.097656 133.957031 6.449219 139.6875 C 4.800781 145.417969 3.757812 155.671875 3.464844 164.3125 C 3.171875 172.957031 4.214844 181.175781 5.84375 185.863281 C 7.492188 190.550781 7.640625 198.773438 13.316406 205.511719 C 18.992188 212.25 27.195312 228.527344 28.550781 237.480469 C 29.886719 246.414062 39.152344 251.851562 40.046875 254.488281 C 40.945312 257.125 47.207031 267.984375 56.765625 269.449219 C 66.324219 270.914062 72.585938 281 86.023438 283.96875 C 94.683594 285.871094 103.492188 288.214844 112.296875 287.335938 C 121.105469 286.457031 141.851562 294.515625 153.789062 292.609375 C 165.726562 290.707031 178.269531 284.992188 186.929688 284.261719 C 195.589844 283.527344 211.554688 279.28125 215.4375 274.886719 C 219.320312 270.492188 234.84375 260.660156 238.582031 256.996094 C 242.316406 253.335938 249.035156 246.285156 254.253906 245.40625 C 259.472656 244.527344 275.75 224.296875 276.644531 214.902344 C 277.542969 205.527344 286.351562 190.570312 288.4375 185.882812 C 290.523438 181.195312 295.90625 162.425781 295.90625 150.691406 C 295.90625 138.953125 298.289062 130.898438 289.042969 111.398438 C 279.796875 91.898438 280.089844 74.007812 273.367188 64.636719 C 266.648438 55.261719 250.828125 37.371094 242.023438 33.398438 C 233.214844 29.425781 216.644531 22.542969 207.253906 17.707031 C 197.839844 12.875 179.566406 3.921875 149.816406 6.558594 C 149.816406 6.558594 138.425781 7.140625 113.800781 14.90625 Z M 113.78125 14.925781 " fill-opacity="1" fill-rule="nonzero"/><g clip-path="url(#6bbcc72a9e)"><path fill="#cd8700" d="M 114.3125 16.390625 C 109.828125 18.183594 105.085938 19.464844 100.324219 20.363281 C 97.945312 20.800781 95.527344 21.113281 93.109375 21.3125 C 90.636719 21.480469 88.402344 21.589844 86.117188 22.082031 C 81.574219 23.109375 77.234375 24.976562 73.1875 27.300781 C 71.175781 28.472656 69.214844 29.753906 67.347656 31.148438 C 66.414062 31.84375 65.5 32.539062 64.675781 33.308594 C 64.234375 33.671875 63.867188 34.058594 63.503906 34.441406 L 63.046875 34.992188 C 62.84375 35.246094 62.640625 35.523438 62.441406 35.761719 C 60.828125 37.664062 59.308594 39.332031 57.9375 41.234375 C 56.5625 43.101562 55.320312 45.0625 54.148438 47.09375 C 52.992188 49.125 51.929688 51.230469 50.925781 53.355469 C 49.953125 55.445312 49.019531 57.769531 47.757812 59.894531 C 45.375 64.230469 42.0625 68.003906 38.511719 71.28125 C 35.011719 74.59375 31.078125 77.453125 28.953125 81.316406 C 27.835938 83.457031 26.554688 85.507812 25.492188 87.578125 C 24.429688 89.628906 23.679688 91.789062 23.167969 94.058594 C 22.105469 98.617188 21.957031 103.304688 21.574219 108.140625 C 21.132812 113.027344 19.667969 117.769531 17.582031 122.144531 C 15.566406 126.558594 12.839844 130.605469 10.238281 134.578125 C 8.976562 136.59375 7.601562 138.515625 7.109375 140.65625 C 6.523438 142.910156 6.121094 145.253906 5.789062 147.578125 C 5.148438 152.265625 4.800781 157.007812 4.601562 161.75 C 4.378906 166.492188 4.433594 171.199219 5.058594 175.867188 C 5.351562 178.191406 5.753906 180.515625 6.320312 182.75 C 6.613281 183.90625 6.945312 184.855469 7.363281 186.082031 C 7.769531 187.308594 8.042969 188.480469 8.316406 189.652344 C 9.359375 194.304688 10.570312 198.773438 13.113281 202.433594 C 13.425781 202.890625 13.738281 203.351562 14.101562 203.769531 L 15.21875 205.144531 C 16.027344 206.113281 16.757812 207.101562 17.453125 208.109375 C 18.882812 210.125 20.144531 212.191406 21.335938 214.316406 C 23.734375 218.546875 25.859375 222.90625 27.671875 227.464844 C 28.585938 229.734375 29.390625 232.058594 29.996094 234.511719 C 30.160156 235.117188 30.289062 235.738281 30.398438 236.378906 L 30.5625 237.3125 L 30.726562 238.066406 C 30.929688 239.070312 31.296875 240.0625 31.71875 241.03125 C 32.578125 242.972656 33.859375 244.785156 35.34375 246.503906 C 36.808594 248.261719 38.457031 249.820312 40.195312 251.742188 C 40.414062 252.015625 40.617188 252.21875 40.855469 252.566406 C 41.074219 252.859375 41.292969 253.1875 41.511719 253.683594 L 41.660156 254.011719 L 41.714844 254.175781 L 41.84375 254.507812 L 42.171875 255.238281 C 42.628906 256.226562 43.214844 257.21875 43.820312 258.1875 C 45.046875 260.089844 46.476562 261.902344 48.105469 263.480469 C 49.734375 265.054688 51.546875 266.425781 53.578125 267.304688 C 54.585938 267.746094 55.648438 268.074219 56.726562 268.292969 L 58.558594 268.695312 C 59.183594 268.84375 59.769531 269.082031 60.371094 269.265625 C 65.132812 271.09375 68.886719 274.246094 72.933594 276.625 C 76.960938 279.078125 81.171875 280.984375 85.585938 281.808594 C 90.199219 282.667969 94.902344 283.765625 99.464844 284.480469 C 101.75 284.828125 104.039062 285.085938 106.3125 285.175781 C 107.445312 285.210938 108.582031 285.230469 109.699219 285.175781 C 110.871094 285.15625 111.785156 284.992188 113.285156 284.957031 C 118.652344 284.972656 123.265625 286.183594 127.988281 287.136719 C 132.660156 288.160156 137.292969 289.222656 141.886719 289.917969 C 144.195312 290.285156 146.464844 290.503906 148.714844 290.613281 C 151.003906 290.648438 153 290.523438 155.324219 290.046875 C 159.867188 289.1875 164.390625 287.867188 168.929688 286.457031 C 173.488281 285.085938 178.046875 283.546875 182.972656 282.59375 C 184.199219 282.375 185.480469 282.191406 186.765625 282.0625 C 187.898438 281.972656 189.035156 281.824219 190.167969 281.660156 C 192.457031 281.3125 194.746094 280.855469 197.015625 280.324219 C 201.558594 279.28125 206.097656 278.015625 210.21875 276.1875 C 211.226562 275.710938 212.234375 275.214844 213.039062 274.609375 C 213.515625 274.316406 213.734375 274.042969 214.15625 273.675781 C 214.632812 273.203125 215.105469 272.726562 215.582031 272.339844 C 217.488281 270.691406 219.445312 269.300781 221.425781 267.910156 L 233.179688 259.726562 C 234.132812 259.03125 235.082031 258.316406 235.980469 257.582031 C 236.914062 256.851562 237.664062 256.136719 238.542969 255.277344 C 240.246094 253.609375 241.96875 251.90625 243.78125 250.296875 C 245.609375 248.683594 247.515625 247.128906 249.710938 245.863281 C 250.792969 245.222656 252 244.675781 253.335938 244.34375 C 254.144531 244.179688 254.289062 244.035156 254.765625 243.886719 C 255.207031 243.59375 255.664062 243.394531 256.101562 243.046875 C 259.691406 240.335938 262.785156 236.617188 265.660156 232.957031 C 268.515625 229.222656 271.117188 225.265625 273.148438 221.109375 C 274.101562 219.023438 274.980469 216.878906 275.21875 214.773438 C 275.472656 212.210938 276.152344 209.847656 276.921875 207.523438 C 278.476562 202.875 280.527344 198.496094 282.652344 194.195312 L 285.894531 187.804688 C 287.007812 185.679688 287.796875 183.683594 288.511719 181.394531 C 289.9375 176.910156 291.128906 172.316406 292.136719 167.699219 C 293.105469 163.085938 293.929688 158.417969 294.222656 153.765625 C 294.332031 152.59375 294.316406 151.476562 294.351562 150.269531 C 294.351562 149.0625 294.386719 147.851562 294.425781 146.644531 C 294.515625 144.246094 294.625 141.882812 294.625 139.539062 C 294.828125 130.183594 291.933594 121.140625 287.90625 112.605469 C 283.730469 103.871094 281.09375 94.460938 278.953125 85.160156 C 277.855469 80.507812 276.792969 75.878906 275.21875 71.519531 C 274.394531 69.359375 273.421875 67.308594 272.140625 65.476562 C 270.769531 63.574219 269.324219 61.707031 267.839844 59.855469 C 261.851562 52.53125 255.425781 45.429688 248.265625 39.367188 C 246.472656 37.867188 244.585938 36.492188 242.644531 35.375 C 241.710938 34.863281 240.613281 34.367188 239.515625 33.894531 L 236.238281 32.445312 L 223.109375 26.714844 C 218.734375 24.773438 214.375 22.816406 210.035156 20.726562 C 205.675781 18.605469 201.578125 16.351562 197.183594 14.59375 C 188.484375 10.988281 179.21875 8.808594 169.847656 7.929688 C 165.140625 7.546875 160.433594 7.4375 155.710938 7.601562 C 153.367188 7.730469 150.933594 7.875 148.644531 8.078125 C 146.335938 8.332031 143.992188 8.699219 141.667969 9.136719 C 132.382812 10.839844 123.15625 13.605469 114.238281 16.480469 Z M 113.25 13.460938 C 122.570312 10.640625 131.761719 8.257812 141.265625 6.445312 C 143.625 6.007812 146.007812 5.621094 148.441406 5.367188 C 150.914062 5.164062 153.257812 5.019531 155.675781 4.871094 C 160.507812 4.6875 165.339844 4.800781 170.15625 5.203125 C 179.789062 6.097656 189.328125 8.332031 198.261719 12.050781 C 202.75 13.84375 207.03125 16.1875 211.261719 18.238281 C 215.546875 20.289062 219.886719 22.25 224.242188 24.171875 L 237.371094 29.902344 L 240.648438 31.347656 C 241.730469 31.824219 242.828125 32.300781 243.980469 32.941406 C 246.179688 34.203125 248.15625 35.652344 250.023438 37.207031 C 257.457031 43.46875 263.882812 50.628906 270 58.0625 C 271.5 59.929688 272.984375 61.832031 274.414062 63.8125 C 275.878906 65.898438 276.9375 68.1875 277.835938 70.476562 C 279.519531 75.109375 280.582031 79.796875 281.699219 84.429688 C 283.859375 93.710938 286.441406 102.792969 290.542969 111.304688 C 292.613281 115.664062 294.425781 120.1875 295.707031 124.910156 C 297.023438 129.617188 297.648438 134.578125 297.628906 139.449219 C 297.628906 141.882812 297.519531 144.28125 297.445312 146.664062 C 297.410156 147.851562 297.390625 149.023438 297.371094 150.195312 C 297.335938 151.386719 297.355469 152.648438 297.246094 153.859375 C 296.914062 158.746094 296.054688 163.507812 295.046875 168.214844 C 294.003906 172.917969 292.777344 177.570312 291.292969 182.183594 C 290.910156 183.335938 290.523438 184.492188 290.050781 185.644531 C 289.574219 186.835938 289.003906 187.914062 288.472656 188.996094 L 285.214844 195.367188 C 283.109375 199.613281 281.078125 203.898438 279.59375 208.3125 C 278.863281 210.507812 278.222656 212.761719 278 214.957031 C 277.691406 217.632812 276.683594 219.9375 275.65625 222.191406 C 273.480469 226.601562 270.785156 230.648438 267.839844 234.496094 C 266.335938 236.398438 264.816406 238.285156 263.132812 240.0625 C 261.449219 241.835938 259.765625 243.574219 257.675781 245.078125 C 257.183594 245.460938 256.542969 245.792969 255.992188 246.140625 C 255.351562 246.414062 254.382812 246.726562 254.015625 246.78125 C 253.027344 247.019531 252.019531 247.457031 251.050781 248.007812 C 249.089844 249.105469 247.257812 250.550781 245.5 252.089844 C 243.726562 253.628906 242.039062 255.277344 240.355469 256.960938 C 239.550781 257.785156 238.5625 258.699219 237.609375 259.449219 C 236.65625 260.21875 235.6875 260.953125 234.734375 261.667969 C 230.890625 264.558594 227.046875 267.359375 223.292969 270.273438 C 221.441406 271.738281 219.574219 273.21875 217.945312 274.792969 C 217.523438 275.179688 217.175781 275.582031 216.828125 275.964844 C 216.371094 276.40625 215.804688 277.066406 215.273438 277.414062 C 214.742188 277.851562 214.191406 278.238281 213.625 278.546875 C 213.074219 278.914062 212.507812 279.207031 211.957031 279.5 C 207.472656 281.824219 202.820312 283.328125 198.097656 284.535156 C 195.71875 285.121094 193.335938 285.613281 190.902344 286.019531 C 189.675781 286.199219 188.449219 286.367188 187.203125 286.492188 C 186.105469 286.605469 185.007812 286.769531 183.90625 286.988281 C 174.953125 288.910156 165.945312 292.644531 156.277344 294.515625 C 153.933594 295.027344 151.152344 295.265625 148.660156 295.210938 C 146.152344 295.117188 143.664062 294.878906 141.246094 294.515625 C 136.394531 293.800781 131.6875 292.738281 127.039062 291.75 C 122.421875 290.777344 117.679688 289.660156 113.46875 289.660156 C 112.574219 289.660156 111.125 289.84375 109.917969 289.84375 C 108.65625 289.898438 107.390625 289.84375 106.144531 289.789062 C 103.65625 289.660156 101.183594 289.351562 98.765625 288.929688 C 93.914062 288.070312 89.320312 286.96875 84.632812 285.671875 C 79.742188 284.242188 75.367188 281.660156 71.484375 278.765625 C 67.566406 275.964844 63.851562 272.890625 59.601562 271.351562 C 58.523438 270.96875 57.496094 270.730469 56.34375 270.527344 C 55.0625 270.308594 53.835938 269.960938 52.644531 269.484375 C 50.28125 268.496094 48.140625 267.085938 46.253906 265.4375 C 44.371094 263.773438 42.703125 261.902344 41.257812 259.871094 C 40.542969 258.847656 39.847656 257.800781 39.242188 256.667969 L 38.804688 255.789062 L 38.582031 255.292969 L 38.472656 255.039062 C 38.472656 255.039062 38.4375 254.984375 38.417969 254.964844 C 38.382812 254.929688 38.382812 254.890625 38.328125 254.816406 L 38.125 254.5625 C 38.015625 254.398438 37.796875 254.195312 37.632812 254.011719 C 34.425781 250.898438 30.34375 247.496094 28.074219 242.660156 C 27.523438 241.453125 27.046875 240.1875 26.773438 238.851562 L 26.40625 237.019531 C 26.316406 236.488281 26.207031 235.941406 26.042969 235.390625 C 25.511719 233.195312 24.796875 230.996094 23.972656 228.820312 C 22.324219 224.460938 20.308594 220.195312 18.058594 216.09375 C 16.941406 214.042969 15.75 212.011719 14.488281 210.070312 C 13.863281 209.097656 13.207031 208.148438 12.511719 207.25 L 11.410156 205.804688 C 11.007812 205.308594 10.660156 204.757812 10.3125 204.226562 C 7.511719 199.890625 6.394531 194.855469 5.515625 190.203125 C 5.277344 189.050781 5.039062 187.894531 4.746094 186.835938 C 4.433594 185.789062 4.015625 184.472656 3.777344 183.300781 C 3.246094 180.882812 2.914062 178.464844 2.695312 176.050781 C 2.273438 171.214844 2.257812 166.363281 2.566406 161.566406 C 2.859375 156.769531 3.300781 151.992188 4.03125 147.230469 C 4.417969 144.851562 4.800781 142.46875 5.425781 140.109375 C 6.046875 137.5625 7.53125 135.511719 8.792969 133.515625 C 11.429688 129.523438 14.066406 125.589844 16.027344 121.320312 C 18.019531 117.074219 19.339844 112.535156 19.707031 107.902344 C 20.015625 103.214844 20.144531 98.324219 21.171875 93.527344 C 21.664062 91.128906 22.453125 88.730469 23.570312 86.515625 C 24.667969 84.300781 25.875 82.265625 26.9375 80.179688 C 28.128906 77.871094 29.847656 75.988281 31.589844 74.285156 C 33.328125 72.582031 35.121094 71.007812 36.824219 69.378906 C 40.230469 66.136719 43.234375 62.585938 45.414062 58.5 C 46.546875 56.503906 47.371094 54.363281 48.378906 52.109375 C 49.367188 49.894531 50.410156 47.71875 51.582031 45.574219 C 52.753906 43.433594 54.035156 41.34375 55.484375 39.347656 C 56.910156 37.355469 58.578125 35.46875 60.042969 33.726562 C 60.226562 33.507812 60.371094 33.289062 60.535156 33.085938 C 60.738281 32.832031 60.996094 32.539062 61.230469 32.261719 C 61.707031 31.789062 62.183594 31.328125 62.660156 30.945312 C 63.632812 30.121094 64.621094 29.390625 65.625 28.675781 C 67.660156 27.285156 69.78125 26.074219 71.945312 24.941406 C 76.28125 22.722656 80.859375 20.964844 85.640625 19.832031 C 88.019531 19.28125 90.546875 18.914062 92.816406 18.605469 C 95.140625 18.21875 97.449219 17.800781 99.738281 17.324219 C 104.332031 16.335938 108.855469 15.125 113.269531 13.441406 Z M 113.25 13.460938 " fill-opacity="1" fill-rule="nonzero"/></g></svg>