<svg xmlns="http://www.w3.org/2000/svg" xmlns:xlink="http://www.w3.org/1999/xlink" width="500" zoomAndPan="magnify" viewBox="0 0 375 374.999991" height="500" preserveAspectRatio="xMidYMid meet" version="1.0"><defs><clipPath id="4e64c04b31"><path d="M 0 5.378906 L 372 5.378906 L 372 369.539062 L 0 369.539062 Z M 0 5.378906 " clip-rule="nonzero"/></clipPath></defs><path fill="#df8435" d="M 134.234375 16.308594 C 134.234375 16.308594 117.171875 20.425781 109.695312 22.777344 C 102.214844 25.128906 88.988281 30.894531 84.550781 34.234375 C 79.792969 37.824219 69.894531 51.863281 67.1875 54.800781 C 64.484375 57.734375 45.636719 74.496094 43.546875 78.898438 C 41.460938 83.300781 17.523438 117.992188 15.117188 131.800781 C 12.730469 145.609375 5.234375 168.242188 5.234375 176.460938 C 5.234375 184.683594 -1.042969 203.195312 1.945312 214.953125 C 4.933594 226.710938 7.035156 248.160156 11.828125 257.867188 C 16.621094 267.554688 25.300781 284.902344 28.890625 289.605469 C 32.480469 294.308594 41.160156 315.472656 58.222656 324.859375 C 75.285156 334.265625 100.710938 348.375 107.605469 355.128906 C 114.503906 361.882812 135.136719 368.941406 163.566406 368.65625 C 192 368.355469 223.71875 368.957031 235.988281 366.304688 C 248.261719 363.652344 274.289062 352.160156 276.992188 349.382812 C 279.699219 346.609375 307.511719 329.332031 314.105469 319.449219 C 320.683594 309.585938 346.425781 281.949219 351.519531 264.320312 C 355.179688 251.625 367.980469 217.304688 369.183594 206.714844 C 370.382812 196.140625 372.167969 162.050781 369.183594 145.589844 C 366.195312 129.128906 347.929688 90.636719 338.363281 80.066406 C 328.796875 69.492188 307.847656 50.097656 304.257812 45.394531 C 300.667969 40.6875 270.734375 16.308594 253.988281 12.1875 C 237.246094 8.066406 201.265625 6.601562 196.472656 6.601562 C 191.679688 6.601562 149.351562 12.488281 134.234375 16.289062 Z M 134.234375 16.308594 " fill-opacity="1" fill-rule="nonzero"/><g clip-path="url(#4e64c04b31)"><path fill="#df8435" d="M 134.429688 17.085938 C 128.578125 18.570312 122.761719 20.109375 117.011719 21.914062 C 114.148438 22.8125 111.265625 23.699219 108.507812 24.742188 C 105.734375 25.800781 102.992188 26.988281 100.289062 28.242188 C 97.5625 29.460938 94.875 30.769531 92.242188 32.097656 C 90.917969 32.769531 89.625 33.457031 88.386719 34.199219 C 87.132812 34.925781 85.949219 35.652344 85.011719 36.515625 C 82.976562 38.390625 81.03125 40.691406 79.140625 42.988281 C 77.25 45.285156 75.410156 47.65625 73.570312 50.042969 L 70.761719 53.613281 L 69.292969 55.417969 C 68.761719 56.035156 68.160156 56.65625 67.59375 57.1875 C 65.367188 59.308594 63.15625 61.324219 60.929688 63.375 C 56.527344 67.476562 52.070312 71.542969 48.003906 75.855469 C 47.015625 76.917969 46.007812 78.066406 45.300781 79.09375 C 45.035156 79.464844 44.554688 80.367188 44.167969 81.019531 L 42.949219 82.964844 L 38.03125 90.585938 C 34.761719 95.640625 31.527344 100.734375 28.449219 105.898438 C 25.371094 111.058594 22.382812 116.292969 19.804688 121.6875 C 18.511719 124.375 17.363281 127.148438 16.550781 129.945312 L 16.019531 132.066406 L 15.59375 134.3125 C 15.277344 135.796875 14.976562 137.28125 14.621094 138.75 C 13.242188 144.65625 11.632812 150.472656 10.183594 156.324219 C 8.753906 162.160156 7.195312 168.027344 6.4375 173.882812 C 6.328125 174.625 6.292969 175.332031 6.277344 176.039062 L 6.171875 178.355469 C 6.027344 179.910156 5.835938 181.429688 5.585938 182.933594 C 5.109375 185.941406 4.542969 188.910156 4.011719 191.863281 C 3.023438 197.769531 2.050781 203.726562 2.386719 209.578125 C 2.476562 211.03125 2.632812 212.480469 2.953125 213.875 C 3.21875 215.273438 3.675781 216.828125 3.960938 218.296875 C 4.613281 221.265625 5.164062 224.253906 5.710938 227.226562 C 6.808594 233.167969 7.832031 239.105469 9.160156 244.925781 C 9.832031 247.824219 10.589844 250.722656 11.546875 253.480469 L 12.324219 255.515625 C 12.625 256.167969 12.890625 256.804688 13.226562 257.476562 L 15.257812 261.507812 C 17.980469 266.882812 20.722656 272.257812 23.515625 277.5625 C 24.929688 280.214844 26.363281 282.867188 27.882812 285.414062 C 28.644531 286.722656 29.402344 287.855469 30.289062 289.109375 C 31.242188 290.472656 31.933594 291.777344 32.710938 293.105469 C 35.664062 298.375 38.632812 303.535156 42.203125 308.292969 C 45.722656 313.066406 49.773438 317.453125 54.511719 320.917969 C 56.84375 322.6875 59.425781 324.066406 62.078125 325.566406 L 69.964844 330.003906 C 80.449219 336 90.953125 341.976562 100.996094 348.800781 C 103.488281 350.535156 105.980469 352.300781 108.242188 354.476562 C 110.3125 356.4375 112.875 357.976562 115.527344 359.285156 C 120.886719 361.847656 126.648438 363.601562 132.503906 364.855469 C 138.355469 366.128906 144.3125 366.925781 150.289062 367.382812 C 156.285156 367.808594 162.257812 367.773438 168.304688 367.648438 C 180.382812 367.472656 192.441406 367.453125 204.5 367.152344 C 210.527344 366.996094 216.539062 366.800781 222.535156 366.394531 C 225.523438 366.179688 228.511719 365.933594 231.445312 365.527344 C 234.398438 365.15625 237.191406 364.519531 240.039062 363.617188 C 245.714844 361.847656 251.320312 359.675781 256.835938 357.339844 C 262.335938 354.972656 267.867188 352.550781 273.015625 349.71875 C 273.667969 349.367188 274.269531 348.996094 274.835938 348.625 C 275.171875 348.429688 275.296875 348.289062 275.507812 348.128906 C 275.578125 348.09375 275.753906 347.933594 275.929688 347.773438 L 276.445312 347.316406 C 277.734375 346.289062 278.9375 345.421875 280.175781 344.523438 L 287.582031 339.324219 C 292.5 335.875 297.378906 332.375 302.046875 328.644531 C 304.34375 326.753906 306.660156 324.878906 308.730469 322.808594 C 309.277344 322.3125 309.773438 321.785156 310.25 321.253906 C 310.726562 320.722656 311.257812 320.210938 311.648438 319.644531 C 312.460938 318.617188 313.378906 317.292969 314.300781 316.039062 C 317.996094 311.15625 321.867188 306.542969 325.632812 301.839844 C 329.398438 297.152344 333.113281 292.414062 336.628906 287.570312 C 340.132812 282.707031 343.507812 277.757812 346.230469 272.507812 L 347.257812 270.542969 L 348.140625 268.527344 C 348.777344 267.203125 349.203125 265.824219 349.660156 264.460938 C 350.527344 261.613281 351.375 258.628906 352.3125 255.78125 C 354.152344 250.015625 356.007812 244.269531 357.917969 238.558594 C 359.8125 232.847656 361.703125 227.121094 363.523438 221.390625 C 364.40625 218.527344 365.292969 215.660156 366.035156 212.78125 C 366.441406 211.347656 366.742188 209.914062 367.058594 208.484375 L 367.414062 206.378906 L 367.660156 204.167969 C 368.773438 192.253906 369.304688 180.175781 369.304688 168.1875 C 369.289062 162.195312 369.109375 156.183594 368.492188 150.257812 C 367.996094 144.335938 366.246094 138.679688 364.300781 132.984375 C 360.324219 121.6875 355.460938 110.617188 349.855469 99.992188 C 347.046875 94.6875 344.09375 89.417969 340.679688 84.539062 C 339.035156 82.046875 337.039062 79.925781 334.949219 77.714844 C 332.882812 75.519531 330.777344 73.382812 328.65625 71.242188 C 324.414062 66.964844 320.097656 62.753906 315.785156 58.53125 C 311.507812 54.269531 307.085938 50.183594 303.105469 45.5 C 299.113281 41.308594 294.25 37.523438 289.546875 33.863281 C 284.773438 30.222656 279.875 26.722656 274.800781 23.519531 C 269.726562 20.339844 264.507812 17.332031 259.027344 15.121094 C 253.636719 12.878906 247.660156 12.082031 241.71875 11.234375 C 235.777344 10.453125 229.785156 9.890625 223.789062 9.410156 C 217.796875 8.898438 211.785156 8.476562 205.773438 8.140625 C 202.765625 7.980469 199.742188 7.839844 196.789062 7.75 C 193.980469 7.804688 190.886719 8.191406 187.933594 8.492188 C 181.957031 9.164062 175.960938 9.925781 170.003906 10.753906 C 158.070312 12.417969 146.117188 14.273438 134.429688 16.996094 Z M 134.039062 15.511719 C 145.871094 12.71875 157.804688 10.984375 169.722656 9.003906 C 175.695312 8.066406 181.65625 7.167969 187.648438 6.351562 C 190.671875 5.964844 193.574219 5.503906 196.789062 5.378906 C 199.867188 5.378906 202.855469 5.523438 205.898438 5.644531 C 211.945312 5.910156 217.972656 6.265625 224.003906 6.722656 C 230.03125 7.253906 236.0625 7.875 242.070312 8.738281 C 248.046875 9.660156 254.167969 10.507812 259.929688 12.984375 C 265.605469 15.386719 270.839844 18.515625 275.949219 21.804688 C 281.023438 25.128906 285.972656 28.648438 290.765625 32.363281 C 295.539062 36.128906 300.261719 39.804688 304.574219 44.367188 C 308.375 48.910156 312.8125 53.066406 317.058594 57.328125 L 329.949219 70.058594 C 332.070312 72.199219 334.207031 74.335938 336.292969 76.546875 C 338.363281 78.722656 340.503906 81.003906 342.199219 83.546875 C 345.71875 88.550781 348.6875 93.839844 351.535156 99.179688 C 357.125 109.910156 362.339844 120.855469 366.511719 132.277344 C 367.554688 135.125 368.527344 138.023438 369.339844 140.976562 C 369.78125 142.445312 370.066406 143.984375 370.417969 145.46875 C 370.648438 146.988281 370.949219 148.507812 371.109375 150.03125 C 371.832031 156.09375 372.097656 162.175781 372.222656 168.242188 C 372.398438 180.371094 372.0625 192.464844 371.109375 204.574219 L 370.898438 206.855469 L 370.542969 209.226562 C 370.226562 210.746094 369.925781 212.265625 369.535156 213.753906 C 368.808594 216.742188 367.960938 219.640625 367.113281 222.558594 C 365.398438 228.375 363.488281 234.121094 361.5625 239.832031 L 355.65625 256.929688 C 354.648438 259.792969 353.800781 262.585938 352.828125 265.503906 C 352.296875 266.988281 351.820312 268.492188 351.128906 269.890625 L 350.175781 272.011719 L 349.097656 274.046875 C 343.207031 284.847656 335.78125 294.484375 328.304688 303.996094 C 324.570312 308.734375 320.71875 313.421875 317.164062 318.175781 C 316.296875 319.363281 315.519531 320.527344 314.476562 321.890625 C 314 322.5625 313.449219 323.109375 312.921875 323.710938 C 312.390625 324.292969 311.859375 324.878906 311.292969 325.410156 C 309.101562 327.617188 306.75 329.5625 304.398438 331.527344 C 299.660156 335.363281 294.746094 338.933594 289.828125 342.453125 C 287.371094 344.222656 284.878906 345.9375 282.421875 347.652344 C 281.199219 348.5 279.945312 349.382812 278.867188 350.234375 L 278.089844 350.886719 C 277.699219 351.207031 277.257812 351.558594 276.9375 351.734375 C 276.230469 352.195312 275.542969 352.601562 274.871094 352.957031 C 269.40625 355.875 263.855469 358.242188 258.199219 360.523438 C 252.558594 362.769531 246.863281 364.871094 240.976562 366.570312 C 238.058594 367.4375 234.945312 368.089844 231.886719 368.425781 C 228.828125 368.796875 225.804688 368.992188 222.765625 369.152344 C 216.699219 369.453125 210.652344 369.539062 204.605469 369.574219 L 168.394531 369.574219 C 156.335938 369.71875 144.101562 369.0625 132.21875 366.515625 C 126.277344 365.246094 120.425781 363.476562 114.839844 360.914062 C 112.082031 359.570312 109.375 358.03125 107.023438 355.855469 C 104.917969 353.875 102.445312 352.140625 99.96875 350.460938 C 89.980469 343.832031 79.40625 337.996094 68.867188 332.128906 L 60.929688 327.777344 C 58.328125 326.347656 55.535156 324.914062 53.042969 323.058594 C 50.480469 321.289062 48.214844 319.167969 46.023438 317.011719 C 43.917969 314.765625 41.867188 312.449219 40.066406 309.972656 C 36.351562 305.09375 33.257812 299.789062 30.289062 294.554688 C 29.546875 293.28125 28.785156 291.921875 28.007812 290.824219 C 27.140625 289.621094 26.203125 288.242188 25.441406 286.953125 C 23.851562 284.335938 22.402344 281.664062 20.953125 278.996094 C 18.070312 273.671875 15.347656 268.28125 12.695312 262.835938 L 10.695312 258.769531 C 10.359375 258.078125 10.0625 257.320312 9.742188 256.613281 L 8.929688 254.417969 C 7.9375 251.484375 7.214844 248.511719 6.542969 245.523438 C 5.234375 239.585938 4.277344 233.609375 3.253906 227.667969 C 2.742188 224.695312 2.210938 221.746094 1.609375 218.808594 C 1.324219 217.304688 0.9375 215.960938 0.636719 214.390625 C 0.28125 212.832031 0.140625 211.277344 0.0546875 209.722656 C -0.230469 203.480469 0.847656 197.449219 1.910156 191.492188 C 2.457031 188.519531 3.058594 185.550781 3.570312 182.617188 C 3.820312 181.148438 4.03125 179.679688 4.171875 178.214844 L 4.296875 176.019531 C 4.332031 175.226562 4.386719 174.429688 4.492188 173.667969 C 5.339844 167.550781 6.984375 161.753906 8.488281 155.898438 C 10.042969 150.066406 11.582031 144.230469 12.890625 138.359375 C 13.226562 136.890625 13.527344 135.425781 13.808594 133.957031 L 14.214844 131.746094 L 14.765625 129.464844 C 15.136719 127.945312 15.699219 126.53125 16.214844 125.0625 C 16.816406 123.667969 17.34375 122.21875 18 120.855469 C 20.511719 115.304688 23.410156 109.964844 26.378906 104.714844 C 29.367188 99.445312 32.496094 94.261719 35.644531 89.117188 L 40.347656 81.410156 L 41.480469 79.480469 C 41.851562 78.828125 42.046875 78.367188 42.59375 77.484375 C 43.546875 76 44.539062 74.867188 45.5625 73.699219 C 49.683594 69.121094 54.035156 64.929688 58.367188 60.722656 C 60.539062 58.636719 62.75 56.550781 64.835938 54.464844 C 66.746094 52.589844 68.480469 49.972656 70.335938 47.621094 C 72.175781 45.234375 74.03125 42.828125 75.957031 40.460938 C 77.902344 38.089844 79.847656 35.757812 82.234375 33.527344 C 84.90625 31.230469 87.664062 29.957031 90.421875 28.558594 C 93.179688 27.199219 96.007812 26.03125 98.835938 24.917969 C 101.683594 23.839844 104.566406 22.832031 107.5 21.929688 C 110.453125 21.027344 113.40625 20.339844 116.359375 19.648438 L 134.023438 15.566406 Z M 134.039062 15.511719 " fill-opacity="1" fill-rule="nonzero"/></g><path fill="#f8d167" d="M 148.183594 39.082031 C 148.183594 39.082031 137.398438 43.570312 122.832031 44.863281 C 108.277344 46.152344 93.726562 56.585938 91.269531 59.960938 C 88.8125 63.339844 83.417969 67.511719 76.71875 83.246094 C 70.015625 98.984375 58.402344 102.996094 54.15625 111.203125 C 49.914062 119.386719 47.121094 121.15625 46.308594 139.316406 C 45.492188 157.472656 32.410156 169.515625 30.605469 175.773438 C 28.800781 182.03125 27.671875 193.277344 27.335938 202.753906 C 27.015625 212.230469 28.148438 221.230469 29.953125 226.359375 C 31.753906 231.488281 31.914062 240.484375 38.121094 247.875 C 44.328125 255.269531 53.328125 273.089844 54.792969 282.886719 C 56.261719 292.679688 66.410156 298.621094 67.382812 301.519531 C 68.355469 304.421875 75.234375 316.304688 85.699219 317.910156 C 96.167969 319.519531 103.046875 330.570312 117.757812 333.808594 C 127.234375 335.894531 136.886719 338.457031 146.542969 337.503906 C 156.195312 336.53125 178.914062 345.371094 192 343.285156 C 205.082031 341.199219 218.820312 334.9375 228.296875 334.125 C 237.777344 333.328125 255.28125 328.660156 259.542969 323.851562 C 263.785156 319.027344 280.792969 308.277344 284.894531 304.261719 C 288.980469 300.25 296.335938 292.539062 302.0625 291.566406 C 307.792969 290.59375 325.617188 268.441406 326.589844 258.148438 C 327.558594 247.875 337.214844 231.488281 339.511719 226.339844 C 341.792969 221.195312 347.679688 200.632812 347.679688 187.796875 C 347.679688 174.960938 350.296875 166.121094 340.167969 144.742188 C 330.035156 123.382812 330.355469 103.777344 323 93.503906 C 315.644531 83.230469 298.296875 63.621094 288.660156 59.289062 C 279.027344 54.957031 260.867188 47.410156 250.558594 42.105469 C 240.25 36.800781 220.21875 27.003906 187.632812 29.902344 C 187.632812 29.902344 175.167969 30.539062 148.183594 39.0625 Z M 148.183594 39.082031 " fill-opacity="1" fill-rule="nonzero"/><path fill="#df8435" d="M 148.664062 40.371094 C 143.746094 42.316406 138.585938 43.714844 133.386719 44.722656 C 130.789062 45.214844 128.152344 45.570312 125.5 45.78125 C 122.8125 45.976562 120.335938 46.117188 117.828125 46.683594 C 112.839844 47.816406 108.050781 49.847656 103.59375 52.394531 C 101.367188 53.667969 99.207031 55.082031 97.15625 56.585938 C 96.132812 57.34375 95.125 58.121094 94.203125 58.953125 C 93.726562 59.359375 93.320312 59.804688 92.898438 60.210938 L 92.382812 60.847656 C 92.171875 61.128906 91.960938 61.410156 91.730469 61.675781 C 89.980469 63.746094 88.300781 65.601562 86.796875 67.6875 C 85.292969 69.738281 83.933594 71.914062 82.640625 74.140625 C 81.367188 76.371094 80.21875 78.6875 79.105469 81.019531 C 78.027344 83.335938 77.019531 85.847656 75.65625 88.179688 C 73.058594 92.902344 69.46875 97.003906 65.597656 100.59375 C 61.796875 104.21875 57.445312 107.347656 55.09375 111.660156 C 53.875 114.011719 52.476562 116.257812 51.328125 118.523438 C 50.160156 120.785156 49.332031 123.171875 48.78125 125.664062 C 47.632812 130.6875 47.472656 135.847656 47.066406 141.117188 C 46.609375 146.457031 45.035156 151.636719 42.753906 156.429688 C 40.523438 161.257812 37.554688 165.675781 34.691406 170.007812 C 33.292969 172.203125 31.773438 174.324219 31.226562 176.710938 C 30.570312 179.1875 30.109375 181.75 29.757812 184.3125 C 29.050781 189.457031 28.660156 194.65625 28.414062 199.855469 C 28.167969 205.054688 28.21875 210.234375 28.875 215.363281 C 29.175781 217.925781 29.617188 220.472656 30.234375 222.929688 C 30.554688 224.203125 30.925781 225.28125 31.367188 226.605469 C 31.789062 227.933594 32.089844 229.222656 32.390625 230.496094 C 33.523438 235.589844 34.832031 240.539062 37.644531 244.625 C 38.351562 245.683594 39.058594 246.496094 39.960938 247.613281 C 40.84375 248.65625 41.621094 249.75 42.382812 250.847656 C 43.917969 253.039062 45.300781 255.320312 46.609375 257.621094 C 49.222656 262.234375 51.539062 267.007812 53.503906 271.976562 C 54.492188 274.453125 55.359375 276.996094 56.03125 279.648438 C 56.367188 280.90625 56.5625 282.515625 56.808594 283.539062 C 57.023438 284.6875 57.429688 285.804688 57.90625 286.882812 C 58.878906 289.054688 60.328125 291.070312 61.972656 292.945312 C 63.597656 294.875 65.4375 296.589844 67.3125 298.65625 C 67.542969 298.957031 67.773438 299.167969 68.019531 299.523438 C 68.25 299.839844 68.496094 300.175781 68.707031 300.671875 L 68.851562 301.007812 L 69.0625 301.59375 L 69.433594 302.40625 C 69.964844 303.519531 70.601562 304.597656 71.273438 305.660156 C 72.652344 307.761719 74.242188 309.742188 76.046875 311.476562 C 77.851562 313.207031 79.882812 314.710938 82.144531 315.683594 C 82.710938 315.949219 83.296875 316.109375 83.863281 316.320312 C 84.445312 316.515625 85.046875 316.601562 85.648438 316.746094 L 87.644531 317.1875 C 88.316406 317.347656 88.953125 317.609375 89.609375 317.804688 C 94.753906 319.804688 98.871094 323.25 103.292969 325.902344 C 107.679688 328.625 112.328125 330.785156 117.207031 331.757812 C 122.265625 332.730469 127.410156 333.949219 132.449219 334.761719 C 134.976562 335.167969 137.507812 335.453125 140.015625 335.558594 C 141.273438 335.609375 142.527344 335.628906 143.765625 335.558594 C 145.054688 335.539062 146.117188 335.34375 147.691406 335.328125 C 150.589844 335.273438 153.261719 335.679688 155.910156 336.105469 C 158.546875 336.566406 161.128906 337.097656 163.691406 337.644531 C 168.820312 338.757812 173.875 339.925781 178.949219 340.683594 C 181.480469 341.089844 184.007812 341.339844 186.5 341.445312 C 189.027344 341.480469 191.292969 341.339844 193.855469 340.808594 C 198.859375 339.855469 203.828125 338.402344 208.8125 336.882812 C 213.816406 335.378906 218.804688 333.738281 224.144531 332.675781 C 225.488281 332.429688 226.867188 332.234375 228.226562 332.09375 C 229.484375 331.984375 230.738281 331.828125 231.992188 331.632812 C 234.503906 331.242188 237.03125 330.730469 239.527344 330.148438 C 244.511719 328.980469 249.515625 327.566406 254.058594 325.515625 C 254.625 325.25 255.191406 324.984375 255.703125 324.683594 C 256.253906 324.402344 256.746094 324.082031 257.207031 323.746094 C 257.738281 323.429688 258.003906 323.074219 258.480469 322.6875 C 258.992188 322.171875 259.488281 321.660156 260.019531 321.234375 C 262.085938 319.449219 264.207031 317.910156 266.367188 316.375 L 279.21875 307.355469 C 281.34375 305.78125 283.339844 304.316406 285.125 302.457031 C 286.980469 300.621094 288.875 298.78125 290.855469 297.011719 C 292.851562 295.261719 294.9375 293.566406 297.324219 292.1875 C 298.511719 291.496094 299.800781 290.914062 301.234375 290.558594 C 302.082031 290.382812 302.328125 290.222656 302.84375 290.046875 C 303.335938 289.710938 303.851562 289.480469 304.34375 289.089844 C 306.34375 287.640625 308.164062 285.785156 309.914062 283.910156 C 311.683594 282.035156 313.292969 280.019531 314.882812 277.988281 C 318.03125 273.886719 320.875 269.535156 323.121094 264.957031 C 324.164062 262.660156 325.15625 260.289062 325.421875 257.9375 C 325.703125 255.179688 326.445312 252.582031 327.277344 250.050781 C 328.976562 244.996094 331.21875 240.203125 333.535156 235.484375 L 337.089844 228.480469 C 338.328125 226.164062 339.195312 223.917969 339.988281 221.410156 C 341.5625 216.476562 342.871094 211.4375 343.96875 206.363281 C 345.046875 201.289062 345.929688 196.160156 346.265625 191.050781 C 346.445312 188.539062 346.371094 185.886719 346.496094 183.253906 C 346.585938 180.617188 346.710938 178.035156 346.710938 175.453125 C 346.921875 165.148438 343.722656 155.175781 339.300781 145.820312 C 334.738281 136.273438 331.855469 125.984375 329.503906 115.800781 C 328.285156 110.707031 327.136719 105.613281 325.402344 100.824219 C 324.484375 98.453125 323.421875 96.15625 322.007812 94.121094 C 320.488281 92.035156 318.898438 89.964844 317.269531 87.949219 C 314 83.902344 310.570312 79.996094 307.015625 76.210938 C 303.441406 72.445312 299.765625 68.75 295.789062 65.476562 C 293.808594 63.835938 291.738281 62.3125 289.582031 61.074219 C 288.519531 60.492188 287.335938 59.960938 286.132812 59.429688 L 282.542969 57.859375 L 268.152344 51.582031 C 263.359375 49.460938 258.585938 47.320312 253.847656 45.039062 C 249.089844 42.722656 244.566406 40.246094 239.757812 38.320312 C 230.191406 34.359375 220.023438 31.972656 209.714844 31 C 204.554688 30.574219 199.371094 30.453125 194.191406 30.648438 C 191.609375 30.789062 188.957031 30.945312 186.449219 31.160156 C 183.902344 31.441406 181.335938 31.847656 178.792969 32.328125 C 168.605469 34.21875 158.492188 37.1875 148.679688 40.335938 Z M 147.707031 37.773438 C 157.875 34.679688 167.953125 32.042969 178.332031 30.046875 C 180.929688 29.566406 183.53125 29.144531 186.183594 28.859375 C 188.871094 28.632812 191.433594 28.472656 194.085938 28.332031 C 199.355469 28.136719 204.640625 28.257812 209.910156 28.683594 C 220.429688 29.65625 230.84375 32.113281 240.640625 36.164062 C 245.554688 38.125 250.222656 40.6875 254.875 42.933594 C 259.558594 45.199219 264.332031 47.335938 269.105469 49.441406 L 283.480469 55.71875 L 287.070312 57.292969 C 288.273438 57.804688 289.457031 58.351562 290.714844 59.023438 C 293.082031 60.386719 295.238281 61.976562 297.289062 63.675781 C 301.390625 67.050781 305.121094 70.78125 308.746094 74.601562 C 312.355469 78.4375 315.820312 82.382812 319.125 86.484375 C 320.769531 88.535156 322.398438 90.621094 323.953125 92.761719 C 325.542969 95.023438 326.695312 97.5 327.667969 100.007812 C 329.503906 105.046875 330.671875 110.195312 331.890625 115.269531 C 334.261719 125.433594 337.089844 135.425781 341.582031 144.777344 C 343.828125 149.550781 345.824219 154.484375 347.222656 159.648438 C 348.652344 164.777344 349.34375 170.1875 349.308594 175.492188 C 349.308594 178.140625 349.183594 180.777344 349.113281 183.375 C 349.007812 185.957031 349.078125 188.558594 348.902344 191.261719 C 348.546875 196.585938 347.609375 201.800781 346.496094 206.945312 C 345.363281 212.089844 344.019531 217.183594 342.394531 222.222656 C 341.96875 223.476562 341.546875 224.730469 341.050781 226.003906 C 340.539062 227.296875 339.917969 228.480469 339.335938 229.648438 L 335.765625 236.632812 C 333.449219 241.28125 331.238281 246.003906 329.59375 250.863281 C 328.78125 253.289062 328.074219 255.761719 327.824219 258.21875 C 327.488281 261.101562 326.394531 263.613281 325.28125 266.054688 C 322.910156 270.863281 319.976562 275.300781 316.738281 279.492188 C 315.09375 281.578125 313.433594 283.628906 311.613281 285.554688 C 309.789062 287.5 307.933594 289.390625 305.671875 291.019531 C 305.121094 291.441406 304.449219 291.777344 303.851562 292.152344 C 303.160156 292.449219 302.1875 292.75 301.746094 292.839844 C 300.632812 293.105469 299.5 293.601562 298.441406 294.21875 C 296.28125 295.4375 294.25 297.046875 292.320312 298.726562 C 290.375 300.425781 288.519531 302.230469 286.679688 304.085938 C 285.796875 304.988281 284.738281 305.976562 283.695312 306.808594 C 282.648438 307.640625 281.605469 308.433594 280.546875 309.230469 C 276.339844 312.378906 272.09375 315.4375 267.976562 318.601562 C 265.941406 320.191406 263.890625 321.820312 262.070312 323.535156 C 261.59375 323.957031 261.203125 324.402344 260.8125 324.824219 C 260.320312 325.300781 259.734375 325.972656 259.152344 326.363281 C 258.570312 326.824219 257.984375 327.230469 257.382812 327.582031 C 256.78125 327.972656 256.183594 328.289062 255.582031 328.609375 C 250.699219 331.101562 245.625 332.730469 240.464844 334.035156 C 237.882812 334.65625 235.265625 335.203125 232.613281 335.628906 C 231.285156 335.824219 229.941406 336 228.582031 336.140625 C 227.363281 336.265625 226.140625 336.441406 224.902344 336.671875 C 215.003906 338.777344 205.171875 342.929688 194.632812 344.945312 C 192.070312 345.511719 189.097656 345.742188 186.394531 345.6875 C 183.671875 345.582031 180.964844 345.335938 178.332031 344.929688 C 173.046875 344.152344 167.898438 342.984375 162.789062 341.90625 C 157.734375 340.828125 152.550781 339.589844 147.8125 339.570312 C 146.769531 339.570312 145.25 339.765625 143.90625 339.765625 C 142.546875 339.820312 141.167969 339.800781 139.820312 339.730469 C 137.117188 339.605469 134.429688 339.269531 131.796875 338.828125 C 126.507812 337.925781 121.453125 336.722656 116.339844 335.328125 C 111.039062 333.824219 106.246094 331.066406 101.984375 327.953125 C 97.671875 324.929688 93.605469 321.554688 88.882812 319.855469 C 88.28125 319.679688 87.714844 319.449219 87.113281 319.328125 L 85.277344 318.953125 C 84.605469 318.796875 83.898438 318.691406 83.242188 318.496094 C 82.589844 318.265625 81.917969 318.089844 81.28125 317.804688 C 78.734375 316.726562 76.417969 315.171875 74.367188 313.386719 C 72.316406 311.582031 70.53125 309.53125 68.957031 307.320312 C 68.179688 306.207031 67.4375 305.074219 66.78125 303.835938 L 66.304688 302.882812 L 66.074219 302.351562 L 65.96875 302.085938 C 65.96875 302.085938 65.914062 302.015625 65.898438 301.980469 C 65.863281 301.875 65.722656 301.679688 65.542969 301.484375 C 65.421875 301.292969 65.171875 301.0625 64.976562 300.847656 C 63.28125 299.097656 61.195312 297.332031 59.375 295.316406 C 57.550781 293.300781 55.855469 291.054688 54.652344 288.457031 C 54.050781 287.164062 53.539062 285.804688 53.238281 284.386719 C 52.882812 282.867188 52.777344 281.859375 52.425781 280.605469 C 51.824219 278.183594 51.046875 275.742188 50.125 273.355469 C 48.289062 268.5625 46.09375 263.878906 43.621094 259.371094 C 42.382812 257.105469 41.074219 254.894531 39.675781 252.757812 C 38.96875 251.695312 38.261719 250.636719 37.484375 249.664062 C 36.777344 248.707031 35.785156 247.523438 35.097656 246.375 C 32.054688 241.6875 30.816406 236.226562 29.828125 231.132812 C 29.5625 229.859375 29.296875 228.605469 28.960938 227.417969 C 28.609375 226.253906 28.167969 224.839844 27.882812 223.566406 C 27.300781 220.949219 26.929688 218.3125 26.679688 215.660156 C 26.203125 210.394531 26.167969 205.070312 26.503906 199.835938 C 26.804688 194.585938 27.300781 189.351562 28.078125 184.152344 C 28.484375 181.554688 28.890625 178.9375 29.582031 176.355469 C 30.234375 173.597656 31.863281 171.371094 33.242188 169.160156 C 36.121094 164.777344 39.003906 160.460938 41.144531 155.757812 C 43.335938 151.109375 44.820312 146.121094 45.246094 141.011719 C 45.492188 138.5 45.527344 135.796875 45.777344 133.179688 C 46.023438 130.542969 46.34375 127.910156 46.890625 125.292969 C 47.4375 122.675781 48.304688 120.078125 49.507812 117.671875 C 50.691406 115.269531 52.054688 113.039062 53.203125 110.742188 C 54.492188 108.25 56.367188 106.199219 58.257812 104.339844 C 60.167969 102.484375 62.132812 100.769531 64.003906 98.964844 C 67.738281 95.414062 71.078125 91.503906 73.484375 86.996094 C 74.738281 84.785156 75.65625 82.433594 76.753906 79.976562 C 77.851562 77.570312 78.980469 75.167969 80.273438 72.832031 C 81.546875 70.5 82.960938 68.21875 84.535156 66.0625 C 86.089844 63.886719 87.910156 61.835938 89.519531 59.910156 C 89.730469 59.660156 89.890625 59.429688 90.085938 59.183594 C 90.296875 58.917969 90.582031 58.601562 90.828125 58.316406 C 91.339844 57.824219 91.835938 57.308594 92.367188 56.886719 C 93.410156 55.984375 94.488281 55.1875 95.585938 54.410156 C 97.792969 52.871094 100.09375 51.546875 102.460938 50.308594 C 107.199219 47.867188 112.1875 45.941406 117.386719 44.703125 C 119.984375 44.101562 122.726562 43.730469 125.234375 43.394531 C 127.78125 42.988281 130.328125 42.546875 132.855469 42.015625 C 137.914062 40.9375 142.882812 39.609375 147.726562 37.753906 Z M 147.707031 37.773438 " fill-opacity="1" fill-rule="nonzero"/></svg>