<svg xmlns="http://www.w3.org/2000/svg" xmlns:xlink="http://www.w3.org/1999/xlink" width="400" zoomAndPan="magnify" viewBox="0 0 300 299.999988" height="400" preserveAspectRatio="xMidYMid meet" version="1.0"><metadata><ContainsAiGeneratedContent>Yes</ContainsAiGeneratedContent></metadata><defs><clipPath id="8badf8a1b8"><path d="M 223 41.296875 L 260 41.296875 L 260 79.546875 L 223 79.546875 Z M 223 41.296875 " clip-rule="nonzero"/></clipPath><clipPath id="eb9c08ac96"><path d="M 31 81 L 71 81 L 71 117.949219 L 31 117.949219 Z M 31 81 " clip-rule="nonzero"/></clipPath><clipPath id="f5e0a7a91a"><path d="M 81 36.253906 L 119 36.253906 L 119 74.503906 L 81 74.503906 Z M 81 36.253906 " clip-rule="nonzero"/></clipPath><clipPath id="5d2327aac0"><path d="M 47 125.058594 L 84.691406 125.058594 L 84.691406 163.308594 L 47 163.308594 Z M 47 125.058594 " clip-rule="nonzero"/></clipPath><clipPath id="fb055ac3cd"><path d="M 100.011719 186 L 138 186 L 138 224.082031 L 100.011719 224.082031 Z M 100.011719 186 " clip-rule="nonzero"/></clipPath></defs><g clip-path="url(#8badf8a1b8)"><path fill="#c81c28" d="M 256.730469 60.761719 C 256.152344 69.835938 248.542969 68.785156 248.542969 68.785156 C 248.542969 68.785156 247.828125 76.289062 240.859375 76.222656 C 231.667969 76.140625 232.480469 68.820312 232.480469 68.820312 C 232.480469 68.820312 226.8125 67.667969 226.253906 61.199219 C 225.601562 53.648438 232.34375 51.769531 232.34375 51.769531 C 232.34375 51.769531 232.273438 45.125 241.207031 44.863281 C 250.140625 44.605469 249.78125 51.90625 249.78125 51.90625 C 249.78125 51.90625 257.289062 52.039062 256.730469 60.761719 Z M 251.5 50.117188 C 251.5 50.117188 251.933594 41.300781 241.152344 41.617188 C 230.367188 41.929688 230.449219 49.949219 230.449219 49.949219 C 230.449219 49.949219 222.3125 52.21875 223.097656 61.332031 C 223.773438 69.144531 230.613281 70.535156 230.613281 70.535156 C 230.613281 70.535156 229.632812 79.371094 240.730469 79.472656 C 249.140625 79.550781 250.007812 70.492188 250.007812 70.492188 C 250.007812 70.492188 259.191406 71.761719 259.890625 60.808594 C 260.5625 50.277344 251.5 50.117188 251.5 50.117188 " fill-opacity="1" fill-rule="nonzero"/></g><path fill="#ff5d55" d="M 256.730469 60.761719 C 256.152344 69.835938 248.542969 68.785156 248.542969 68.785156 C 248.542969 68.785156 247.828125 76.289062 240.859375 76.222656 C 231.667969 76.140625 232.480469 68.820312 232.480469 68.820312 C 232.480469 68.820312 226.8125 67.667969 226.253906 61.199219 C 225.601562 53.648438 232.34375 51.769531 232.34375 51.769531 C 232.34375 51.769531 232.273438 45.125 241.207031 44.863281 C 250.140625 44.605469 249.78125 51.90625 249.78125 51.90625 C 249.78125 51.90625 257.289062 52.039062 256.730469 60.761719 Z M 251.125 50.507812 C 251.125 50.507812 251.542969 42.023438 241.164062 42.324219 C 230.78125 42.625 230.863281 50.347656 230.863281 50.347656 C 230.863281 50.347656 223.03125 52.53125 223.785156 61.304688 C 224.433594 68.820312 231.019531 70.160156 231.019531 70.160156 C 231.019531 70.160156 230.074219 78.667969 240.761719 78.765625 C 248.855469 78.839844 249.546875 69.941406 249.546875 69.941406 C 249.546875 69.941406 258.527344 71.34375 259.203125 60.796875 C 259.847656 50.660156 251.125 50.507812 251.125 50.507812 " fill-opacity="1" fill-rule="nonzero"/><path fill="#e5988b" d="M 233.570312 53.386719 C 234.367188 53.632812 232.890625 52.457031 232.480469 50.695312 C 232.339844 51.339844 232.34375 51.769531 232.34375 51.769531 C 232.34375 51.769531 231.367188 52.042969 230.191406 52.796875 C 231.125 52.835938 232.867188 53.167969 233.570312 53.386719 " fill-opacity="1" fill-rule="nonzero"/><path fill="#e5988b" d="M 233.140625 72.324219 C 232.046875 68.324219 235.402344 67.03125 233.570312 67.519531 C 231.738281 68.007812 228.859375 66.839844 228.859375 66.839844 C 230.570312 68.429688 232.480469 68.820312 232.480469 68.820312 C 232.480469 68.820312 232.289062 70.539062 233.140625 72.324219 " fill-opacity="1" fill-rule="nonzero"/><path fill="#e5988b" d="M 251.25 68.574219 C 248.269531 68.359375 247.011719 65.660156 247.597656 67.714844 C 248.183594 69.769531 247.203125 72.71875 247.203125 72.71875 C 248.351562 70.792969 248.542969 68.785156 248.542969 68.785156 C 248.542969 68.785156 249.757812 68.953125 251.25 68.574219 " fill-opacity="1" fill-rule="nonzero"/><path fill="#e5988b" d="M 249.78125 51.90625 C 249.78125 51.90625 249.855469 50.363281 249.070312 48.722656 C 249.765625 51.738281 247.792969 52.945312 248.574219 53.53125 C 249.148438 53.960938 251.566406 53.15625 252.808594 52.699219 C 251.230469 51.933594 249.78125 51.90625 249.78125 51.90625 " fill-opacity="1" fill-rule="nonzero"/><g clip-path="url(#eb9c08ac96)"><path fill="#70ad1f" d="M 47.679688 111.109375 C 47.378906 111.28125 47.066406 111.433594 46.734375 111.5625 C 42.726562 113.125 37.992188 110.6875 36.164062 106.117188 C 34.566406 102.128906 35.707031 97.835938 38.683594 95.765625 C 37.839844 91.71875 39.628906 87.722656 43.144531 86.351562 C 45.398438 85.472656 47.878906 85.859375 49.941406 87.175781 C 50.613281 86.636719 51.371094 86.191406 52.214844 85.863281 C 56.644531 84.136719 61.652344 86.277344 63.398438 90.648438 C 64.289062 92.867188 64.167969 95.234375 63.25 97.253906 C 64.128906 98.039062 64.824219 99 65.273438 100.121094 C 67.101562 104.695312 64.109375 110.148438 58.589844 112.300781 C 54.609375 113.855469 50.402344 113.269531 47.679688 111.109375 Z M 60.984375 115.960938 C 68.089844 113.183594 71.941406 106.167969 69.585938 100.28125 C 69.007812 98.839844 68.113281 97.597656 66.984375 96.589844 C 68.160156 93.992188 68.316406 90.945312 67.175781 88.089844 C 64.921875 82.464844 58.476562 79.703125 52.78125 81.925781 C 51.695312 82.351562 50.714844 82.925781 49.855469 83.617188 C 47.195312 81.921875 44 81.425781 41.105469 82.558594 C 36.578125 84.324219 34.273438 89.464844 35.363281 94.671875 C 31.53125 97.335938 30.0625 102.863281 32.117188 107.996094 C 34.472656 113.882812 40.566406 117.019531 45.726562 115.007812 C 46.148438 114.839844 46.554688 114.648438 46.9375 114.421875 C 50.445312 117.203125 55.859375 117.957031 60.984375 115.960938 " fill-opacity="1" fill-rule="nonzero"/></g><path fill="#82d156" d="M 64.996094 110.40625 C 68.328125 105.886719 67.925781 101.109375 63.976562 97.992188 C 64.515625 98.621094 64.957031 99.332031 65.273438 100.121094 C 67.101562 104.695312 64.109375 110.148438 58.589844 112.300781 C 54.988281 113.707031 51.203125 113.363281 48.496094 111.683594 C 53.371094 116.441406 62.027344 114.429688 64.996094 110.40625 " fill-opacity="1" fill-rule="nonzero"/><path fill="#82d156" d="M 50.707031 86.625 C 51.175781 86.328125 51.679688 86.070312 52.214844 85.863281 C 56.644531 84.136719 61.652344 86.277344 63.398438 90.648438 C 64.160156 92.546875 64.179688 94.550781 63.597656 96.355469 C 64.851562 94.082031 65.613281 89.242188 62.050781 86.003906 C 58.484375 82.761719 53.09375 84.324219 50.707031 86.625 " fill-opacity="1" fill-rule="nonzero"/><path fill="#82d156" d="M 43.144531 86.351562 C 45.046875 85.609375 47.109375 85.769531 48.949219 86.628906 C 45.132812 84.414062 42.347656 84.203125 39.492188 87.085938 C 36.601562 90.003906 38.496094 94.960938 38.578125 95.171875 C 38.015625 91.332031 39.800781 87.65625 43.144531 86.351562 " fill-opacity="1" fill-rule="nonzero"/><path fill="#82d156" d="M 36.164062 106.117188 C 34.785156 102.667969 35.449219 98.992188 37.578125 96.722656 C 35.425781 98.566406 32.695312 102.398438 35.058594 107.707031 C 37.421875 113.019531 43.164062 113.257812 46.734375 111.5625 C 42.726562 113.125 37.992188 110.6875 36.164062 106.117188 " fill-opacity="1" fill-rule="nonzero"/><path fill="#ffd52e" d="M 228.867188 214.472656 C 228.78125 214.761719 228.671875 215.046875 228.539062 215.324219 C 226.925781 218.703125 222.441406 219.941406 218.519531 218.085938 C 215.101562 216.46875 213.238281 213.03125 213.890625 209.9375 C 210.910156 207.835938 209.648438 204.207031 211.0625 201.242188 C 211.964844 199.34375 213.78125 198.121094 215.890625 197.742188 C 215.992188 197 216.207031 196.265625 216.546875 195.550781 C 218.328125 191.816406 222.8125 190.230469 226.558594 192.003906 C 228.464844 192.902344 229.8125 194.496094 230.445312 196.335938 C 231.476562 196.320312 232.5 196.527344 233.460938 196.984375 C 237.382812 198.835938 238.761719 204.117188 236.539062 208.773438 C 234.941406 212.128906 231.90625 214.246094 228.867188 214.472656 Z M 240.269531 209.707031 C 243.128906 203.710938 241.355469 196.917969 236.304688 194.53125 C 235.070312 193.945312 233.75 193.679688 232.421875 193.699219 C 231.609375 191.332031 229.875 189.277344 227.425781 188.121094 C 222.597656 185.835938 216.828125 187.882812 214.535156 192.6875 C 214.097656 193.605469 213.820312 194.554688 213.6875 195.507812 C 210.972656 195.996094 208.640625 197.570312 207.472656 200.011719 C 205.652344 203.832031 207.28125 208.503906 211.113281 211.203125 C 210.277344 215.1875 212.671875 219.609375 217.074219 221.695312 C 222.121094 224.082031 227.894531 222.488281 229.972656 218.136719 C 230.140625 217.777344 230.28125 217.414062 230.394531 217.042969 C 234.304688 216.75 238.210938 214.027344 240.269531 209.707031 " fill-opacity="1" fill-rule="nonzero"/><path fill="#ffec6e" d="M 239.480469 203.757812 C 238.882812 198.878906 235.746094 196.046875 231.355469 196.382812 C 232.074219 196.464844 232.785156 196.660156 233.460938 196.984375 C 237.382812 198.835938 238.761719 204.117188 236.539062 208.773438 C 235.09375 211.8125 232.472656 213.832031 229.734375 214.359375 C 235.707031 214.527344 240.015625 208.105469 239.480469 203.757812 " fill-opacity="1" fill-rule="nonzero"/><path fill="#ffec6e" d="M 216.046875 196.9375 C 216.164062 196.46875 216.332031 196.003906 216.546875 195.550781 C 218.328125 191.816406 222.8125 190.230469 226.558594 192.003906 C 228.1875 192.773438 229.410156 194.050781 230.125 195.554688 C 229.554688 193.347656 227.121094 189.785156 222.902344 189.816406 C 218.675781 189.84375 216.179688 194.046875 216.046875 196.9375 " fill-opacity="1" fill-rule="nonzero"/><path fill="#ffec6e" d="M 211.0625 201.242188 C 211.824219 199.640625 213.238281 198.519531 214.925781 197.980469 C 211.160156 198.816406 209.257812 200.335938 209.171875 203.878906 C 209.089844 207.46875 213.285156 209.53125 213.464844 209.617188 C 210.792969 207.484375 209.714844 204.0625 211.0625 201.242188 " fill-opacity="1" fill-rule="nonzero"/><path fill="#ffec6e" d="M 218.519531 218.085938 C 215.5625 216.6875 213.773438 213.929688 213.761719 211.207031 C 213.5 213.667969 214.070312 217.75 218.773438 219.765625 C 223.480469 221.78125 227.285156 218.53125 228.539062 215.324219 C 226.925781 218.703125 222.441406 219.941406 218.519531 218.085938 " fill-opacity="1" fill-rule="nonzero"/><path fill="#ffd52e" d="M 179.558594 89.140625 C 179.472656 89.429688 179.363281 89.710938 179.230469 89.992188 C 177.617188 93.371094 173.132812 94.609375 169.210938 92.753906 C 165.792969 91.136719 163.929688 87.699219 164.578125 84.605469 C 161.601562 82.503906 160.335938 78.875 161.75 75.910156 C 162.65625 74.011719 164.46875 72.789062 166.582031 72.410156 C 166.683594 71.667969 166.898438 70.929688 167.238281 70.21875 C 169.019531 66.484375 173.503906 64.894531 177.25 66.667969 C 179.15625 67.570312 180.503906 69.164062 181.136719 71.003906 C 182.167969 70.988281 183.191406 71.195312 184.152344 71.648438 C 188.074219 73.503906 189.453125 78.785156 187.230469 83.441406 C 185.632812 86.796875 182.597656 88.914062 179.558594 89.140625 Z M 190.960938 84.375 C 193.820312 78.378906 192.046875 71.585938 186.996094 69.195312 C 185.761719 68.613281 184.441406 68.34375 183.113281 68.363281 C 182.300781 65.996094 180.5625 63.945312 178.113281 62.789062 C 173.289062 60.503906 167.519531 62.550781 165.226562 67.355469 C 164.789062 68.273438 164.511719 69.222656 164.378906 70.175781 C 161.664062 70.660156 159.332031 72.234375 158.164062 74.679688 C 156.34375 78.496094 157.972656 83.167969 161.804688 85.871094 C 160.96875 89.855469 163.363281 94.277344 167.765625 96.359375 C 172.8125 98.75 178.585938 97.15625 180.664062 92.804688 C 180.832031 92.445312 180.972656 92.082031 181.085938 91.710938 C 184.996094 91.417969 188.898438 88.695312 190.960938 84.375 " fill-opacity="1" fill-rule="nonzero"/><path fill="#ffec6e" d="M 190.171875 78.425781 C 189.574219 73.546875 186.4375 70.710938 182.042969 71.046875 C 182.765625 71.132812 183.476562 71.328125 184.152344 71.648438 C 188.074219 73.503906 189.453125 78.785156 187.230469 83.441406 C 185.785156 86.476562 183.160156 88.5 180.425781 89.023438 C 186.398438 89.195312 190.703125 82.769531 190.171875 78.425781 " fill-opacity="1" fill-rule="nonzero"/><path fill="#ffec6e" d="M 166.738281 71.605469 C 166.855469 71.136719 167.023438 70.671875 167.238281 70.21875 C 169.019531 66.484375 173.503906 64.894531 177.25 66.667969 C 178.878906 67.441406 180.101562 68.714844 180.816406 70.222656 C 180.246094 68.015625 177.8125 64.453125 173.59375 64.484375 C 169.367188 64.511719 166.871094 68.710938 166.738281 71.605469 " fill-opacity="1" fill-rule="nonzero"/><path fill="#ffec6e" d="M 161.75 75.910156 C 162.515625 74.304688 163.929688 73.183594 165.617188 72.648438 C 161.851562 73.484375 159.949219 75 159.863281 78.546875 C 159.78125 82.136719 163.976562 84.199219 164.15625 84.285156 C 161.484375 82.152344 160.40625 78.730469 161.75 75.910156 " fill-opacity="1" fill-rule="nonzero"/><path fill="#ffec6e" d="M 169.210938 92.753906 C 166.253906 91.355469 164.464844 88.597656 164.453125 85.875 C 164.191406 88.335938 164.761719 92.417969 169.464844 94.433594 C 174.171875 96.445312 177.976562 93.199219 179.230469 89.992188 C 177.617188 93.371094 173.132812 94.609375 169.210938 92.753906 " fill-opacity="1" fill-rule="nonzero"/><g clip-path="url(#f5e0a7a91a)"><path fill="#c81c28" d="M 115.179688 55.714844 C 114.601562 64.789062 106.992188 63.738281 106.992188 63.738281 C 106.992188 63.738281 106.277344 71.242188 99.308594 71.179688 C 90.113281 71.09375 90.929688 63.773438 90.929688 63.773438 C 90.929688 63.773438 85.261719 62.621094 84.703125 56.152344 C 84.050781 48.601562 90.792969 46.722656 90.792969 46.722656 C 90.792969 46.722656 90.722656 40.078125 99.65625 39.820312 C 108.589844 39.558594 108.230469 46.859375 108.230469 46.859375 C 108.230469 46.859375 115.738281 46.992188 115.179688 55.714844 Z M 109.949219 45.070312 C 109.949219 45.070312 110.382812 36.257812 99.597656 36.570312 C 88.816406 36.882812 88.898438 44.902344 88.898438 44.902344 C 88.898438 44.902344 80.761719 47.175781 81.546875 56.289062 C 82.222656 64.097656 89.0625 65.488281 89.0625 65.488281 C 89.0625 65.488281 88.078125 74.328125 99.179688 74.429688 C 107.589844 74.507812 108.457031 65.449219 108.457031 65.449219 C 108.457031 65.449219 117.640625 66.71875 118.339844 55.761719 C 119.011719 45.230469 109.949219 45.070312 109.949219 45.070312 " fill-opacity="1" fill-rule="nonzero"/></g><path fill="#ff5d55" d="M 115.179688 55.714844 C 114.601562 64.789062 106.992188 63.738281 106.992188 63.738281 C 106.992188 63.738281 106.277344 71.242188 99.308594 71.179688 C 90.113281 71.09375 90.929688 63.773438 90.929688 63.773438 C 90.929688 63.773438 85.261719 62.621094 84.703125 56.152344 C 84.050781 48.601562 90.792969 46.722656 90.792969 46.722656 C 90.792969 46.722656 90.722656 40.078125 99.65625 39.820312 C 108.589844 39.558594 108.230469 46.859375 108.230469 46.859375 C 108.230469 46.859375 115.738281 46.992188 115.179688 55.714844 Z M 109.574219 45.460938 C 109.574219 45.460938 109.992188 36.976562 99.613281 37.277344 C 89.230469 37.582031 89.3125 45.300781 89.3125 45.300781 C 89.3125 45.300781 81.476562 47.484375 82.234375 56.257812 C 82.882812 63.777344 89.46875 65.117188 89.46875 65.117188 C 89.46875 65.117188 88.523438 73.621094 99.210938 73.71875 C 107.304688 73.792969 107.996094 64.894531 107.996094 64.894531 C 107.996094 64.894531 116.976562 66.296875 117.652344 55.753906 C 118.296875 45.617188 109.574219 45.460938 109.574219 45.460938 " fill-opacity="1" fill-rule="nonzero"/><path fill="#e5988b" d="M 92.019531 48.339844 C 92.816406 48.585938 91.339844 47.410156 90.929688 45.652344 C 90.789062 46.292969 90.792969 46.722656 90.792969 46.722656 C 90.792969 46.722656 89.816406 46.996094 88.640625 47.75 C 89.574219 47.792969 91.316406 48.121094 92.019531 48.339844 " fill-opacity="1" fill-rule="nonzero"/><path fill="#e5988b" d="M 91.589844 67.277344 C 90.496094 63.277344 93.851562 61.984375 92.019531 62.476562 C 90.1875 62.964844 87.308594 61.792969 87.308594 61.792969 C 89.019531 63.386719 90.929688 63.773438 90.929688 63.773438 C 90.929688 63.773438 90.738281 65.496094 91.589844 67.277344 " fill-opacity="1" fill-rule="nonzero"/><path fill="#e5988b" d="M 109.699219 63.53125 C 106.71875 63.316406 105.460938 60.617188 106.046875 62.671875 C 106.632812 64.722656 105.652344 67.671875 105.652344 67.675781 C 106.800781 65.746094 106.992188 63.738281 106.992188 63.738281 C 106.992188 63.738281 108.207031 63.90625 109.699219 63.53125 " fill-opacity="1" fill-rule="nonzero"/><path fill="#e5988b" d="M 108.230469 46.859375 C 108.230469 46.859375 108.304688 45.320312 107.519531 43.675781 C 108.214844 46.691406 106.242188 47.898438 107.023438 48.484375 C 107.597656 48.917969 110.015625 48.109375 111.257812 47.65625 C 109.679688 46.886719 108.230469 46.859375 108.230469 46.859375 " fill-opacity="1" fill-rule="nonzero"/><g clip-path="url(#5d2327aac0)"><path fill="#c81c28" d="M 80.859375 144.519531 C 80.28125 153.59375 72.671875 152.542969 72.671875 152.542969 C 72.671875 152.542969 71.957031 160.046875 64.992188 159.980469 C 55.796875 159.898438 56.609375 152.578125 56.609375 152.578125 C 56.609375 152.578125 50.941406 151.425781 50.382812 144.957031 C 49.734375 137.40625 56.472656 135.527344 56.472656 135.527344 C 56.472656 135.527344 56.40625 128.882812 65.335938 128.625 C 74.269531 128.363281 73.910156 135.664062 73.910156 135.664062 C 73.910156 135.664062 81.417969 135.796875 80.859375 144.519531 Z M 75.628906 133.875 C 75.628906 133.875 76.0625 125.0625 65.28125 125.375 C 54.496094 125.6875 54.578125 133.707031 54.578125 133.707031 C 54.578125 133.707031 46.441406 135.976562 47.226562 145.09375 C 47.902344 152.902344 54.742188 154.292969 54.742188 154.292969 C 54.742188 154.292969 53.761719 163.128906 64.863281 163.234375 C 73.269531 163.308594 74.136719 154.253906 74.136719 154.253906 C 74.136719 154.253906 83.320312 155.519531 84.019531 144.566406 C 84.691406 134.035156 75.628906 133.875 75.628906 133.875 " fill-opacity="1" fill-rule="nonzero"/></g><path fill="#ff5d55" d="M 80.859375 144.519531 C 80.28125 153.59375 72.671875 152.542969 72.671875 152.542969 C 72.671875 152.542969 71.957031 160.046875 64.992188 159.980469 C 55.796875 159.898438 56.609375 152.578125 56.609375 152.578125 C 56.609375 152.578125 50.941406 151.425781 50.382812 144.957031 C 49.734375 137.40625 56.472656 135.527344 56.472656 135.527344 C 56.472656 135.527344 56.40625 128.882812 65.335938 128.625 C 74.269531 128.363281 73.910156 135.664062 73.910156 135.664062 C 73.910156 135.664062 81.417969 135.796875 80.859375 144.519531 Z M 75.253906 134.265625 C 75.253906 134.265625 75.671875 125.78125 65.292969 126.082031 C 54.914062 126.386719 54.992188 134.105469 54.992188 134.105469 C 54.992188 134.105469 47.160156 136.289062 47.917969 145.0625 C 48.566406 152.582031 55.152344 153.917969 55.152344 153.917969 C 55.152344 153.917969 54.203125 162.425781 64.890625 162.523438 C 72.984375 162.597656 73.675781 153.699219 73.675781 153.699219 C 73.675781 153.699219 82.660156 155.101562 83.332031 144.554688 C 83.976562 134.417969 75.253906 134.265625 75.253906 134.265625 " fill-opacity="1" fill-rule="nonzero"/><path fill="#e5988b" d="M 57.699219 137.144531 C 58.496094 137.390625 57.019531 136.214844 56.609375 134.453125 C 56.46875 135.097656 56.472656 135.527344 56.472656 135.527344 C 56.472656 135.527344 55.496094 135.800781 54.320312 136.554688 C 55.257812 136.59375 56.996094 136.925781 57.699219 137.144531 " fill-opacity="1" fill-rule="nonzero"/><path fill="#e5988b" d="M 57.269531 156.082031 C 56.179688 152.082031 59.53125 150.789062 57.699219 151.277344 C 55.867188 151.769531 52.988281 150.597656 52.988281 150.597656 C 54.699219 152.1875 56.609375 152.578125 56.609375 152.578125 C 56.609375 152.578125 56.417969 154.300781 57.269531 156.082031 " fill-opacity="1" fill-rule="nonzero"/><path fill="#e5988b" d="M 75.378906 152.335938 C 72.398438 152.117188 71.140625 149.417969 71.726562 151.472656 C 72.3125 153.527344 71.332031 156.476562 71.332031 156.476562 C 72.480469 154.550781 72.671875 152.542969 72.671875 152.542969 C 72.671875 152.542969 73.886719 152.710938 75.378906 152.335938 " fill-opacity="1" fill-rule="nonzero"/><path fill="#e5988b" d="M 73.910156 135.664062 C 73.910156 135.664062 73.984375 134.121094 73.199219 132.480469 C 73.894531 135.496094 71.921875 136.703125 72.703125 137.289062 C 73.277344 137.71875 75.699219 136.914062 76.9375 136.460938 C 75.359375 135.691406 73.910156 135.664062 73.910156 135.664062 " fill-opacity="1" fill-rule="nonzero"/><g clip-path="url(#fb055ac3cd)"><path fill="#c81c28" d="M 134.429688 205.296875 C 133.851562 214.371094 126.242188 213.320312 126.242188 213.320312 C 126.242188 213.320312 125.523438 220.820312 118.558594 220.757812 C 109.363281 220.671875 110.179688 213.351562 110.179688 213.351562 C 110.179688 213.351562 104.511719 212.199219 103.953125 205.730469 C 103.300781 198.183594 110.042969 196.300781 110.042969 196.300781 C 110.042969 196.300781 109.972656 189.660156 118.90625 189.398438 C 127.839844 189.140625 127.480469 196.441406 127.480469 196.441406 C 127.480469 196.441406 134.984375 196.574219 134.429688 205.296875 Z M 129.199219 194.648438 C 129.199219 194.648438 129.632812 185.835938 118.847656 186.148438 C 108.0625 186.464844 108.148438 194.484375 108.148438 194.484375 C 108.148438 194.484375 100.007812 196.753906 100.796875 205.867188 C 101.46875 213.679688 108.3125 215.070312 108.3125 215.070312 C 108.3125 215.070312 107.328125 223.90625 118.429688 224.007812 C 126.839844 224.085938 127.707031 215.027344 127.707031 215.027344 C 127.707031 215.027344 136.890625 216.296875 137.589844 205.339844 C 138.261719 194.8125 129.199219 194.648438 129.199219 194.648438 " fill-opacity="1" fill-rule="nonzero"/></g><path fill="#ff5d55" d="M 134.429688 205.296875 C 133.851562 214.371094 126.242188 213.320312 126.242188 213.320312 C 126.242188 213.320312 125.523438 220.820312 118.558594 220.757812 C 109.363281 220.671875 110.179688 213.351562 110.179688 213.351562 C 110.179688 213.351562 104.511719 212.199219 103.953125 205.730469 C 103.300781 198.183594 110.042969 196.300781 110.042969 196.300781 C 110.042969 196.300781 109.972656 189.660156 118.90625 189.398438 C 127.839844 189.140625 127.480469 196.441406 127.480469 196.441406 C 127.480469 196.441406 134.984375 196.574219 134.429688 205.296875 Z M 128.824219 195.039062 C 128.824219 195.039062 129.242188 186.558594 118.859375 186.859375 C 108.480469 187.160156 108.5625 194.878906 108.5625 194.878906 C 108.5625 194.878906 100.726562 197.066406 101.484375 205.839844 C 102.132812 213.355469 108.71875 214.695312 108.71875 214.695312 C 108.71875 214.695312 107.773438 223.199219 118.457031 223.300781 C 126.554688 223.375 127.246094 214.476562 127.246094 214.476562 C 127.246094 214.476562 136.226562 215.875 136.898438 205.332031 C 137.546875 195.195312 128.824219 195.039062 128.824219 195.039062 " fill-opacity="1" fill-rule="nonzero"/><path fill="#e5988b" d="M 111.269531 197.917969 C 112.066406 198.164062 110.589844 196.988281 110.179688 195.230469 C 110.039062 195.875 110.042969 196.300781 110.042969 196.300781 C 110.042969 196.300781 109.066406 196.574219 107.890625 197.332031 C 108.824219 197.371094 110.566406 197.699219 111.269531 197.917969 " fill-opacity="1" fill-rule="nonzero"/><path fill="#e5988b" d="M 110.839844 216.855469 C 109.746094 212.855469 113.101562 211.566406 111.269531 212.054688 C 109.433594 212.542969 106.554688 211.371094 106.554688 211.371094 C 108.269531 212.964844 110.179688 213.351562 110.179688 213.351562 C 110.179688 213.351562 109.988281 215.074219 110.839844 216.855469 " fill-opacity="1" fill-rule="nonzero"/><path fill="#e5988b" d="M 128.949219 213.109375 C 125.96875 212.894531 124.710938 210.195312 125.296875 212.25 C 125.878906 214.304688 124.902344 217.253906 124.902344 217.253906 C 126.050781 215.324219 126.242188 213.320312 126.242188 213.320312 C 126.242188 213.320312 127.453125 213.484375 128.949219 213.109375 " fill-opacity="1" fill-rule="nonzero"/><path fill="#e5988b" d="M 127.480469 196.441406 C 127.480469 196.441406 127.554688 194.898438 126.769531 193.257812 C 127.464844 196.273438 125.492188 197.480469 126.269531 198.066406 C 126.84375 198.496094 129.265625 197.691406 130.507812 197.234375 C 128.929688 196.464844 127.480469 196.441406 127.480469 196.441406 " fill-opacity="1" fill-rule="nonzero"/><path fill="#70ad1f" d="M 169.867188 175.800781 C 169.570312 175.976562 169.253906 176.125 168.925781 176.253906 C 164.917969 177.820312 160.183594 175.382812 158.355469 170.808594 C 156.757812 166.820312 157.898438 162.527344 160.875 160.457031 C 160.027344 156.410156 161.820312 152.417969 165.335938 151.046875 C 167.585938 150.164062 170.066406 150.550781 172.132812 151.867188 C 172.800781 151.332031 173.5625 150.882812 174.40625 150.554688 C 178.832031 148.828125 183.839844 150.972656 185.589844 155.34375 C 186.476562 157.5625 186.355469 159.929688 185.441406 161.945312 C 186.316406 162.730469 187.015625 163.695312 187.460938 164.816406 C 189.292969 169.386719 186.300781 174.839844 180.78125 176.996094 C 176.800781 178.546875 172.59375 177.960938 169.867188 175.800781 Z M 183.171875 180.652344 C 190.277344 177.878906 194.128906 170.859375 191.777344 164.972656 C 191.199219 163.53125 190.300781 162.292969 189.171875 161.28125 C 190.351562 158.683594 190.507812 155.640625 189.363281 152.78125 C 187.113281 147.15625 180.667969 144.398438 174.96875 146.621094 C 173.882812 147.042969 172.902344 147.617188 172.042969 148.308594 C 169.382812 146.613281 166.191406 146.121094 163.292969 147.25 C 158.765625 149.015625 156.460938 154.15625 157.550781 159.363281 C 153.71875 162.03125 152.253906 167.558594 154.308594 172.6875 C 156.664062 178.574219 162.753906 181.714844 167.914062 179.699219 C 168.339844 179.535156 168.742188 179.339844 169.128906 179.117188 C 172.636719 181.898438 178.050781 182.652344 183.171875 180.652344 " fill-opacity="1" fill-rule="nonzero"/><path fill="#82d156" d="M 187.183594 175.097656 C 190.519531 170.578125 190.113281 165.800781 186.167969 162.6875 C 186.707031 163.3125 187.148438 164.023438 187.460938 164.816406 C 189.292969 169.386719 186.300781 174.839844 180.78125 176.996094 C 177.179688 178.398438 173.390625 178.054688 170.6875 176.375 C 175.558594 181.132812 184.21875 179.121094 187.183594 175.097656 " fill-opacity="1" fill-rule="nonzero"/><path fill="#82d156" d="M 172.898438 151.320312 C 173.367188 151.023438 173.871094 150.765625 174.40625 150.554688 C 178.832031 148.828125 183.839844 150.972656 185.589844 155.34375 C 186.347656 157.242188 186.371094 159.246094 185.789062 161.050781 C 187.042969 158.773438 187.800781 153.933594 184.242188 150.695312 C 180.675781 147.457031 175.28125 149.019531 172.898438 151.320312 " fill-opacity="1" fill-rule="nonzero"/><path fill="#82d156" d="M 165.335938 151.046875 C 167.234375 150.304688 169.300781 150.460938 171.140625 151.320312 C 167.324219 149.105469 164.535156 148.894531 161.679688 151.777344 C 158.789062 154.695312 160.6875 159.652344 160.769531 159.863281 C 160.207031 156.027344 161.992188 152.347656 165.335938 151.046875 " fill-opacity="1" fill-rule="nonzero"/><path fill="#82d156" d="M 158.355469 170.808594 C 156.972656 167.363281 157.640625 163.6875 159.765625 161.414062 C 157.617188 163.257812 154.886719 167.089844 157.246094 172.398438 C 159.613281 177.710938 165.351562 177.949219 168.925781 176.253906 C 164.917969 177.820312 160.183594 175.382812 158.355469 170.808594 " fill-opacity="1" fill-rule="nonzero"/><path fill="#70ad1f" d="M 156.1875 245.363281 C 155.890625 245.535156 155.574219 245.6875 155.246094 245.816406 C 151.234375 247.382812 146.503906 244.941406 144.671875 240.371094 C 143.078125 236.382812 144.214844 232.089844 147.191406 230.019531 C 146.347656 225.972656 148.136719 221.980469 151.652344 220.605469 C 153.90625 219.726562 156.386719 220.113281 158.453125 221.429688 C 159.121094 220.890625 159.882812 220.445312 160.726562 220.117188 C 165.152344 218.390625 170.160156 220.535156 171.910156 224.902344 C 172.796875 227.125 172.675781 229.488281 171.761719 231.507812 C 172.636719 232.292969 173.332031 233.257812 173.78125 234.375 C 175.613281 238.949219 172.621094 244.402344 167.097656 246.554688 C 163.117188 248.109375 158.910156 247.523438 156.1875 245.363281 Z M 169.492188 250.214844 C 176.597656 247.441406 180.449219 240.421875 178.09375 234.535156 C 177.515625 233.09375 176.621094 231.855469 175.492188 230.84375 C 176.667969 228.246094 176.828125 225.199219 175.683594 222.34375 C 173.429688 216.71875 166.988281 213.960938 161.289062 216.183594 C 160.203125 216.605469 159.222656 217.179688 158.363281 217.871094 C 155.703125 216.175781 152.511719 215.679688 149.613281 216.8125 C 145.085938 218.578125 142.78125 223.71875 143.871094 228.925781 C 140.039062 231.59375 138.574219 237.117188 140.625 242.25 C 142.980469 248.136719 149.074219 251.277344 154.234375 249.261719 C 154.660156 249.097656 155.0625 248.902344 155.449219 248.679688 C 158.953125 251.460938 164.371094 252.210938 169.492188 250.214844 " fill-opacity="1" fill-rule="nonzero"/><path fill="#82d156" d="M 173.503906 244.660156 C 176.835938 240.140625 176.433594 235.363281 172.484375 232.246094 C 173.023438 232.875 173.464844 233.585938 173.78125 234.375 C 175.613281 238.949219 172.621094 244.402344 167.097656 246.554688 C 163.5 247.960938 159.710938 247.617188 157.003906 245.9375 C 161.878906 250.695312 170.535156 248.683594 173.503906 244.660156 " fill-opacity="1" fill-rule="nonzero"/><path fill="#82d156" d="M 159.214844 220.882812 C 159.683594 220.582031 160.1875 220.328125 160.726562 220.117188 C 165.152344 218.390625 170.160156 220.535156 171.910156 224.902344 C 172.667969 226.800781 172.6875 228.808594 172.105469 230.609375 C 173.363281 228.335938 174.121094 223.496094 170.558594 220.257812 C 166.996094 217.015625 161.601562 218.582031 159.214844 220.882812 " fill-opacity="1" fill-rule="nonzero"/><path fill="#82d156" d="M 151.652344 220.605469 C 153.554688 219.863281 155.617188 220.023438 157.460938 220.882812 C 153.644531 218.667969 150.855469 218.457031 148 221.339844 C 145.109375 224.257812 147.003906 229.214844 147.085938 229.425781 C 146.527344 225.589844 148.308594 221.910156 151.652344 220.605469 " fill-opacity="1" fill-rule="nonzero"/><path fill="#82d156" d="M 144.671875 240.371094 C 143.292969 236.921875 143.957031 233.246094 146.085938 230.976562 C 143.9375 232.820312 141.207031 236.652344 143.566406 241.960938 C 145.929688 247.273438 151.671875 247.511719 155.246094 245.816406 C 151.234375 247.382812 146.503906 244.941406 144.671875 240.371094 " fill-opacity="1" fill-rule="nonzero"/><path fill="#70ad1f" d="M 223.316406 143.007812 C 223.015625 143.179688 222.703125 143.332031 222.371094 143.460938 C 218.363281 145.023438 213.628906 142.585938 211.800781 138.011719 C 210.203125 134.027344 211.34375 129.730469 214.320312 127.660156 C 213.476562 123.617188 215.265625 119.621094 218.78125 118.25 C 221.035156 117.371094 223.515625 117.753906 225.582031 119.070312 C 226.25 118.535156 227.011719 118.089844 227.851562 117.761719 C 232.28125 116.03125 237.289062 118.175781 239.039062 122.546875 C 239.925781 124.765625 239.804688 127.132812 238.886719 129.152344 C 239.765625 129.933594 240.460938 130.898438 240.910156 132.019531 C 242.738281 136.59375 239.746094 142.046875 234.226562 144.199219 C 230.246094 145.753906 226.039062 145.167969 223.316406 143.007812 Z M 236.621094 147.855469 C 243.726562 145.082031 247.578125 138.066406 245.222656 132.179688 C 244.644531 130.738281 243.75 129.496094 242.621094 128.488281 C 243.796875 125.890625 243.953125 122.84375 242.8125 119.988281 C 240.558594 114.359375 234.113281 111.601562 228.417969 113.824219 C 227.332031 114.25 226.351562 114.824219 225.492188 115.511719 C 222.832031 113.820312 219.640625 113.324219 216.742188 114.453125 C 212.214844 116.222656 209.910156 121.363281 211 126.570312 C 207.167969 129.234375 205.699219 134.761719 207.753906 139.894531 C 210.109375 145.78125 216.203125 148.917969 221.363281 146.90625 C 221.785156 146.738281 222.191406 146.542969 222.574219 146.320312 C 226.082031 149.101562 231.496094 149.855469 236.621094 147.855469 " fill-opacity="1" fill-rule="nonzero"/><path fill="#82d156" d="M 240.632812 142.304688 C 243.964844 137.785156 243.5625 133.007812 239.613281 129.890625 C 240.152344 130.515625 240.59375 131.230469 240.910156 132.019531 C 242.738281 136.59375 239.746094 142.046875 234.226562 144.199219 C 230.625 145.605469 226.839844 145.257812 224.132812 143.582031 C 229.007812 148.335938 237.664062 146.324219 240.632812 142.304688 " fill-opacity="1" fill-rule="nonzero"/><path fill="#82d156" d="M 226.34375 118.523438 C 226.8125 118.226562 227.316406 117.96875 227.851562 117.761719 C 232.28125 116.03125 237.289062 118.175781 239.039062 122.546875 C 239.796875 124.445312 239.816406 126.449219 239.234375 128.253906 C 240.492188 125.980469 241.25 121.140625 237.6875 117.902344 C 234.125 114.660156 228.730469 116.222656 226.34375 118.523438 " fill-opacity="1" fill-rule="nonzero"/><path fill="#82d156" d="M 218.78125 118.25 C 220.683594 117.507812 222.746094 117.664062 224.585938 118.523438 C 220.773438 116.308594 217.984375 116.101562 215.128906 118.980469 C 212.238281 121.898438 214.132812 126.855469 214.214844 127.070312 C 213.652344 123.230469 215.4375 119.554688 218.78125 118.25 " fill-opacity="1" fill-rule="nonzero"/><path fill="#82d156" d="M 211.800781 138.011719 C 210.421875 134.566406 211.085938 130.890625 213.214844 128.621094 C 211.0625 130.464844 208.332031 134.296875 210.695312 139.605469 C 213.058594 144.917969 218.800781 145.15625 222.371094 143.460938 C 218.363281 145.023438 213.628906 142.585938 211.800781 138.011719 " fill-opacity="1" fill-rule="nonzero"/><path fill="#ffd52e" d="M 70.175781 207.75 C 70.089844 208.039062 69.980469 208.320312 69.847656 208.597656 C 68.238281 211.980469 63.75 213.21875 59.828125 211.363281 C 56.410156 209.746094 54.546875 206.308594 55.199219 203.214844 C 52.222656 201.113281 50.957031 197.484375 52.371094 194.519531 C 53.277344 192.621094 55.089844 191.398438 57.199219 191.019531 C 57.300781 190.277344 57.519531 189.539062 57.855469 188.828125 C 59.640625 185.09375 64.121094 183.503906 67.871094 185.277344 C 69.773438 186.179688 71.121094 187.773438 71.753906 189.613281 C 72.785156 189.597656 73.808594 189.804688 74.769531 190.257812 C 78.691406 192.113281 80.070312 197.394531 77.851562 202.050781 C 76.25 205.40625 73.214844 207.523438 70.175781 207.75 Z M 81.578125 202.984375 C 84.4375 196.988281 82.664062 190.195312 77.617188 187.804688 C 76.378906 187.222656 75.0625 186.953125 73.734375 186.972656 C 72.917969 184.605469 71.183594 182.554688 68.734375 181.394531 C 63.90625 179.113281 58.136719 181.160156 55.84375 185.964844 C 55.410156 186.878906 55.128906 187.832031 54.996094 188.785156 C 52.28125 189.269531 49.949219 190.84375 48.78125 193.289062 C 46.960938 197.105469 48.589844 201.777344 52.421875 204.480469 C 51.585938 208.464844 53.980469 212.886719 58.382812 214.96875 C 63.429688 217.359375 69.203125 215.765625 71.28125 211.414062 C 71.453125 211.054688 71.59375 210.691406 71.703125 210.320312 C 75.613281 210.027344 79.519531 207.304688 81.578125 202.984375 " fill-opacity="1" fill-rule="nonzero"/><path fill="#ffec6e" d="M 80.789062 197.035156 C 80.191406 192.15625 77.054688 189.320312 72.664062 189.65625 C 73.382812 189.742188 74.09375 189.9375 74.769531 190.257812 C 78.691406 192.113281 80.070312 197.394531 77.851562 202.050781 C 76.402344 205.085938 73.78125 207.109375 71.042969 207.632812 C 77.015625 207.804688 81.324219 201.378906 80.789062 197.035156 " fill-opacity="1" fill-rule="nonzero"/><path fill="#ffec6e" d="M 57.355469 190.214844 C 57.476562 189.746094 57.640625 189.28125 57.855469 188.828125 C 59.640625 185.09375 64.121094 183.503906 67.871094 185.277344 C 69.496094 186.046875 70.71875 187.324219 71.433594 188.828125 C 70.863281 186.625 68.433594 183.0625 64.210938 183.089844 C 59.984375 183.121094 57.488281 187.320312 57.355469 190.214844 " fill-opacity="1" fill-rule="nonzero"/><path fill="#ffec6e" d="M 52.371094 194.519531 C 53.136719 192.914062 54.546875 191.792969 56.238281 191.257812 C 52.46875 192.09375 50.566406 193.609375 50.484375 197.15625 C 50.398438 200.746094 54.59375 202.808594 54.773438 202.894531 C 52.105469 200.761719 51.023438 197.339844 52.371094 194.519531 " fill-opacity="1" fill-rule="nonzero"/><path fill="#ffec6e" d="M 59.828125 211.363281 C 56.871094 209.964844 55.082031 207.207031 55.070312 204.484375 C 54.8125 206.945312 55.378906 211.027344 60.082031 213.042969 C 64.789062 215.054688 68.59375 211.808594 69.847656 208.597656 C 68.238281 211.980469 63.75 213.21875 59.828125 211.363281 " fill-opacity="1" fill-rule="nonzero"/><path fill="#ffd52e" d="M 135.742188 127.542969 C 135.65625 127.832031 135.546875 128.113281 135.414062 128.390625 C 133.800781 131.773438 129.3125 133.011719 125.394531 131.15625 C 121.972656 129.539062 120.113281 126.101562 120.761719 123.007812 C 117.785156 120.90625 116.519531 117.277344 117.933594 114.3125 C 118.839844 112.414062 120.652344 111.1875 122.761719 110.8125 C 122.867188 110.070312 123.082031 109.332031 123.421875 108.621094 C 125.203125 104.886719 129.683594 103.296875 133.433594 105.070312 C 135.335938 105.972656 136.683594 107.566406 137.320312 109.40625 C 138.351562 109.390625 139.375 109.597656 140.335938 110.050781 C 144.257812 111.90625 145.632812 117.1875 143.414062 121.84375 C 141.8125 125.199219 138.777344 127.316406 135.742188 127.542969 Z M 147.144531 122.777344 C 150 116.78125 148.226562 109.988281 143.179688 107.597656 C 141.945312 107.015625 140.625 106.746094 139.296875 106.765625 C 138.480469 104.398438 136.746094 102.347656 134.296875 101.1875 C 129.472656 98.90625 123.703125 100.953125 121.410156 105.757812 C 120.972656 106.671875 120.695312 107.621094 120.5625 108.578125 C 117.847656 109.0625 115.511719 110.636719 114.347656 113.082031 C 112.527344 116.898438 114.15625 121.570312 117.988281 124.273438 C 117.152344 128.257812 119.546875 132.679688 123.945312 134.761719 C 128.996094 137.152344 134.769531 135.558594 136.84375 131.207031 C 137.015625 130.847656 137.15625 130.480469 137.265625 130.113281 C 141.175781 129.820312 145.082031 127.097656 147.144531 122.777344 " fill-opacity="1" fill-rule="nonzero"/><path fill="#ffec6e" d="M 146.355469 116.828125 C 145.753906 111.945312 142.621094 109.113281 138.226562 109.449219 C 138.949219 109.535156 139.65625 109.730469 140.335938 110.050781 C 144.257812 111.90625 145.632812 117.1875 143.414062 121.84375 C 141.964844 124.878906 139.34375 126.902344 136.609375 127.425781 C 142.578125 127.597656 146.886719 121.171875 146.355469 116.828125 " fill-opacity="1" fill-rule="nonzero"/><path fill="#ffec6e" d="M 122.921875 110.007812 C 123.039062 109.539062 123.207031 109.074219 123.421875 108.621094 C 125.203125 104.886719 129.683594 103.296875 133.433594 105.070312 C 135.0625 105.839844 136.28125 107.117188 137 108.621094 C 136.429688 106.417969 133.996094 102.855469 129.773438 102.882812 C 125.550781 102.914062 123.054688 107.113281 122.921875 110.007812 " fill-opacity="1" fill-rule="nonzero"/><path fill="#ffec6e" d="M 117.933594 114.3125 C 118.699219 112.707031 120.109375 111.585938 121.800781 111.050781 C 118.035156 111.886719 116.128906 113.402344 116.046875 116.949219 C 115.960938 120.539062 120.15625 122.601562 120.339844 122.6875 C 117.667969 120.554688 116.589844 117.132812 117.933594 114.3125 " fill-opacity="1" fill-rule="nonzero"/><path fill="#ffec6e" d="M 125.394531 131.15625 C 122.4375 129.757812 120.644531 127 120.632812 124.277344 C 120.375 126.738281 120.945312 130.820312 125.648438 132.832031 C 130.355469 134.847656 134.15625 131.601562 135.414062 128.390625 C 133.800781 131.773438 129.3125 133.011719 125.394531 131.15625 " fill-opacity="1" fill-rule="nonzero"/></svg>