<svg xmlns="http://www.w3.org/2000/svg" xmlns:xlink="http://www.w3.org/1999/xlink" width="400" zoomAndPan="magnify" viewBox="0 0 300 299.999988" height="400" preserveAspectRatio="xMidYMid meet" version="1.0"><defs><clipPath id="79849cd454"><path d="M 214.117188 72 L 249 72 L 249 93 L 214.117188 93 Z M 214.117188 72 " clip-rule="nonzero"/></clipPath><clipPath id="367e8cf0a8"><path d="M 214.117188 86 L 235 86 L 235 93.152344 L 214.117188 93.152344 Z M 214.117188 86 " clip-rule="nonzero"/></clipPath><clipPath id="1213677ae1"><path d="M 214.117188 71.402344 L 215 71.402344 L 215 76 L 214.117188 76 Z M 214.117188 71.402344 " clip-rule="nonzero"/></clipPath><clipPath id="9105f869c7"><path d="M 216 93 L 224 93 L 224 93.152344 L 216 93.152344 Z M 216 93 " clip-rule="nonzero"/></clipPath><clipPath id="8840fb90ef"><path d="M 61 202 L 64 202 L 64 230 L 61 230 Z M 61 202 " clip-rule="nonzero"/></clipPath><clipPath id="1b33bd76b8"><path d="M 30 205.554688 L 61.316406 202.144531 L 63.914062 226.003906 L 32.597656 229.414062 Z M 30 205.554688 " clip-rule="nonzero"/></clipPath><clipPath id="0d9a271464"><path d="M 72.113281 204.703125 L 61.207031 239.011719 L 23.324219 226.972656 L 34.230469 192.664062 Z M 72.113281 204.703125 " clip-rule="nonzero"/></clipPath><clipPath id="a25766ee96"><path d="M 168.398438 181.847656 L 130.230469 301.925781 L 11.578125 264.210938 L 49.75 144.128906 Z M 168.398438 181.847656 " clip-rule="nonzero"/></clipPath><clipPath id="ac55a0007a"><path d="M 31 205 L 61 205 L 61 225 L 31 225 Z M 31 205 " clip-rule="nonzero"/></clipPath><clipPath id="b0ef8f8566"><path d="M 30 205.554688 L 61.316406 202.144531 L 63.914062 226.003906 L 32.597656 229.414062 Z M 30 205.554688 " clip-rule="nonzero"/></clipPath><clipPath id="b7feb2a0b5"><path d="M 72.113281 204.703125 L 61.207031 239.011719 L 23.324219 226.972656 L 34.230469 192.664062 Z M 72.113281 204.703125 " clip-rule="nonzero"/></clipPath><clipPath id="b213e416c1"><path d="M 168.398438 181.847656 L 130.230469 301.925781 L 11.578125 264.210938 L 49.75 144.128906 Z M 168.398438 181.847656 " clip-rule="nonzero"/></clipPath><clipPath id="653509c9c7"><path d="M 57 227 L 64 227 L 64 230 L 57 230 Z M 57 227 " clip-rule="nonzero"/></clipPath><clipPath id="875b1133a7"><path d="M 30 205.554688 L 61.316406 202.144531 L 63.914062 226.003906 L 32.597656 229.414062 Z M 30 205.554688 " clip-rule="nonzero"/></clipPath><clipPath id="b115bf4e6e"><path d="M 72.113281 204.703125 L 61.207031 239.011719 L 23.324219 226.972656 L 34.230469 192.664062 Z M 72.113281 204.703125 " clip-rule="nonzero"/></clipPath><clipPath id="2563c31152"><path d="M 168.398438 181.847656 L 130.230469 301.925781 L 11.578125 264.210938 L 49.75 144.128906 Z M 168.398438 181.847656 " clip-rule="nonzero"/></clipPath><clipPath id="9afd4d42a0"><path d="M 39 211 L 53 211 L 53 217 L 39 217 Z M 39 211 " clip-rule="nonzero"/></clipPath><clipPath id="6abcea08ef"><path d="M 30 205.554688 L 61.316406 202.144531 L 63.914062 226.003906 L 32.597656 229.414062 Z M 30 205.554688 " clip-rule="nonzero"/></clipPath><clipPath id="4a768cc4a6"><path d="M 72.113281 204.703125 L 61.207031 239.011719 L 23.324219 226.972656 L 34.230469 192.664062 Z M 72.113281 204.703125 " clip-rule="nonzero"/></clipPath><clipPath id="f2ee6b0431"><path d="M 168.398438 181.847656 L 130.230469 301.925781 L 11.578125 264.210938 L 49.75 144.128906 Z M 168.398438 181.847656 " clip-rule="nonzero"/></clipPath><clipPath id="fa14e8135c"><path d="M 61.75 123.183594 L 79 123.183594 L 79 149 L 61.75 149 Z M 61.75 123.183594 " clip-rule="nonzero"/></clipPath><clipPath id="941a563d15"><path d="M 107.054688 127.558594 L 90.984375 163.914062 L 51.199219 146.324219 L 67.269531 109.96875 Z M 107.054688 127.558594 " clip-rule="nonzero"/></clipPath><clipPath id="595a9b4379"><path d="M 221.78125 84.597656 L 168.40625 205.324219 L 48.363281 152.25 L 101.738281 31.523438 Z M 221.78125 84.597656 " clip-rule="nonzero"/></clipPath><clipPath id="58770823fb"><path d="M 83 123.183594 L 93 123.183594 L 93 147 L 83 147 Z M 83 123.183594 " clip-rule="nonzero"/></clipPath><clipPath id="6ed5bef7b2"><path d="M 107.054688 127.558594 L 90.984375 163.914062 L 51.199219 146.324219 L 67.269531 109.96875 Z M 107.054688 127.558594 " clip-rule="nonzero"/></clipPath><clipPath id="7e8c20b8d9"><path d="M 221.78125 84.597656 L 168.40625 205.324219 L 48.363281 152.25 L 101.738281 31.523438 Z M 221.78125 84.597656 " clip-rule="nonzero"/></clipPath><clipPath id="63c53b1395"><path d="M 194.894531 218.515625 L 212 218.515625 L 212 244 L 194.894531 244 Z M 194.894531 218.515625 " clip-rule="nonzero"/></clipPath><clipPath id="6e9cbc858f"><path d="M 240.203125 222.890625 L 224.128906 259.246094 L 184.34375 241.65625 L 200.417969 205.300781 Z M 240.203125 222.890625 " clip-rule="nonzero"/></clipPath><clipPath id="5a09b21940"><path d="M 354.925781 179.929688 L 301.550781 300.65625 L 181.507812 247.585938 L 234.882812 126.855469 Z M 354.925781 179.929688 " clip-rule="nonzero"/></clipPath><clipPath id="f65075d894"><path d="M 216 218.515625 L 226 218.515625 L 226 242 L 216 242 Z M 216 218.515625 " clip-rule="nonzero"/></clipPath><clipPath id="46feec4603"><path d="M 240.203125 222.890625 L 224.128906 259.246094 L 184.34375 241.65625 L 200.417969 205.300781 Z M 240.203125 222.890625 " clip-rule="nonzero"/></clipPath><clipPath id="c4868b9afd"><path d="M 354.925781 179.929688 L 301.550781 300.65625 L 181.507812 247.585938 L 234.882812 126.855469 Z M 354.925781 179.929688 " clip-rule="nonzero"/></clipPath><clipPath id="c4bb6e2bcb"><path d="M 109 233 L 134 233 L 134 264 L 109 264 Z M 109 233 " clip-rule="nonzero"/></clipPath><clipPath id="5b897e1e94"><path d="M 138.886719 235.5625 L 128.601562 270.0625 L 107.757812 263.847656 L 118.042969 229.347656 Z M 138.886719 235.5625 " clip-rule="nonzero"/></clipPath><clipPath id="922557a278"><path d="M 139.105469 235.515625 L 128.605469 270.734375 L 107.042969 264.304688 L 117.542969 229.085938 Z M 139.105469 235.515625 " clip-rule="nonzero"/></clipPath><clipPath id="5ac030e7a8"><path d="M 202.179688 175.917969 L 169.613281 285.167969 L 61.085938 252.816406 L 93.648438 143.566406 Z M 202.179688 175.917969 " clip-rule="nonzero"/></clipPath><clipPath id="e9216d4ef1"><path d="M 107 229 L 123 229 L 123 250 L 107 250 Z M 107 229 " clip-rule="nonzero"/></clipPath><clipPath id="c223d92e4e"><path d="M 138.886719 235.5625 L 128.601562 270.0625 L 107.757812 263.847656 L 118.042969 229.347656 Z M 138.886719 235.5625 " clip-rule="nonzero"/></clipPath><clipPath id="d7c81bfff3"><path d="M 139.105469 235.515625 L 128.605469 270.734375 L 107.042969 264.304688 L 117.542969 229.085938 Z M 139.105469 235.515625 " clip-rule="nonzero"/></clipPath><clipPath id="b91f792912"><path d="M 202.179688 175.917969 L 169.613281 285.167969 L 61.085938 252.816406 L 93.648438 143.566406 Z M 202.179688 175.917969 " clip-rule="nonzero"/></clipPath><clipPath id="7d7a389c4f"><path d="M 136 229 L 139 229 L 139 244 L 136 244 Z M 136 229 " clip-rule="nonzero"/></clipPath><clipPath id="61b4819365"><path d="M 138.886719 235.5625 L 128.601562 270.0625 L 107.757812 263.847656 L 118.042969 229.347656 Z M 138.886719 235.5625 " clip-rule="nonzero"/></clipPath><clipPath id="d0bb8549ac"><path d="M 139.105469 235.515625 L 128.605469 270.734375 L 107.042969 264.304688 L 117.542969 229.085938 Z M 139.105469 235.515625 " clip-rule="nonzero"/></clipPath><clipPath id="04cc028e7b"><path d="M 202.179688 175.917969 L 169.613281 285.167969 L 61.085938 252.816406 L 93.648438 143.566406 Z M 202.179688 175.917969 " clip-rule="nonzero"/></clipPath><clipPath id="6180382411"><path d="M 107 229 L 116 229 L 116 238 L 107 238 Z M 107 229 " clip-rule="nonzero"/></clipPath><clipPath id="a050f6ced4"><path d="M 138.886719 235.5625 L 128.601562 270.0625 L 107.757812 263.847656 L 118.042969 229.347656 Z M 138.886719 235.5625 " clip-rule="nonzero"/></clipPath><clipPath id="49d06ec1e3"><path d="M 139.105469 235.515625 L 128.605469 270.734375 L 107.042969 264.304688 L 117.542969 229.085938 Z M 139.105469 235.515625 " clip-rule="nonzero"/></clipPath><clipPath id="3c4ec4799a"><path d="M 202.179688 175.917969 L 169.613281 285.167969 L 61.085938 252.816406 L 93.648438 143.566406 Z M 202.179688 175.917969 " clip-rule="nonzero"/></clipPath><clipPath id="0f12311843"><path d="M 114 245 L 127 245 L 127 256 L 114 256 Z M 114 245 " clip-rule="nonzero"/></clipPath><clipPath id="d36b87452f"><path d="M 138.886719 235.5625 L 128.601562 270.0625 L 107.757812 263.847656 L 118.042969 229.347656 Z M 138.886719 235.5625 " clip-rule="nonzero"/></clipPath><clipPath id="bf69211f7a"><path d="M 139.105469 235.515625 L 128.605469 270.734375 L 107.042969 264.304688 L 117.542969 229.085938 Z M 139.105469 235.515625 " clip-rule="nonzero"/></clipPath><clipPath id="47011f8bc9"><path d="M 202.179688 175.917969 L 169.613281 285.167969 L 61.085938 252.816406 L 93.648438 143.566406 Z M 202.179688 175.917969 " clip-rule="nonzero"/></clipPath><clipPath id="a5f31c8efd"><path d="M 148 179 L 152 179 L 152 208 L 148 208 Z M 148 179 " clip-rule="nonzero"/></clipPath><clipPath id="44444149f7"><path d="M 117.136719 183.285156 L 148.453125 179.875 L 151.050781 203.734375 L 119.738281 207.144531 Z M 117.136719 183.285156 " clip-rule="nonzero"/></clipPath><clipPath id="4c0650314b"><path d="M 159.25 182.433594 L 148.34375 216.742188 L 110.464844 204.699219 L 121.367188 170.390625 Z M 159.25 182.433594 " clip-rule="nonzero"/></clipPath><clipPath id="be8f997550"><path d="M 255.539062 159.574219 L 217.367188 279.65625 L 98.71875 241.9375 L 136.886719 121.859375 Z M 255.539062 159.574219 " clip-rule="nonzero"/></clipPath><clipPath id="5699b974d8"><path d="M 118 183 L 148 183 L 148 203 L 118 203 Z M 118 183 " clip-rule="nonzero"/></clipPath><clipPath id="9bba876484"><path d="M 117.136719 183.285156 L 148.453125 179.875 L 151.050781 203.734375 L 119.738281 207.144531 Z M 117.136719 183.285156 " clip-rule="nonzero"/></clipPath><clipPath id="dd39909061"><path d="M 159.25 182.433594 L 148.34375 216.742188 L 110.464844 204.699219 L 121.367188 170.390625 Z M 159.25 182.433594 " clip-rule="nonzero"/></clipPath><clipPath id="e920b1c214"><path d="M 255.539062 159.574219 L 217.367188 279.65625 L 98.71875 241.9375 L 136.886719 121.859375 Z M 255.539062 159.574219 " clip-rule="nonzero"/></clipPath><clipPath id="a6a1d15191"><path d="M 145 205 L 152 205 L 152 208 L 145 208 Z M 145 205 " clip-rule="nonzero"/></clipPath><clipPath id="bb84eba07f"><path d="M 117.136719 183.285156 L 148.453125 179.875 L 151.050781 203.734375 L 119.738281 207.144531 Z M 117.136719 183.285156 " clip-rule="nonzero"/></clipPath><clipPath id="b9529b299d"><path d="M 159.25 182.433594 L 148.34375 216.742188 L 110.464844 204.699219 L 121.367188 170.390625 Z M 159.25 182.433594 " clip-rule="nonzero"/></clipPath><clipPath id="436c63d22e"><path d="M 255.539062 159.574219 L 217.367188 279.65625 L 98.71875 241.9375 L 136.886719 121.859375 Z M 255.539062 159.574219 " clip-rule="nonzero"/></clipPath><clipPath id="e80940de9e"><path d="M 151 181 L 152 181 L 152 195 L 151 195 Z M 151 181 " clip-rule="nonzero"/></clipPath><clipPath id="dff01d774b"><path d="M 117.136719 183.285156 L 148.453125 179.875 L 151.050781 203.734375 L 119.738281 207.144531 Z M 117.136719 183.285156 " clip-rule="nonzero"/></clipPath><clipPath id="6cf4c5e245"><path d="M 159.25 182.433594 L 148.34375 216.742188 L 110.464844 204.699219 L 121.367188 170.390625 Z M 159.25 182.433594 " clip-rule="nonzero"/></clipPath><clipPath id="c8dfb91adf"><path d="M 255.539062 159.574219 L 217.367188 279.65625 L 98.71875 241.9375 L 136.886719 121.859375 Z M 255.539062 159.574219 " clip-rule="nonzero"/></clipPath><clipPath id="82e12c2e46"><path d="M 127 189 L 141 189 L 141 195 L 127 195 Z M 127 189 " clip-rule="nonzero"/></clipPath><clipPath id="303c072baa"><path d="M 117.136719 183.285156 L 148.453125 179.875 L 151.050781 203.734375 L 119.738281 207.144531 Z M 117.136719 183.285156 " clip-rule="nonzero"/></clipPath><clipPath id="2f915a01b6"><path d="M 159.25 182.433594 L 148.34375 216.742188 L 110.464844 204.699219 L 121.367188 170.390625 Z M 159.25 182.433594 " clip-rule="nonzero"/></clipPath><clipPath id="9121550e5f"><path d="M 255.539062 159.574219 L 217.367188 279.65625 L 98.71875 241.9375 L 136.886719 121.859375 Z M 255.539062 159.574219 " clip-rule="nonzero"/></clipPath><clipPath id="6f8267d523"><path d="M 267 148 L 271 148 L 271 176 L 267 176 Z M 267 148 " clip-rule="nonzero"/></clipPath><clipPath id="f4cc76717b"><path d="M 236.378906 151.65625 L 267.695312 148.246094 L 270.292969 172.105469 L 238.976562 175.515625 Z M 236.378906 151.65625 " clip-rule="nonzero"/></clipPath><clipPath id="c281f69726"><path d="M 278.492188 150.804688 L 267.585938 185.113281 L 229.703125 173.074219 L 240.609375 138.765625 Z M 278.492188 150.804688 " clip-rule="nonzero"/></clipPath><clipPath id="a461ebf2dd"><path d="M 374.777344 127.949219 L 336.609375 248.027344 L 217.957031 210.3125 L 256.128906 90.234375 Z M 374.777344 127.949219 " clip-rule="nonzero"/></clipPath><clipPath id="4e39d115a9"><path d="M 238 151 L 267 151 L 267 171 L 238 171 Z M 238 151 " clip-rule="nonzero"/></clipPath><clipPath id="bb1c8ab81c"><path d="M 236.378906 151.65625 L 267.695312 148.246094 L 270.292969 172.105469 L 238.976562 175.515625 Z M 236.378906 151.65625 " clip-rule="nonzero"/></clipPath><clipPath id="7f369fa26d"><path d="M 278.492188 150.804688 L 267.585938 185.113281 L 229.703125 173.074219 L 240.609375 138.765625 Z M 278.492188 150.804688 " clip-rule="nonzero"/></clipPath><clipPath id="3bc8c9e46d"><path d="M 374.777344 127.949219 L 336.609375 248.027344 L 217.957031 210.3125 L 256.128906 90.234375 Z M 374.777344 127.949219 " clip-rule="nonzero"/></clipPath><clipPath id="f6bfe4bc6c"><path d="M 264 173 L 271 173 L 271 176 L 264 176 Z M 264 173 " clip-rule="nonzero"/></clipPath><clipPath id="a7f8c0d176"><path d="M 236.378906 151.65625 L 267.695312 148.246094 L 270.292969 172.105469 L 238.976562 175.515625 Z M 236.378906 151.65625 " clip-rule="nonzero"/></clipPath><clipPath id="acae17fd0c"><path d="M 278.492188 150.804688 L 267.585938 185.113281 L 229.703125 173.074219 L 240.609375 138.765625 Z M 278.492188 150.804688 " clip-rule="nonzero"/></clipPath><clipPath id="845cea2f0a"><path d="M 374.777344 127.949219 L 336.609375 248.027344 L 217.957031 210.3125 L 256.128906 90.234375 Z M 374.777344 127.949219 " clip-rule="nonzero"/></clipPath><clipPath id="efccf4f441"><path d="M 270 149 L 271 149 L 271 164 L 270 164 Z M 270 149 " clip-rule="nonzero"/></clipPath><clipPath id="89580bc878"><path d="M 236.378906 151.65625 L 267.695312 148.246094 L 270.292969 172.105469 L 238.976562 175.515625 Z M 236.378906 151.65625 " clip-rule="nonzero"/></clipPath><clipPath id="1f5684a81b"><path d="M 278.492188 150.804688 L 267.585938 185.113281 L 229.703125 173.074219 L 240.609375 138.765625 Z M 278.492188 150.804688 " clip-rule="nonzero"/></clipPath><clipPath id="219f5f30ed"><path d="M 374.777344 127.949219 L 336.609375 248.027344 L 217.957031 210.3125 L 256.128906 90.234375 Z M 374.777344 127.949219 " clip-rule="nonzero"/></clipPath><clipPath id="bed78e75e6"><path d="M 246 157 L 260 157 L 260 163 L 246 163 Z M 246 157 " clip-rule="nonzero"/></clipPath><clipPath id="7cd8db56e3"><path d="M 236.378906 151.65625 L 267.695312 148.246094 L 270.292969 172.105469 L 238.976562 175.515625 Z M 236.378906 151.65625 " clip-rule="nonzero"/></clipPath><clipPath id="fc2f308297"><path d="M 278.492188 150.804688 L 267.585938 185.113281 L 229.703125 173.074219 L 240.609375 138.765625 Z M 278.492188 150.804688 " clip-rule="nonzero"/></clipPath><clipPath id="103752f38c"><path d="M 374.777344 127.949219 L 336.609375 248.027344 L 217.957031 210.3125 L 256.128906 90.234375 Z M 374.777344 127.949219 " clip-rule="nonzero"/></clipPath><clipPath id="640c8820df"><path d="M 173 30 L 177 30 L 177 58 L 173 58 Z M 173 30 " clip-rule="nonzero"/></clipPath><clipPath id="f3f6fa9007"><path d="M 142.710938 33.78125 L 174.027344 30.371094 L 176.625 54.230469 L 145.3125 57.640625 Z M 142.710938 33.78125 " clip-rule="nonzero"/></clipPath><clipPath id="6b66a7d3be"><path d="M 184.824219 32.929688 L 173.917969 67.238281 L 136.035156 55.195312 L 146.941406 20.886719 Z M 184.824219 32.929688 " clip-rule="nonzero"/></clipPath><clipPath id="8a9d324a0b"><path d="M 281.113281 10.070312 L 242.941406 130.152344 L 124.292969 92.433594 L 162.460938 -27.644531 Z M 281.113281 10.070312 " clip-rule="nonzero"/></clipPath><clipPath id="ff33646b01"><path d="M 144 34 L 173 34 L 173 54 L 144 54 Z M 144 34 " clip-rule="nonzero"/></clipPath><clipPath id="cd6a8b2314"><path d="M 142.710938 33.78125 L 174.027344 30.371094 L 176.625 54.230469 L 145.3125 57.640625 Z M 142.710938 33.78125 " clip-rule="nonzero"/></clipPath><clipPath id="49be44018c"><path d="M 184.824219 32.929688 L 173.917969 67.238281 L 136.035156 55.195312 L 146.941406 20.886719 Z M 184.824219 32.929688 " clip-rule="nonzero"/></clipPath><clipPath id="0b0efd1f9f"><path d="M 281.113281 10.070312 L 242.941406 130.152344 L 124.292969 92.433594 L 162.460938 -27.644531 Z M 281.113281 10.070312 " clip-rule="nonzero"/></clipPath><clipPath id="403098521e"><path d="M 170 55 L 177 55 L 177 58 L 170 58 Z M 170 55 " clip-rule="nonzero"/></clipPath><clipPath id="57aab554c5"><path d="M 142.710938 33.78125 L 174.027344 30.371094 L 176.625 54.230469 L 145.3125 57.640625 Z M 142.710938 33.78125 " clip-rule="nonzero"/></clipPath><clipPath id="60d5768941"><path d="M 184.824219 32.929688 L 173.917969 67.238281 L 136.035156 55.195312 L 146.941406 20.886719 Z M 184.824219 32.929688 " clip-rule="nonzero"/></clipPath><clipPath id="595b79e9a8"><path d="M 281.113281 10.070312 L 242.941406 130.152344 L 124.292969 92.433594 L 162.460938 -27.644531 Z M 281.113281 10.070312 " clip-rule="nonzero"/></clipPath><clipPath id="eaf278bc26"><path d="M 176 31 L 177 31 L 177 46 L 176 46 Z M 176 31 " clip-rule="nonzero"/></clipPath><clipPath id="2b6068fbad"><path d="M 142.710938 33.78125 L 174.027344 30.371094 L 176.625 54.230469 L 145.3125 57.640625 Z M 142.710938 33.78125 " clip-rule="nonzero"/></clipPath><clipPath id="3552f18c3a"><path d="M 184.824219 32.929688 L 173.917969 67.238281 L 136.035156 55.195312 L 146.941406 20.886719 Z M 184.824219 32.929688 " clip-rule="nonzero"/></clipPath><clipPath id="e11b6f18ce"><path d="M 281.113281 10.070312 L 242.941406 130.152344 L 124.292969 92.433594 L 162.460938 -27.644531 Z M 281.113281 10.070312 " clip-rule="nonzero"/></clipPath><clipPath id="e0b123a93a"><path d="M 152 39 L 166 39 L 166 45 L 152 45 Z M 152 39 " clip-rule="nonzero"/></clipPath><clipPath id="be6cd6e4f0"><path d="M 142.710938 33.78125 L 174.027344 30.371094 L 176.625 54.230469 L 145.3125 57.640625 Z M 142.710938 33.78125 " clip-rule="nonzero"/></clipPath><clipPath id="8b98af7123"><path d="M 184.824219 32.929688 L 173.917969 67.238281 L 136.035156 55.195312 L 146.941406 20.886719 Z M 184.824219 32.929688 " clip-rule="nonzero"/></clipPath><clipPath id="775876ccde"><path d="M 281.113281 10.070312 L 242.941406 130.152344 L 124.292969 92.433594 L 162.460938 -27.644531 Z M 281.113281 10.070312 " clip-rule="nonzero"/></clipPath><clipPath id="199642fdcd"><path d="M 75.726562 64 L 111 64 L 111 85 L 75.726562 85 Z M 75.726562 64 " clip-rule="nonzero"/></clipPath><clipPath id="228688e8bb"><path d="M 75.726562 78 L 97 78 L 97 85.128906 L 75.726562 85.128906 Z M 75.726562 78 " clip-rule="nonzero"/></clipPath><clipPath id="a1d09a8fcd"><path d="M 75.726562 63.378906 L 76 63.378906 L 76 68 L 75.726562 68 Z M 75.726562 63.378906 " clip-rule="nonzero"/></clipPath><clipPath id="2a592c0e45"><path d="M 145.484375 118.109375 L 162 118.109375 L 162 144 L 145.484375 144 Z M 145.484375 118.109375 " clip-rule="nonzero"/></clipPath><clipPath id="2c3b3978c8"><path d="M 190.792969 122.488281 L 174.71875 158.84375 L 134.933594 141.253906 L 151.007812 104.898438 Z M 190.792969 122.488281 " clip-rule="nonzero"/></clipPath><clipPath id="72e5b05841"><path d="M 305.515625 79.523438 L 252.140625 200.253906 L 132.097656 147.179688 L 185.472656 26.453125 Z M 305.515625 79.523438 " clip-rule="nonzero"/></clipPath><clipPath id="f99b426b03"><path d="M 167 118.109375 L 177 118.109375 L 177 142 L 167 142 Z M 167 118.109375 " clip-rule="nonzero"/></clipPath><clipPath id="79a8382820"><path d="M 190.792969 122.488281 L 174.71875 158.84375 L 134.933594 141.253906 L 151.007812 104.898438 Z M 190.792969 122.488281 " clip-rule="nonzero"/></clipPath><clipPath id="8ffb382fbf"><path d="M 305.515625 79.523438 L 252.140625 200.253906 L 132.097656 147.179688 L 185.472656 26.453125 Z M 305.515625 79.523438 " clip-rule="nonzero"/></clipPath></defs><g clip-path="url(#79849cd454)"><path fill="#e1907d" d="M 233.945312 72.320312 C 230.5 71.792969 228.980469 74.839844 219.992188 75.953125 C 211 77.066406 214.503906 84.273438 218.875 88.007812 L 233.929688 90.261719 L 233.933594 90.261719 C 235.839844 90.007812 237.835938 90.300781 239.730469 90.730469 C 244.722656 91.867188 248.992188 93.964844 248.949219 89.546875 C 248.890625 83.453125 237.390625 72.847656 233.945312 72.320312 Z M 233.945312 72.320312 " fill-opacity="1" fill-rule="nonzero"/></g><g clip-path="url(#367e8cf0a8)"><path fill="#faae9f" d="M 217.640625 107.066406 C 214.09375 110.847656 208.183594 109.746094 207.128906 107.066406 C 205.734375 103.5 212.125 92.96875 214.09375 91.117188 C 215.046875 90.226562 216.890625 89.019531 218.875 88.007812 C 221 86.921875 223.28125 86.0625 224.777344 86.0625 C 226.71875 86.0625 231.847656 87.5625 233.929688 90.261719 L 233.933594 90.261719 C 234.957031 91.585938 235.246094 93.203125 234.0625 95.070312 C 230.472656 100.738281 224.691406 99.550781 217.640625 107.066406 Z M 217.640625 107.066406 " fill-opacity="1" fill-rule="nonzero"/></g><g clip-path="url(#1213677ae1)"><path fill="#faae9f" d="M 214.382812 68.648438 C 214.449219 69.5625 211.945312 72.144531 208.734375 75.347656 L 208.730469 75.347656 C 202.941406 62.71875 208.363281 44.484375 202.21875 43.945312 C 204.078125 42.039062 206.417969 39.902344 209.28125 37.5 C 210.105469 36.804688 210.816406 36.09375 211.367188 35.382812 C 212.792969 37.691406 210.601562 47.574219 210.601562 53.886719 C 210.601562 60.199219 214.222656 66.417969 214.382812 68.648438 Z M 214.382812 68.648438 " fill-opacity="1" fill-rule="nonzero"/></g><g clip-path="url(#9105f869c7)"><path fill="#e1907d" d="M 221.609375 93.816406 C 216.722656 98.554688 216.257812 103.066406 216.414062 105.335938 C 216.445312 105.8125 216.84375 106.179688 217.316406 106.179688 C 217.335938 106.179688 217.355469 106.179688 217.378906 106.179688 C 217.878906 106.144531 218.253906 105.710938 218.21875 105.210938 C 218.082031 103.257812 218.507812 99.351562 222.867188 95.121094 C 223.226562 94.773438 223.238281 94.199219 222.890625 93.835938 C 222.542969 93.476562 221.96875 93.46875 221.609375 93.816406 Z M 221.609375 93.816406 " fill-opacity="1" fill-rule="nonzero"/></g><path fill="#faae9f" d="M 239.738281 88.363281 C 238.214844 85.175781 234.707031 79.859375 228.335938 80.082031 C 227.835938 80.101562 227.445312 80.523438 227.464844 81.023438 C 227.480469 81.523438 227.894531 81.914062 228.402344 81.898438 C 233.734375 81.710938 236.773438 86.359375 238.105469 89.148438 C 238.261719 89.476562 238.585938 89.664062 238.921875 89.664062 C 239.054688 89.664062 239.1875 89.636719 239.316406 89.574219 C 239.765625 89.359375 239.957031 88.816406 239.738281 88.363281 Z M 239.738281 88.363281 " fill-opacity="1" fill-rule="nonzero"/><g clip-path="url(#8840fb90ef)"><g clip-path="url(#1b33bd76b8)"><g clip-path="url(#0d9a271464)"><g clip-path="url(#a25766ee96)"><path fill="#e1907d" d="M 136.164062 255.671875 C 113.757812 242.414062 89.472656 224.355469 64.203125 203.761719 C 62.078125 202.359375 60.609375 201.414062 61.125 199.4375 C 61.421875 198.292969 61.765625 197.214844 62.148438 196.195312 C 66.992188 183.167969 77.9375 179.867188 82.328125 177.160156 C 87.0625 174.242188 101.183594 166.957031 103.984375 166.132812 C 106.785156 165.308594 116.425781 166.15625 135.5625 172.238281 C 141.277344 174.054688 146.347656 179.246094 148.675781 182.054688 C 149.535156 183.089844 150.023438 183.804688 150.023438 183.894531 C 150.082031 190.785156 150.332031 208.828125 150.332031 208.828125 C 150.332031 208.828125 144.746094 231.917969 146.339844 240.746094 C 147.507812 247.203125 140.886719 254.113281 136.164062 255.671875 Z M 136.164062 255.671875 " fill-opacity="1" fill-rule="nonzero"/></g></g></g></g><g clip-path="url(#ac55a0007a)"><g clip-path="url(#b0ef8f8566)"><g clip-path="url(#b7feb2a0b5)"><g clip-path="url(#b213e416c1)"><path fill="#faae9f" d="M 46.179688 220.578125 C 42.683594 222.007812 32.519531 228.78125 31.816406 221.75 C 31.109375 214.722656 39.289062 207.011719 43.984375 205.964844 C 50.753906 204.453125 61.933594 213.601562 59.949219 218.40625 C 57.964844 223.210938 49.675781 219.152344 46.179688 220.578125 Z M 46.179688 220.578125 " fill-opacity="1" fill-rule="nonzero"/></g></g></g></g><g clip-path="url(#653509c9c7)"><g clip-path="url(#875b1133a7)"><g clip-path="url(#b115bf4e6e)"><g clip-path="url(#2563c31152)"><path fill="#faae9f" d="M 58.964844 238.410156 C 56.191406 233.414062 59.324219 227.550781 62.484375 227.335938 C 66.691406 227.050781 75.582031 237.289062 76.859375 239.984375 C 77.476562 241.28125 78.121094 243.628906 78.519531 246.050781 C 78.945312 248.652344 79.082031 251.34375 78.582031 252.921875 C 77.929688 254.964844 74.640625 259.867188 71.113281 261.164062 C 69.382812 261.804688 67.59375 261.570312 66.035156 259.703125 C 61.296875 254.03125 64.476562 248.339844 58.964844 238.410156 Z M 58.964844 238.410156 " fill-opacity="1" fill-rule="nonzero"/></g></g></g></g><g clip-path="url(#9afd4d42a0)"><g clip-path="url(#6abcea08ef)"><g clip-path="url(#4a768cc4a6)"><g clip-path="url(#f2ee6b0431)"><path fill="#faae9f" d="M 41.570312 216.203125 C 45.910156 212.84375 46.316406 213.066406 51.296875 215.796875 L 51.398438 215.855469 C 51.882812 216.121094 52.492188 215.941406 52.753906 215.457031 C 53.019531 214.972656 52.84375 214.363281 52.359375 214.097656 L 52.257812 214.042969 C 46.863281 211.085938 45.542969 210.601562 40.351562 214.621094 C 40.183594 214.75 40.070312 214.921875 40.011719 215.109375 C 39.914062 215.410156 39.964844 215.753906 40.171875 216.023438 C 40.507812 216.460938 41.136719 216.539062 41.570312 216.203125 Z M 41.570312 216.203125 " fill-opacity="1" fill-rule="nonzero"/></g></g></g></g><g clip-path="url(#fa14e8135c)"><g clip-path="url(#941a563d15)"><g clip-path="url(#595a9b4379)"><path fill="#faae9f" d="M 71.417969 148.417969 C 67.480469 148.265625 57.082031 132.546875 61.070312 125.398438 C 63.625 120.820312 65.503906 122.425781 71.238281 127.417969 C 74.519531 130.273438 71.226562 130.996094 77.445312 137.40625 C 80.015625 140.0625 75.363281 148.574219 71.417969 148.417969 Z M 71.417969 148.417969 " fill-opacity="1" fill-rule="nonzero"/></g></g></g><g clip-path="url(#58770823fb)"><g clip-path="url(#6ed5bef7b2)"><g clip-path="url(#7e8c20b8d9)"><path fill="#faae9f" d="M 89.816406 146.148438 C 86.773438 146.355469 84.25 144.351562 84.714844 140.179688 C 85.726562 131.089844 79.867188 120.257812 86.402344 124.015625 C 89.601562 125.855469 91.9375 132.28125 92.429688 135.828125 C 92.921875 139.371094 92.859375 145.941406 89.816406 146.148438 Z M 89.816406 146.148438 " fill-opacity="1" fill-rule="nonzero"/></g></g></g><g clip-path="url(#63c53b1395)"><g clip-path="url(#6e9cbc858f)"><g clip-path="url(#5a09b21940)"><path fill="#faae9f" d="M 204.566406 243.753906 C 200.625 243.601562 190.230469 227.882812 194.214844 220.734375 C 196.769531 216.152344 198.648438 217.761719 204.382812 222.753906 C 207.664062 225.609375 204.371094 226.328125 210.589844 232.742188 C 213.164062 235.394531 208.507812 243.90625 204.566406 243.753906 Z M 204.566406 243.753906 " fill-opacity="1" fill-rule="nonzero"/></g></g></g><g clip-path="url(#f65075d894)"><g clip-path="url(#46feec4603)"><g clip-path="url(#c4868b9afd)"><path fill="#faae9f" d="M 222.960938 241.484375 C 219.917969 241.691406 217.398438 239.683594 217.859375 235.511719 C 218.871094 226.421875 213.015625 215.589844 219.546875 219.347656 C 222.746094 221.1875 225.082031 227.617188 225.574219 231.160156 C 226.066406 234.707031 226.003906 241.273438 222.960938 241.484375 Z M 222.960938 241.484375 " fill-opacity="1" fill-rule="nonzero"/></g></g></g><g clip-path="url(#c4bb6e2bcb)"><g clip-path="url(#5b897e1e94)"><g clip-path="url(#922557a278)"><g clip-path="url(#5ac030e7a8)"><path fill="#e1907d" d="M 132.34375 254.300781 C 133.832031 251.148438 131.34375 248.824219 132.847656 239.890625 C 134.351562 230.957031 126.441406 232.253906 121.617188 235.375 L 115.152344 249.160156 L 115.152344 249.164062 C 114.851562 251.0625 114 252.894531 113.046875 254.585938 C 110.53125 259.046875 107.300781 262.539062 111.546875 263.757812 C 117.40625 265.445312 130.851562 257.453125 132.34375 254.300781 Z M 132.34375 254.300781 " fill-opacity="1" fill-rule="nonzero"/></g></g></g></g><g clip-path="url(#e9216d4ef1)"><g clip-path="url(#c223d92e4e)"><g clip-path="url(#d7c81bfff3)"><g clip-path="url(#b91f792912)"><path fill="#faae9f" d="M 103.703125 228.75 C 101.09375 224.273438 103.835938 218.921875 106.707031 218.679688 C 110.523438 218.355469 118.789062 227.488281 120 229.90625 C 120.582031 231.070312 121.210938 233.1875 121.617188 235.375 C 122.046875 237.722656 122.21875 240.15625 121.792969 241.589844 C 121.238281 243.449219 118.335938 247.933594 115.152344 249.160156 L 115.152344 249.164062 C 113.589844 249.765625 111.960938 249.582031 110.507812 247.914062 C 106.101562 242.855469 108.890625 237.65625 103.703125 228.75 Z M 103.703125 228.75 " fill-opacity="1" fill-rule="nonzero"/></g></g></g></g><g clip-path="url(#7d7a389c4f)"><g clip-path="url(#61b4819365)"><g clip-path="url(#d0bb8549ac)"><g clip-path="url(#04cc028e7b)"><path fill="#faae9f" d="M 141.449219 236.601562 C 140.554688 236.402344 138.796875 233.269531 136.640625 229.273438 L 136.644531 229.273438 C 150.402344 227.332031 166.328125 237.734375 168.597656 232 C 169.894531 234.328125 171.273438 237.179688 172.757812 240.613281 C 173.1875 241.601562 173.667969 242.484375 174.191406 243.214844 C 171.570312 243.921875 162.726562 239 156.675781 237.195312 C 150.625 235.390625 143.632812 237.085938 141.449219 236.601562 Z M 141.449219 236.601562 " fill-opacity="1" fill-rule="nonzero"/></g></g></g></g><g clip-path="url(#6180382411)"><g clip-path="url(#a050f6ced4)"><g clip-path="url(#49d06ec1e3)"><g clip-path="url(#3c4ec4799a)"><path fill="#e1907d" d="M 115.265625 236.339844 C 112.121094 230.300781 107.929688 228.566406 105.710938 228.066406 C 105.246094 227.960938 104.78125 228.238281 104.644531 228.691406 C 104.640625 228.710938 104.632812 228.730469 104.628906 228.753906 C 104.519531 229.238281 104.828125 229.722656 105.316406 229.832031 C 107.226562 230.261719 110.847656 231.785156 113.65625 237.171875 C 113.886719 237.617188 114.433594 237.789062 114.878906 237.558594 C 115.324219 237.328125 115.5 236.785156 115.265625 236.339844 Z M 115.265625 236.339844 " fill-opacity="1" fill-rule="nonzero"/></g></g></g></g><g clip-path="url(#0f12311843)"><g clip-path="url(#d36b87452f)"><g clip-path="url(#bf69211f7a)"><g clip-path="url(#47011f8bc9)"><path fill="#faae9f" d="M 115.3125 255.269531 C 118.804688 254.71875 124.902344 252.875 126.503906 246.707031 C 126.628906 246.222656 126.339844 245.730469 125.855469 245.605469 C 125.367188 245.476562 124.878906 245.761719 124.746094 246.25 C 123.40625 251.414062 118.082031 253 115.027344 253.480469 C 114.667969 253.539062 114.394531 253.792969 114.300781 254.117188 C 114.261719 254.242188 114.25 254.378906 114.273438 254.515625 C 114.351562 255.011719 114.816406 255.347656 115.3125 255.269531 Z M 115.3125 255.269531 " fill-opacity="1" fill-rule="nonzero"/></g></g></g></g><g clip-path="url(#a5f31c8efd)"><g clip-path="url(#44444149f7)"><g clip-path="url(#4c0650314b)"><g clip-path="url(#be8f997550)"><path fill="#e1907d" d="M 223.304688 233.402344 C 200.894531 220.144531 176.613281 202.085938 151.339844 181.492188 C 149.214844 180.085938 147.746094 179.144531 148.261719 177.167969 C 148.5625 176.023438 148.90625 174.945312 149.285156 173.925781 C 154.128906 160.894531 165.078125 157.59375 169.46875 154.890625 C 174.203125 151.972656 188.324219 144.6875 191.121094 143.863281 C 193.921875 143.039062 203.5625 143.882812 222.703125 149.96875 C 228.414062 151.78125 233.488281 156.976562 235.8125 159.78125 C 236.675781 160.820312 237.160156 161.53125 237.160156 161.625 C 237.21875 168.515625 237.472656 186.558594 237.472656 186.558594 C 237.472656 186.558594 231.882812 209.648438 233.480469 218.472656 C 234.648438 224.929688 228.023438 231.84375 223.304688 233.402344 Z M 223.304688 233.402344 " fill-opacity="1" fill-rule="nonzero"/></g></g></g></g><g clip-path="url(#5699b974d8)"><g clip-path="url(#9bba876484)"><g clip-path="url(#dd39909061)"><g clip-path="url(#e920b1c214)"><path fill="#faae9f" d="M 133.320312 198.308594 C 129.820312 199.734375 119.660156 206.511719 118.957031 199.480469 C 118.25 192.453125 126.425781 184.742188 131.121094 183.691406 C 137.894531 182.183594 149.070312 191.328125 147.085938 196.132812 C 145.105469 200.9375 136.8125 196.878906 133.320312 198.308594 Z M 133.320312 198.308594 " fill-opacity="1" fill-rule="nonzero"/></g></g></g></g><g clip-path="url(#a6a1d15191)"><g clip-path="url(#bb84eba07f)"><g clip-path="url(#b9529b299d)"><g clip-path="url(#436c63d22e)"><path fill="#faae9f" d="M 146.101562 216.136719 C 143.332031 211.140625 146.460938 205.28125 149.621094 205.066406 C 153.828125 204.78125 162.71875 215.019531 164 217.710938 C 164.613281 219.007812 165.261719 221.355469 165.65625 223.78125 C 166.082031 226.382812 166.21875 229.074219 165.71875 230.648438 C 165.070312 232.691406 161.78125 237.597656 158.253906 238.890625 L 158.253906 238.894531 C 156.519531 239.53125 154.730469 239.300781 153.171875 237.433594 C 148.4375 231.761719 151.617188 226.066406 146.101562 216.136719 Z M 146.101562 216.136719 " fill-opacity="1" fill-rule="nonzero"/></g></g></g></g><g clip-path="url(#e80940de9e)"><g clip-path="url(#dff01d774b)"><g clip-path="url(#6cf4c5e245)"><g clip-path="url(#c8dfb91adf)"><path fill="#faae9f" d="M 161.75 192.011719 C 160.335938 191.015625 159.128906 189.894531 158.117188 188.167969 C 156.039062 184.621094 153.386719 182.84375 151.339844 181.492188 C 164.109375 185.359375 184.273438 187.5625 184.273438 187.5625 L 189.625 194.996094 C 179.359375 194.570312 170.582031 190.78125 161.75 192.011719 Z M 161.75 192.011719 " fill-opacity="1" fill-rule="nonzero"/></g></g></g></g><g clip-path="url(#82e12c2e46)"><g clip-path="url(#303c072baa)"><g clip-path="url(#2f915a01b6)"><g clip-path="url(#9121550e5f)"><path fill="#faae9f" d="M 128.710938 193.929688 C 133.046875 190.574219 133.453125 190.796875 138.433594 193.527344 L 138.539062 193.582031 C 139.023438 193.847656 139.628906 193.671875 139.894531 193.1875 C 140.160156 192.699219 139.980469 192.09375 139.5 191.828125 L 139.394531 191.769531 C 134.003906 188.816406 132.679688 188.328125 127.488281 192.347656 C 127.324219 192.476562 127.207031 192.648438 127.148438 192.835938 C 127.054688 193.140625 127.101562 193.480469 127.308594 193.75 C 127.648438 194.1875 128.273438 194.269531 128.710938 193.929688 Z M 128.710938 193.929688 " fill-opacity="1" fill-rule="nonzero"/></g></g></g></g><g clip-path="url(#6f8267d523)"><g clip-path="url(#f4cc76717b)"><g clip-path="url(#c281f69726)"><g clip-path="url(#a461ebf2dd)"><path fill="#e1907d" d="M 342.546875 201.773438 C 320.136719 188.515625 295.851562 170.457031 270.582031 149.863281 C 268.457031 148.460938 266.988281 147.515625 267.503906 145.539062 C 267.800781 144.394531 268.144531 143.316406 268.527344 142.296875 C 273.371094 129.269531 284.316406 125.96875 288.707031 123.261719 C 293.441406 120.34375 307.5625 113.058594 310.363281 112.234375 C 313.164062 111.410156 322.804688 112.257812 341.945312 118.339844 C 347.65625 120.15625 352.726562 125.347656 355.054688 128.15625 C 355.914062 129.191406 356.402344 129.90625 356.402344 129.996094 C 356.460938 136.886719 356.714844 154.929688 356.714844 154.929688 C 356.714844 154.929688 351.125 178.019531 352.71875 186.847656 C 353.886719 193.304688 347.265625 200.214844 342.546875 201.773438 Z M 342.546875 201.773438 " fill-opacity="1" fill-rule="nonzero"/></g></g></g></g><g clip-path="url(#4e39d115a9)"><g clip-path="url(#bb1c8ab81c)"><g clip-path="url(#7f369fa26d)"><g clip-path="url(#3bc8c9e46d)"><path fill="#faae9f" d="M 252.558594 166.679688 C 249.0625 168.109375 238.898438 174.882812 238.195312 167.851562 C 237.488281 160.824219 245.667969 153.113281 250.363281 152.066406 C 257.132812 150.554688 268.3125 159.703125 266.328125 164.507812 C 264.34375 169.3125 256.054688 165.253906 252.558594 166.679688 Z M 252.558594 166.679688 " fill-opacity="1" fill-rule="nonzero"/></g></g></g></g><g clip-path="url(#f6bfe4bc6c)"><g clip-path="url(#a7f8c0d176)"><g clip-path="url(#acae17fd0c)"><g clip-path="url(#845cea2f0a)"><path fill="#faae9f" d="M 265.34375 184.511719 C 262.570312 179.515625 265.703125 173.652344 268.863281 173.4375 C 273.070312 173.152344 281.960938 183.390625 283.238281 186.085938 C 283.855469 187.382812 284.5 189.730469 284.898438 192.152344 C 285.324219 194.753906 285.460938 197.445312 284.960938 199.023438 C 284.308594 201.066406 281.019531 205.96875 277.496094 207.265625 L 277.492188 207.265625 C 275.761719 207.90625 273.972656 207.671875 272.414062 205.804688 C 267.675781 200.132812 270.855469 194.441406 265.34375 184.511719 Z M 265.34375 184.511719 " fill-opacity="1" fill-rule="nonzero"/></g></g></g></g><g clip-path="url(#efccf4f441)"><g clip-path="url(#89580bc878)"><g clip-path="url(#1f5684a81b)"><g clip-path="url(#219f5f30ed)"><path fill="#faae9f" d="M 280.992188 160.382812 C 279.578125 159.386719 278.371094 158.265625 277.355469 156.539062 C 275.28125 152.996094 272.628906 151.214844 270.582031 149.863281 C 283.347656 153.730469 303.515625 155.9375 303.515625 155.9375 L 308.867188 163.367188 C 298.601562 162.945312 289.824219 159.15625 280.992188 160.382812 Z M 280.992188 160.382812 " fill-opacity="1" fill-rule="nonzero"/></g></g></g></g><g clip-path="url(#bed78e75e6)"><g clip-path="url(#7cd8db56e3)"><g clip-path="url(#fc2f308297)"><g clip-path="url(#103752f38c)"><path fill="#faae9f" d="M 247.953125 162.304688 C 252.289062 158.945312 252.695312 159.167969 257.675781 161.898438 L 257.777344 161.957031 C 258.261719 162.222656 258.871094 162.042969 259.136719 161.558594 C 259.398438 161.074219 259.222656 160.464844 258.738281 160.199219 L 258.636719 160.144531 C 253.246094 157.1875 251.921875 156.703125 246.730469 160.722656 C 246.5625 160.851562 246.449219 161.023438 246.390625 161.210938 C 246.292969 161.511719 246.34375 161.855469 246.550781 162.125 C 246.886719 162.5625 247.515625 162.640625 247.953125 162.304688 Z M 247.953125 162.304688 " fill-opacity="1" fill-rule="nonzero"/></g></g></g></g><g clip-path="url(#640c8820df)"><g clip-path="url(#f3f6fa9007)"><g clip-path="url(#6b66a7d3be)"><g clip-path="url(#8a9d324a0b)"><path fill="#e1907d" d="M 248.878906 83.898438 C 226.46875 70.640625 202.1875 52.578125 176.914062 31.988281 C 174.789062 30.582031 173.320312 29.640625 173.835938 27.664062 C 174.136719 26.519531 174.480469 25.441406 174.859375 24.421875 C 179.703125 11.390625 190.652344 8.089844 195.042969 5.386719 C 199.777344 2.46875 213.898438 -4.816406 216.695312 -5.640625 C 219.496094 -6.464844 229.136719 -5.621094 248.277344 0.464844 C 253.988281 2.277344 259.0625 7.472656 261.386719 10.277344 C 262.25 11.316406 262.734375 12.027344 262.734375 12.121094 C 262.792969 19.011719 263.046875 37.054688 263.046875 37.054688 C 263.046875 37.054688 257.457031 60.144531 259.054688 68.96875 C 260.222656 75.425781 253.597656 82.339844 248.878906 83.898438 Z M 248.878906 83.898438 " fill-opacity="1" fill-rule="nonzero"/></g></g></g></g><g clip-path="url(#ff33646b01)"><g clip-path="url(#cd6a8b2314)"><g clip-path="url(#49be44018c)"><g clip-path="url(#0b0efd1f9f)"><path fill="#faae9f" d="M 158.894531 48.804688 C 155.394531 50.230469 145.234375 57.007812 144.53125 49.976562 C 143.824219 42.949219 152 35.238281 156.695312 34.1875 C 163.46875 32.679688 174.644531 41.824219 172.660156 46.628906 C 170.679688 51.433594 162.386719 47.375 158.894531 48.804688 Z M 158.894531 48.804688 " fill-opacity="1" fill-rule="nonzero"/></g></g></g></g><g clip-path="url(#403098521e)"><g clip-path="url(#57aab554c5)"><g clip-path="url(#60d5768941)"><g clip-path="url(#595b79e9a8)"><path fill="#faae9f" d="M 171.675781 66.632812 C 168.90625 61.636719 172.035156 55.777344 175.195312 55.5625 C 179.402344 55.277344 188.292969 65.515625 189.574219 68.207031 C 190.1875 69.503906 190.835938 71.851562 191.230469 74.277344 C 191.65625 76.878906 191.792969 79.570312 191.292969 81.144531 C 190.644531 83.1875 187.355469 88.09375 183.828125 89.386719 L 183.828125 89.390625 C 182.09375 90.027344 180.304688 89.796875 178.746094 87.929688 C 174.011719 82.257812 177.191406 76.5625 171.675781 66.632812 Z M 171.675781 66.632812 " fill-opacity="1" fill-rule="nonzero"/></g></g></g></g><g clip-path="url(#eaf278bc26)"><g clip-path="url(#2b6068fbad)"><g clip-path="url(#3552f18c3a)"><g clip-path="url(#e11b6f18ce)"><path fill="#faae9f" d="M 187.324219 42.507812 C 185.910156 41.507812 184.703125 40.386719 183.691406 38.664062 C 181.613281 35.117188 178.960938 33.339844 176.914062 31.988281 C 189.683594 35.855469 209.847656 38.058594 209.847656 38.058594 L 215.199219 45.492188 C 204.933594 45.066406 196.15625 41.277344 187.324219 42.507812 Z M 187.324219 42.507812 " fill-opacity="1" fill-rule="nonzero"/></g></g></g></g><g clip-path="url(#e0b123a93a)"><g clip-path="url(#be6cd6e4f0)"><g clip-path="url(#8b98af7123)"><g clip-path="url(#775876ccde)"><path fill="#faae9f" d="M 154.285156 44.425781 C 158.621094 41.070312 159.027344 41.292969 164.007812 44.023438 L 164.113281 44.078125 C 164.597656 44.34375 165.203125 44.167969 165.46875 43.683594 C 165.730469 43.195312 165.554688 42.589844 165.074219 42.324219 L 164.96875 42.265625 C 159.578125 39.3125 158.253906 38.824219 153.0625 42.84375 C 152.898438 42.972656 152.78125 43.144531 152.722656 43.332031 C 152.628906 43.636719 152.675781 43.976562 152.882812 44.246094 C 153.222656 44.683594 153.847656 44.765625 154.285156 44.425781 Z M 154.285156 44.425781 " fill-opacity="1" fill-rule="nonzero"/></g></g></g></g><g clip-path="url(#199642fdcd)"><path fill="#e1907d" d="M 95.550781 64.296875 C 92.105469 63.769531 90.589844 66.816406 81.597656 67.929688 C 72.605469 69.039062 76.109375 76.246094 80.480469 79.980469 L 95.535156 82.238281 L 95.539062 82.238281 C 97.445312 81.984375 99.445312 82.273438 101.335938 82.703125 C 106.332031 83.84375 110.601562 85.941406 110.558594 81.523438 C 110.5 75.425781 98.996094 64.824219 95.550781 64.296875 Z M 95.550781 64.296875 " fill-opacity="1" fill-rule="nonzero"/></g><g clip-path="url(#228688e8bb)"><path fill="#faae9f" d="M 79.25 99.039062 C 75.699219 102.820312 69.789062 101.722656 68.738281 99.039062 C 67.339844 95.472656 73.730469 84.941406 75.699219 83.09375 C 76.652344 82.203125 78.496094 80.996094 80.480469 79.980469 C 82.605469 78.898438 84.890625 78.035156 86.382812 78.035156 C 88.324219 78.035156 93.453125 79.539062 95.535156 82.238281 L 95.539062 82.238281 C 96.5625 83.5625 96.851562 85.175781 95.667969 87.042969 C 92.078125 92.710938 86.296875 91.523438 79.25 99.039062 Z M 79.25 99.039062 " fill-opacity="1" fill-rule="nonzero"/></g><g clip-path="url(#a1d09a8fcd)"><path fill="#faae9f" d="M 75.988281 60.625 C 76.054688 61.535156 73.550781 64.117188 70.339844 67.324219 L 70.335938 67.320312 C 64.550781 54.695312 69.96875 36.460938 63.824219 35.921875 C 65.683594 34.015625 68.023438 31.878906 70.886719 29.472656 C 71.710938 28.78125 72.421875 28.070312 72.972656 27.359375 C 74.398438 29.667969 72.207031 39.550781 72.207031 45.863281 C 72.207031 52.175781 75.828125 58.390625 75.988281 60.625 Z M 75.988281 60.625 " fill-opacity="1" fill-rule="nonzero"/></g><path fill="#faae9f" d="M 101.34375 80.339844 C 99.820312 77.148438 96.3125 71.835938 89.941406 72.058594 C 89.445312 72.078125 89.054688 72.496094 89.070312 73 C 89.089844 73.5 89.503906 73.890625 90.007812 73.875 C 95.339844 73.683594 98.378906 78.335938 99.714844 81.125 C 99.867188 81.449219 100.191406 81.640625 100.53125 81.640625 C 100.660156 81.640625 100.792969 81.609375 100.921875 81.550781 C 101.371094 81.332031 101.5625 80.789062 101.34375 80.339844 Z M 101.34375 80.339844 " fill-opacity="1" fill-rule="nonzero"/><g clip-path="url(#2a592c0e45)"><g clip-path="url(#2c3b3978c8)"><g clip-path="url(#72e5b05841)"><path fill="#faae9f" d="M 155.15625 143.347656 C 151.214844 143.195312 140.816406 127.476562 144.804688 120.328125 C 147.359375 115.75 149.238281 117.355469 154.972656 122.347656 C 158.253906 125.203125 154.960938 125.925781 161.179688 132.335938 C 163.753906 134.988281 159.097656 143.5 155.15625 143.347656 Z M 155.15625 143.347656 " fill-opacity="1" fill-rule="nonzero"/></g></g></g><g clip-path="url(#f99b426b03)"><g clip-path="url(#79a8382820)"><g clip-path="url(#8ffb382fbf)"><path fill="#faae9f" d="M 173.550781 141.078125 C 170.507812 141.285156 167.988281 139.28125 168.449219 135.109375 C 169.460938 126.019531 163.605469 115.183594 170.136719 118.945312 C 173.335938 120.78125 175.671875 127.210938 176.164062 130.753906 C 176.65625 134.300781 176.59375 140.871094 173.550781 141.078125 Z M 173.550781 141.078125 " fill-opacity="1" fill-rule="nonzero"/></g></g></g></svg>