<svg width="55" height="56" viewBox="0 0 55 56" fill="none" xmlns="http://www.w3.org/2000/svg">
<path d="M15.8594 50.8026C14.6133 50.8026 13.5465 50.357 12.6592 49.4657C11.7718 48.5744 11.3281 47.5029 11.3281 46.2513C11.3281 44.9997 11.7718 43.9283 12.6592 43.037C13.5465 42.1457 14.6133 41.7001 15.8594 41.7001C17.1055 41.7001 18.1722 42.1457 19.0596 43.037C19.9469 43.9283 20.3906 44.9997 20.3906 46.2513C20.3906 47.5029 19.9469 48.5744 19.0596 49.4657C18.1722 50.357 17.1055 50.8026 15.8594 50.8026ZM38.5156 50.8026C37.2695 50.8026 36.2028 50.357 35.3154 49.4657C34.4281 48.5744 33.9844 47.5029 33.9844 46.2513C33.9844 44.9997 34.4281 43.9283 35.3154 43.037C36.2028 42.1457 37.2695 41.7001 38.5156 41.7001C39.7617 41.7001 40.8284 42.1457 41.7158 43.037C42.6032 43.9283 43.0469 44.9997 43.0469 46.2513C43.0469 47.5029 42.6032 48.5744 41.7158 49.4657C40.8284 50.357 39.7617 50.8026 38.5156 50.8026ZM13.9336 14.3924L19.3711 25.7706H35.2305L41.4609 14.3924H13.9336ZM11.7812 9.84108H45.1992C46.0677 9.84108 46.7285 10.2298 47.1816 11.0073C47.6348 11.7849 47.6536 12.5718 47.2383 13.3683L39.1953 27.9324C38.7799 28.691 38.223 29.2788 37.5244 29.696C36.8258 30.1132 36.0612 30.3218 35.2305 30.3218H18.3516L15.8594 34.8731H43.0469V39.4244H15.8594C14.1602 39.4244 12.8763 38.6753 12.0078 37.1772C11.1393 35.6791 11.1016 34.1904 11.8945 32.7113L14.9531 27.136L6.79688 9.84108H2.26562V5.28979H9.62891L11.7812 9.84108Z" fill="#F2F2FF"/>
</svg>
