<svg width="50" height="50" viewBox="0 0 50 50" fill="none" xmlns="http://www.w3.org/2000/svg">
<path d="M18.9727 21.4476C19.4627 21.4476 19.86 21.0504 19.86 20.5604C19.86 20.0703 19.4627 19.6731 18.9727 19.6731C18.4827 19.6731 18.0854 20.0703 18.0854 20.5604C18.0854 21.0504 18.4827 21.4476 18.9727 21.4476Z" fill="white"/>
<path d="M7.69928 28.504C8.18931 28.504 8.58656 28.1068 8.58656 27.6168C8.58656 27.1267 8.18931 26.7295 7.69928 26.7295C7.20926 26.7295 6.81201 27.1267 6.81201 27.6168C6.81201 28.1068 7.20926 28.504 7.69928 28.504Z" fill="white"/>
<path d="M18.1065 37.1366C18.5965 37.1366 18.9938 36.7394 18.9938 36.2493C18.9938 35.7593 18.5965 35.3621 18.1065 35.3621C17.6165 35.3621 17.2192 35.7593 17.2192 36.2493C17.2192 36.7394 17.6165 37.1366 18.1065 37.1366Z" fill="white"/>
<path d="M31.8538 30.2055C32.3439 30.2055 32.7411 29.8082 32.7411 29.3182C32.7411 28.8282 32.3439 28.4309 31.8538 28.4309C31.3638 28.4309 30.9666 28.8282 30.9666 29.3182C30.9666 29.8082 31.3638 30.2055 31.8538 30.2055Z" fill="white"/>
<path d="M36.2694 18.0446C36.7594 18.0446 37.1566 17.6473 37.1566 17.1573C37.1566 16.6673 36.7594 16.27 36.2694 16.27C35.7793 16.27 35.3821 16.6673 35.3821 17.1573C35.3821 17.6473 35.7793 18.0446 36.2694 18.0446Z" fill="white"/>
<path d="M42.1881 17.1574C42.6781 17.1574 43.0753 16.7601 43.0753 16.2701C43.0753 15.7801 42.6781 15.3828 42.1881 15.3828C41.698 15.3828 41.3008 15.7801 41.3008 16.2701C41.3008 16.7601 41.698 17.1574 42.1881 17.1574Z" fill="white"/>
<path d="M23.2735 12.7628C23.7635 12.7628 24.1608 12.3656 24.1608 11.8756C24.1608 11.3855 23.7635 10.9883 23.2735 10.9883C22.7835 10.9883 22.3862 11.3855 22.3862 11.8756C22.3862 12.3656 22.7835 12.7628 23.2735 12.7628Z" fill="white"/>
<path d="M24.944 37.8675C26.301 37.8675 27.3971 36.761 27.3971 35.4145C27.3971 34.0575 26.301 32.9614 24.944 32.9614C23.587 32.9614 22.491 34.0575 22.491 35.4145C22.491 36.7715 23.587 37.8675 24.944 37.8675ZM24.944 34.5272C25.4346 34.5272 25.8313 34.9239 25.8313 35.4145C25.8313 35.9051 25.4346 36.3017 24.944 36.3017C24.4534 36.3017 24.0567 35.9051 24.0567 35.4145C24.0567 34.9239 24.4534 34.5272 24.944 34.5272Z" fill="white"/>
<path d="M13.8271 27.7212C11.9586 27.7212 10.4346 29.2452 10.4346 31.1137C10.4346 32.9822 11.9586 34.5062 13.8271 34.5062C15.6956 34.5062 17.2196 32.9926 17.2196 31.1137C17.2196 29.2452 15.6956 27.7212 13.8271 27.7212ZM13.8271 32.9404C12.825 32.9404 12.0003 32.1158 12.0003 31.1137C12.0003 30.1116 12.825 29.287 13.8271 29.287C14.8292 29.287 15.6538 30.1116 15.6538 31.1137C15.6538 32.1158 14.8292 32.9404 13.8271 32.9404Z" fill="white"/>
<path d="M16.7811 17.9822C18.42 17.9822 19.7561 16.646 19.7561 15.0072C19.7561 13.3684 18.42 12.0322 16.7811 12.0322C15.1423 12.0322 13.8062 13.3684 13.8062 15.0072C13.8062 16.646 15.1423 17.9822 16.7811 17.9822ZM16.7811 13.598C17.5536 13.598 18.1903 14.2348 18.1903 15.0072C18.1903 15.7796 17.5536 16.4164 16.7811 16.4164C16.0087 16.4164 15.3719 15.7796 15.3719 15.0072C15.3719 14.2348 16.0087 13.598 16.7811 13.598Z" fill="white"/>
<path d="M12.7415 21.4164C12.7415 20.0594 11.6455 18.9634 10.2885 18.9634C8.93149 18.9634 7.83545 20.0594 7.83545 21.4164C7.83545 22.7734 8.93149 23.8695 10.2885 23.8695C11.6455 23.8695 12.7415 22.7734 12.7415 21.4164ZM10.2885 22.3037C9.79789 22.3037 9.40122 21.907 9.40122 21.4164C9.40122 20.9258 9.79789 20.5292 10.2885 20.5292C10.7791 20.5292 11.1758 20.9258 11.1758 21.4164C11.1758 21.907 10.7791 22.3037 10.2885 22.3037Z" fill="white"/>
<path d="M41.0298 22.6795C40.8732 22.5438 40.6644 22.4811 40.4556 22.502L22.4179 24.0469L33.7437 9.77746C34.0151 9.44343 33.9525 8.94238 33.6184 8.68142C29.9023 5.72732 25.2467 4.1198 20.4972 4.18243C15.7581 4.23462 11.1339 5.92566 7.46998 8.96326C3.8165 12.0635 1.29039 16.3328 0.382239 20.9988C-0.536349 25.6857 0.215222 30.5814 2.48038 34.7672C4.70378 38.9844 8.33638 42.3247 12.7101 44.1932C15.2571 45.2788 17.9711 45.8216 20.6747 45.8216C22.6371 45.8216 24.5996 45.5293 26.4889 44.9552C31.061 43.5773 35.0589 40.6546 37.7416 36.7401C40.4243 32.7944 41.6978 28.0031 41.3012 23.2118C41.2803 23.003 41.1863 22.8152 41.0298 22.6795ZM20.0588 24.5062C19.8709 24.7358 19.85 25.0699 19.9962 25.3517C20.1423 25.6231 20.445 25.7901 20.7478 25.7588L36.2802 24.4331C36.6247 31.6566 32.1153 38.0867 25.1319 40.1848C17.8772 42.1995 10.4136 39.0261 6.97937 32.4708L6.96893 32.4603C3.41984 26.0511 4.88123 17.8777 10.4241 13.0343C16.0609 8.22213 23.9837 7.89853 29.8084 12.2201L20.0588 24.5062ZM26.0296 43.4521C17.4492 46.0826 8.12761 42.1159 3.8687 34.0157C-0.431965 26.0824 1.5096 16.0406 8.48252 10.1428C12.0107 7.22003 16.374 5.7482 20.7373 5.7482C24.7144 5.7482 28.6915 6.9695 32.0318 9.41211L30.8 10.9675C27.752 8.69186 23.9837 7.50187 20.1632 7.62713C16.2488 7.75239 12.4387 9.23466 9.41154 11.8234C6.44701 14.4122 4.43238 17.9717 3.74344 21.8339C3.04406 25.7171 3.71212 29.7463 5.61193 33.1806C7.4491 36.6775 10.445 39.4437 14.0671 40.9677C16.1966 41.8654 18.493 42.3247 20.8104 42.3247C22.4075 42.3247 24.0046 42.1055 25.5703 41.6775C25.5808 41.6775 25.5808 41.6775 25.5808 41.6775C29.3386 40.5502 32.6372 38.1493 34.8502 34.9134C36.9796 31.8131 38.0339 28.0553 37.846 24.287L39.798 24.12C40.1634 32.9823 34.5996 40.8633 26.0296 43.4521Z" fill="white"/>
<path d="M49.9964 18.7545C49.464 13.1699 46.6665 7.92982 42.3241 4.35986C42.1571 4.22416 41.9483 4.16152 41.7395 4.1824C41.5308 4.20328 41.3429 4.30766 41.2072 4.47468L28.7541 20.1742C28.5557 20.4247 28.5348 20.7587 28.681 21.0301C28.8167 21.2807 29.0881 21.4372 29.3699 21.4372C29.3908 21.4372 29.4221 21.4372 29.443 21.4372L49.2866 19.6105C49.4954 19.5896 49.6832 19.4957 49.8189 19.3287C49.9442 19.1721 50.0173 18.9633 49.9964 18.7545ZM37.9921 11.8651C38.4827 11.8651 38.8794 12.2618 38.8794 12.7524C38.8794 13.243 38.4827 13.6397 37.9921 13.6397C37.5015 13.6397 37.1049 13.243 37.1049 12.7524C37.1049 12.2618 37.5015 11.8651 37.9921 11.8651ZM31.134 19.7149L35.7896 13.8276C36.1863 14.6418 37.0213 15.2055 37.9921 15.2055C39.3491 15.2055 40.4452 14.1094 40.4452 12.7524C40.4452 11.5833 39.631 10.6125 38.5454 10.362L39.7458 8.85885C42.5329 11.3537 44.2865 14.6522 44.8607 18.4518L31.134 19.7149ZM46.416 18.3057C45.8001 14.0677 43.8377 10.4037 40.7166 7.62711L41.9274 6.09265C45.4139 9.20332 47.7104 13.5144 48.3367 18.1282L46.416 18.3057Z" fill="white"/>
</svg>
